<?xml version="1.0" encoding="UTF-8"?>
<!-- Created with Inkscape (http://www.inkscape.org/) -->
<svg width="140.62mm" height="23.048mm" version="1.1" viewBox="0 0 140.62 23.048" xmlns="http://www.w3.org/2000/svg" xmlns:cc="http://creativecommons.org/ns#" xmlns:dc="http://purl.org/dc/elements/1.1/" xmlns:rdf="http://www.w3.org/1999/02/22-rdf-syntax-ns#">
 <title>Cisco 1605 R</title>
 <g transform="translate(-237.4 -66.652)">
  <path d="m324.23 83.812h-2.2931v3.8816h2.4694" fill="none" stroke="#000" stroke-width=".35278"/>
  <text transform="scale(.99988 1.0001)" x="323.90732" y="76.128471" fill="#000000" font-family="Helvetica" font-size="1.4113px" stroke-width=".35273"><tspan x="323.90732 325.23959 325.63193" y="76.128471" stroke-width=".35273">WIC</tspan></text>
  <g fill="none" stroke="#000" stroke-width=".14111">
   <path d="m309.47 86.923h7.9558v-7.3152h-7.9558zm0.65299-4.7491v0.01587m6.5832 0v-0.01587m-0.64841-0.45755v2.5788h-0.95709v0.38911h-0.56268v0.38876h-2.3343v-0.38876h-0.39687v-0.38911h-0.99977v-2.5788m-0.7038 3.4865 0.74295-0.90205m0.27976 0.90205 0.61383-0.83785m-0.55527 1.3857 0.61348-1.0957m-0.11677 1.1282 0.46778-1.0957m-0.40922 1.6111 0.43815-1.2566m4.5004 0.12876-0.60114-0.86572m-0.27552 0.86572-0.64276-0.80574m0.67169 1.4182-0.78881-1.1603m0.0293 1.1924-0.46743-1.0636m0.43815 1.5794-0.46743-1.2248m1.4901-2.9323v-1.8694h-5.2599v1.8694h-0.68157v3.0399h1.0111v0.55527h0.56692v0.55598h3.3348v-0.55598h0.80398v-0.55527h0.86643v-3.0399zm-4.9682-0.89923h4.7011v-0.9465h-4.7011zm3.906 0h0.21696v-0.89112h-0.21696zm-0.65123 0h0.21696v-0.89112h-0.21696zm-0.65087 0h0.21696v-0.89112h-0.21696zm-0.65088 0h0.21696v-0.89112h-0.21696zm-0.65087 0h0.21696v-0.89112h-0.21696zm-0.65123 0h0.21696v-0.89112h-0.21696zm-0.88547 0.97578 0.46743-0.38664v-0.57997m4.7925 0.90205-0.52599-0.57997v-0.32209m-73.987 5.6392h7.9558v-7.3152h-7.9558zm0.65335-4.7491v0.01587"/>
   <path d="m248.85 82.19v-0.01587m-0.64841-0.45755v2.5788h-0.95708v0.38911h-0.56268v0.38876h-2.3343v-0.38876h-0.39688v-0.38911h-0.99977v-2.5788m-0.70379 3.4865 0.7433-0.90205m0.2794 0.90205 0.61383-0.83785m-0.55527 1.3857 0.61383-1.0957m-0.11712 1.1282 0.46779-1.0957m-0.40923 1.6111 0.43851-1.2566m4.5 0.12876-0.60113-0.86572m-0.27552 0.86572-0.64276-0.80574m0.67204 1.4182-0.78917-1.1603m0.0293 1.1924-0.46743-1.0636m0.43815 1.5794-0.46743-1.2248m1.4901-2.9323v-1.8694h-5.2599v1.8694h-0.68121v3.0399h1.0107v0.55527h0.56692v0.55598h3.3348v-0.55598h0.80398v-0.55527h0.86642v-3.0399zm-4.9682-0.89923h4.7011v-0.9465h-4.7011zm3.906 0h0.21696v-0.89112h-0.21696zm-0.65087 0h0.21696v-0.89112h-0.21696zm-0.65123 0h0.21696v-0.89112h-0.21696zm-0.65088 0h0.21696v-0.89112h-0.21696zm-0.65087 0h0.21696v-0.89112h-0.21696zm-0.65088 0h0.21696v-0.89112h-0.21696zm-0.88582 0.97578 0.46778-0.38664v-0.57997m4.7925 0.90205-0.52635-0.57997v-0.32209m12.31 1.7036c-0.26705 0-0.48366-0.2166-0.48366-0.48366s0.21661-0.48366 0.48366-0.48366 0.48366 0.2166 0.48366 0.48366-0.21661 0.48366-0.48366 0.48366zm11.755-1.8824c0.49883 0 0.98072 0.4318 0.90311 0.95003-0.10513 0.69568-0.28751 1.5836-0.45014 2.4476-0.0967 0.5147-0.40393 0.95003-0.90276 0.95003h-11.461c-0.49847 0-0.8061-0.43533-0.90276-0.95003-0.16263-0.86395-0.34501-1.7519-0.44979-2.4476-0.078-0.51823 0.40393-0.95003 0.90276-0.95003z"/>
   <path d="m271.5 81.443c0.48365 0 0.95144 0.14393 0.87559 0.64664-0.1016 0.67486-0.27869 1.536-0.43603 2.3742-0.0942 0.49918-0.39229 0.64629-0.87595 0.64629h-10.885c-0.48401 0-0.7821-0.14711-0.8763-0.64629-0.15769-0.8382-0.33443-1.6993-0.43603-2.3742-0.0759-0.50271 0.39194-0.64664 0.87559-0.64664zm0.40781 4.9569c0.77329 0 1.4005-0.62724 1.4005-1.4009h1.7053c0.93945 0 1.7011-0.76165 1.7011-1.7011s-0.76165-1.7011-1.7011-1.7011h-1.7053c0-0.77364-0.62723-1.4009-1.4005-1.4009h-12.583c-0.77329 0-1.4002 0.62724-1.4002 1.4009h-1.7057c-0.93909 0-1.7007 0.76165-1.7007 1.7011s0.76165 1.7011 1.7007 1.7011h1.7057c0 0.77364 0.62689 1.4009 1.4002 1.4009zm-10.301-3.4124c-0.26705 0-0.4833-0.2166-0.4833-0.48366s0.21625-0.48366 0.4833-0.48366c0.26741 0 0.48401 0.2166 0.48401 0.48366s-0.2166 0.48366-0.48401 0.48366zm1.56 0c-0.26706 0-0.48366-0.2166-0.48366-0.48366s0.2166-0.48366 0.48366-0.48366c0.26705 0 0.48365 0.2166 0.48365 0.48366s-0.2166 0.48366-0.48365 0.48366zm1.56 0c-0.26705 0-0.48366-0.2166-0.48366-0.48366s0.21661-0.48366 0.48366-0.48366c0.2674 0 0.48366 0.2166 0.48366 0.48366s-0.21626 0.48366-0.48366 0.48366zm1.56 0c-0.26705 0-0.48366-0.2166-0.48366-0.48366s0.21661-0.48366 0.48366-0.48366c0.26706 0 0.48366 0.2166 0.48366 0.48366s-0.2166 0.48366-0.48366 0.48366zm1.56 0c-0.26706 0-0.48366-0.2166-0.48366-0.48366s0.2166-0.48366 0.48366-0.48366c0.2674 0 0.48365 0.2166 0.48365 0.48366s-0.21625 0.48366-0.48365 0.48366zm1.56 0c-0.26741 0-0.48366-0.2166-0.48366-0.48366s0.21625-0.48366 0.48366-0.48366c0.26705 0 0.48366 0.2166 0.48366 0.48366s-0.21661 0.48366-0.48366 0.48366zm1.56 0c-0.2674 0-0.48401-0.2166-0.48401-0.48366s0.21661-0.48366 0.48401-0.48366c0.2667 0 0.48331 0.2166 0.48331 0.48366s-0.21661 0.48366-0.48331 0.48366zm-10.233 1.4436c-0.26706 0-0.48366-0.2166-0.48366-0.48366 0-0.26741 0.2166-0.48401 0.48366-0.48401 0.2674 0 0.48401 0.2166 0.48401 0.48401 0 0.26705-0.21661 0.48366-0.48401 0.48366zm1.5812 0c-0.26741 0-0.48366-0.2166-0.48366-0.48366 0-0.26741 0.21625-0.48401 0.48366-0.48401 0.26705 0 0.4833 0.2166 0.4833 0.48401 0 0.26705-0.21625 0.48366-0.4833 0.48366zm1.5808 0c-0.2674 0-0.48365-0.2166-0.48365-0.48366 0-0.26741 0.21625-0.48401 0.48365-0.48401 0.2667 0 0.48366 0.2166 0.48366 0.48401 0 0.26705-0.21696 0.48366-0.48366 0.48366zm1.5804 0c-0.26705 0-0.48331-0.2166-0.48331-0.48366 0-0.26741 0.21626-0.48401 0.48331-0.48401 0.2674 0 0.48401 0.2166 0.48401 0.48401 0 0.26705-0.21661 0.48366-0.48401 0.48366zm1.5812 0c-0.26741 0-0.48401-0.2166-0.48401-0.48366 0-0.26741 0.2166-0.48401 0.48401-0.48401 0.26705 0 0.48366 0.2166 0.48366 0.48401 0 0.26705-0.21661 0.48366-0.48366 0.48366zm1.5804 0c-0.2667 0-0.4833-0.2166-0.4833-0.48366 0-0.26741 0.2166-0.48401 0.4833-0.48401 0.26706 0 0.48401 0.2166 0.48401 0.48401 0 0.26705-0.21695 0.48366-0.48401 0.48366zm1.5808 0c-0.26705 0-0.48366-0.2166-0.48366-0.48366 0-0.26741 0.21661-0.48401 0.48366-0.48401 0.26741 0 0.48366 0.2166 0.48366 0.48401 0 0.26705-0.21625 0.48366-0.48366 0.48366zm-13.574-2.5996 1.289 0.74471v1.4894l-1.2894 0.74471-1.289-0.74471v-1.4894zm7e-3 2.2553c0.41839 0 0.75812-0.33972 0.75812-0.75847s-0.33973-0.75812-0.75812-0.75812c-0.41875 0-0.75812 0.33937-0.75812 0.75812s0.33937 0.75847 0.75812 0.75847zm17.889-2.2553 1.289 0.74471v1.4894l-1.2894 0.74471-1.2894-0.74471v-1.4894z"/>
   <path d="m274.55 84.086c0.41874 0 0.75812-0.33972 0.75812-0.75847s-0.33938-0.75812-0.75812-0.75812c-0.4184 0-0.75777 0.33937-0.75777 0.75812s0.33937 0.75847 0.75777 0.75847zm56.539-11.862m-2.2437 5.0186v1.252h1.0453m0-1.252h-1.0453m1.0453-2.0373v2.0373"/>
  </g>
  <g stroke="#000" stroke-width=".14111">
   <path d="m327.71 71.994c0-0.06456 0.0282-0.44274 0.44274-0.44274h2.6367v0.69144h0.32244v-0.69144h25.276v0.69144h0.32244v-0.69144h2.5993c0.16615 0 0.46108 0.09207 0.46108 0.4886v7.5791c0 0.19368 0 0.35031-0.37783 0.35948-0.0416 0.0011-1.8172 0.0025-1.8172 0.0025v-1.851h-0.36159v0.70802l-3.2272 3.53e-4v-0.69921h-0.4198v1.8429c-7.5262 3.53e-4 -20.302-0.0021-20.302-0.0021v-1.7568h-0.41064v0.61666h-2.564v-0.62588h-0.39053v0.65264s-1.7261-3.53e-4 -1.7653-3.53e-4c-0.27658 0-0.39652-0.21237-0.42439-0.43356v-6.4385z" fill="#fff"/>
   <path d="m358.02 74.432c0.38382 0 0.69497-0.31115 0.69497-0.69497 0-0.38382-0.31115-0.69497-0.69497-0.69497s-0.69497 0.31115-0.69497 0.69497c0 0.38382 0.31115 0.69497 0.69497 0.69497z" fill="#fff"/>
   <path d="m359.8 72.163h-1.862c-0.8502 0-1.5392 0.68898-1.5392 1.5392 0 0.84984 0.68897 1.5388 1.5392 1.5388h1.8073" fill="none"/>
   <path d="m329.52 74.432c-0.38347 0-0.69462-0.31115-0.69462-0.69497 0-0.38382 0.31115-0.69497 0.69462-0.69497 0.38383 0 0.69498 0.31115 0.69498 0.69497 0 0.38382-0.31115 0.69497-0.69498 0.69497z" fill="#fff"/>
   <path d="m327.75 72.163h1.862c0.84984 0 1.5388 0.68898 1.5388 1.5392 0 0.84984-0.68897 1.5388-1.5388 1.5388h-1.8073" fill="none"/>
  </g>
  <text x="337.02545" y="72.934052" fill="#231f20" font-family="Helvetica" font-size="1.0326px" font-weight="bold" stroke-width=".35278"><tspan x="337.02545 337.75034 338.53302 338.79944 339.52429 340.30701 340.91727 341.18365 341.45007 342.17493 342.84302 343.45328 344.17813 344.78839 345.39865 345.66507 346.38992 347.11481 347.7829 348.04929 349.00339 349.72827" y="72.934052">DO NOT INSTALL ANY WAN</tspan><tspan x="337.02545 337.86496 338.64764 339.37253 340.09738 340.70764 341.37573 341.64212 342.59622 342.86264 343.4729 344.19775 344.46417 345.13226 345.91495 346.86905 347.53714 348.26199 348.52841 349.3111" y="74.143105">MODULE WITH POWER ON</tspan></text>
  <path d="m336.97 77.928v-0.0025h-1.633c-0.27869 0-0.50482 0.22613-0.50482 0.50518s0.22613 0.50482 0.50482 0.50482c9e-3 0 0.0169-0.0021 0.0258-0.0021h1.5589c8e-3 0 0.0166 0.0021 0.0254 0.0021 0.27905 0 0.50483-0.22578 0.50483-0.50482 0-0.27093-0.21379-0.49071-0.4819-0.50271zm18.51-2.8399v-0.0025h-1.633c-0.27905 0-0.50482 0.22613-0.50482 0.50518s0.22577 0.50518 0.50482 0.50518c9e-3 0 0.0169-0.0021 0.0254-0.0028h1.5593c8e-3 7.06e-4 0.0166 0.0028 0.0254 0.0028 0.27869 0 0.50482-0.22613 0.50482-0.50518 0-0.27093-0.21378-0.49036-0.48189-0.50271zm0-1.4386v-0.0021h-1.633c-0.27905 0-0.50482 0.22613-0.50482 0.50518 0 0.27869 0.22577 0.50482 0.50482 0.50482 9e-3 0 0.0169-0.0021 0.0254-0.0025h1.5593c8e-3 3.52e-4 0.0166 0.0025 0.0254 0.0025 0.27869 0 0.50482-0.22613 0.50482-0.50482 0-0.27129-0.21378-0.49036-0.48189-0.50306zm0-1.4383v-0.0021h-1.633c-0.27905 0-0.50482 0.22613-0.50482 0.50482 0 0.27905 0.22577 0.50518 0.50482 0.50518 9e-3 0 0.0169-0.0021 0.0254-0.0025h1.5593c8e-3 3.52e-4 0.0166 0.0025 0.0254 0.0025 0.27869 0 0.50482-0.22613 0.50482-0.50518 0-0.27093-0.21378-0.49036-0.48189-0.50271zm-21.865 2.8769v-0.0025h-1.633c-0.2787 0-0.50518 0.22613-0.50518 0.50518s0.22648 0.50518 0.50518 0.50518c9e-3 0 0.0169-0.0021 0.0254-0.0028h1.5589c9e-3 7.06e-4 0.0169 0.0028 0.0258 0.0028 0.2787 0 0.50483-0.22613 0.50483-0.50518 0-0.27093-0.21379-0.49036-0.4819-0.50271zm0-1.4386v-0.0021h-1.633c-0.2787 0-0.50518 0.22613-0.50518 0.50518 0 0.27869 0.22648 0.50482 0.50518 0.50482 9e-3 0 0.0169-0.0021 0.0254-0.0025h1.5589c9e-3 3.52e-4 0.0169 0.0025 0.0258 0.0025 0.2787 0 0.50483-0.22613 0.50483-0.50482 0-0.27129-0.21379-0.49036-0.4819-0.50306zm0-1.4383v-0.0021h-1.633c-0.2787 0-0.50518 0.22613-0.50518 0.50482 0 0.27905 0.22648 0.50518 0.50518 0.50518 9e-3 0 0.0169-0.0021 0.0254-0.0025h1.5589c9e-3 3.52e-4 0.0169 0.0025 0.0258 0.0025 0.2787 0 0.50483-0.22613 0.50483-0.50518 0-0.27093-0.21379-0.49036-0.4819-0.50271zm6.3789 5.7168v-0.0025h-1.633c-0.27869 0-0.50517 0.22613-0.50517 0.50518s0.22648 0.50482 0.50517 0.50482c9e-3 0 0.0169-0.0021 0.0254-0.0021h1.5589c9e-3 0 0.0169 0.0021 0.0254 0.0021 0.27905 0 0.50518-0.22578 0.50518-0.50482 0-0.27093-0.21414-0.49071-0.4819-0.50271zm3.0233 0v-0.0025h-1.633c-0.2787 0-0.50483 0.22613-0.50483 0.50518s0.22613 0.50482 0.50483 0.50482c9e-3 0 0.0169-0.0021 0.0258-0.0021h1.5589c8e-3 0 0.0169 0.0021 0.0254 0.0021 0.27904 0 0.50482-0.22578 0.50482-0.50482 0-0.27093-0.21378-0.49071-0.48189-0.50271zm3.0237 0v-0.0025h-1.633c-0.2787 0-0.50483 0.22613-0.50483 0.50518s0.22613 0.50482 0.50483 0.50482c9e-3 0 0.0169-0.0021 0.0254-0.0021h1.5593c8e-3 0 0.0166 0.0021 0.0254 0.0021 0.2787 0 0.50483-0.22578 0.50483-0.50482 0-0.27093-0.21378-0.49071-0.48189-0.50271zm3.0236 0v-0.0025h-1.633c-0.27905 0-0.50518 0.22613-0.50518 0.50518s0.22613 0.50482 0.50518 0.50482c8e-3 0 0.0169-0.0021 0.0254-0.0021h1.5589c9e-3 0 0.0169 0.0021 0.0254 0.0021 0.27905 0 0.50518-0.22578 0.50518-0.50482 0-0.27093-0.21414-0.49071-0.4819-0.50271zm3.0233 0v-0.0025h-1.6327c-0.27904 0-0.50517 0.22613-0.50517 0.50518s0.22613 0.50482 0.50517 0.50482c8e-3 0 0.0166-0.0021 0.0254-0.0021h1.5589c8e-3 0 0.0166 0.0021 0.0254 0.0021 0.27869 0 0.50518-0.22578 0.50518-0.50482 0-0.27093-0.21414-0.49071-0.48225-0.50271z" fill="none" stroke="#000" stroke-width=".14111"/>
  <path d="m251.49 86.367h2.0024v-2.0027h-2.0024zm73.736 0.35278h2.0024v-2.0027h-2.0024zm-49.722-8.7454c0.44944 0 0.81351-0.63994 0.81351-1.4295 0-0.78916-0.36407-1.4291-0.81351-1.4291h-35.24c-0.44944 0-0.81386 0.63994-0.81386 1.4291 0 0.78952 0.36442 1.4295 0.81386 1.4295z" fill="none" stroke="#000" stroke-width=".14111"/>
  <text transform="scale(.99983 1.0002)" x="240.83629" y="77.300201" fill="#000000" font-family="Helvetica" font-size="2.117px" stroke-width=".35272"><tspan x="240.83629 242.01335 243.19041 243.77895 245.19099 246.60304 248.01511 249.42715 250.01569" y="77.300201">10 BASE T</tspan><tspan x="253.87311 255.28516 256.57864 258.10715 259.5192 261.04767 262.57617 263.98822 265.28171 265.87024 270.67166 272.08371 273.61218" y="77.240501">ETHERNET ØAUI</tspan></text>
  <text transform="matrix(0 -1.0002 .99983 0 0 0)" x="-89.619972" y="378.05478" fill="#000000" font-family="Helvetica" font-size="2.117px" stroke-width=".35272"><tspan x="-89.619972 -88.091484 -86.914421 -85.737358 -84.560295 -83.383232" y="378.05478" stroke-width=".35272">H10374</tspan></text>
  <path d="m252.45 83.372h-2.0729v4.0143h2.117m-2.2493-2.1174h-0.61736" fill="none" stroke="#000" stroke-width=".35278"/>
  <text transform="scale(.99988 1.0001)" x="250.7162" y="82.47979" fill="#000000" font-family="Helvetica" font-size="1.4113px" stroke-width=".35273"><tspan x="250.7162 251.50089 252.51982" y="82.47979">LNK</tspan><tspan x="325.88208 326.98007" y="82.891602">OK</tspan></text>
  <path d="m328.32 85.96h1.1758m-2.7048-10.351h0.86924" fill="none" stroke="#000" stroke-width=".35278"/>
  <path d="m318.72 74.973h-10.761c-0.13547 0-0.54998 0.63994-0.54998 1.4291 0 0.78952 0.41451 1.4295 0.54998 1.4295h10.761c0.13547 0 0.54998-0.63994 0.54998-1.4295 0-0.78916-0.41451-1.4291-0.54998-1.4291z" fill="none" stroke="#000" stroke-width=".14111"/>
  <text transform="scale(.99983 1.0002)" x="308.20865" y="77.152061" fill="#000000" font-family="Helvetica" font-size="2.117px" stroke-width=".35272"><tspan x="308.20865 309.73715 311.38419 312.91269 314.32474 315.97177 317.14883" y="77.152061" stroke-width=".35272">CONSOLE</tspan></text>
  <path d="m278.54 87.382h7.9558v-7.3152h-7.9558zm0.6537-4.7494v0.01623m6.5828 0v-0.01623m-0.64841-0.45755v2.5792h-0.95708v0.38911h-0.56268v0.38841h-2.3343v-0.38841h-0.39688v-0.38911h-0.99977v-2.5792m-0.70379 3.4869 0.74295-0.90241m0.27975 0.90241 0.61348-0.83785m-0.55492 1.3854 0.61348-1.0954m-0.11677 1.1278 0.46743-1.0957m-0.40922 1.6115 0.4385-1.2569m4.5004 0.12876-0.60149-0.86536m-0.27552 0.86536-0.6424-0.80539m0.67168 1.4178-0.78881-1.1599m0.0293 1.1924-0.46743-1.0636m0.43815 1.579-0.46743-1.2245m1.4901-2.9326v-1.869h-5.2599v1.869h-0.68121v3.0399h1.0107v0.55562h0.56692v0.55562h3.3348v-0.55562h0.80398v-0.55562h0.86642v-3.0399zm-4.9682-0.89923h4.7011v-0.9465h-4.7011zm3.9056 0h0.21696v-0.89112h-0.21696zm-0.65088 0h0.21696v-0.89112h-0.21696zm-0.65087 0h0.21696v-0.89112h-0.21696zm-0.65088 0h0.21696v-0.89112h-0.21696zm-0.65122 0h0.21695v-0.89112h-0.21695zm-0.65088 0h0.21696v-0.89112h-0.21696zm-0.88582 0.97578 0.46778-0.38664v-0.57997m4.7925 0.9024-0.526-0.57997v-0.32244m20.197-3.8231c0.33832 0 0.61243-0.63994 0.61243-1.4291 0-0.78952-0.27411-1.4291-0.61243-1.4291h-26.904c-0.33831 0-0.61242 0.63959-0.61242 1.4291 0 0.78916 0.27411 1.4291 0.61242 1.4291z" fill="none" stroke="#000" stroke-width=".14111"/>
  <text transform="scale(.99983 1.0002)" x="279.27252" y="77.239182" fill="#000000" font-family="Helvetica" font-size="2.117px" stroke-width=".35272"><tspan x="279.27252 280.68457 281.97809 283.50656 284.91861 286.44711 287.97559 289.38766 290.68115 291.26968 292.44675 293.03528 294.21234 295.3894 295.97794 297.38998 298.80203 300.21408 301.62613 302.21466" y="77.239182" stroke-width=".35272">ETHERNET 1 10 BASE T</tspan></text>
  <path d="m288.9 86.285h2.0024v-2.0027h-2.0024z" fill="none" stroke="#000" stroke-width=".14111"/>
  <text transform="scale(.99988 1.0001)" x="288.54434" y="82.808891" fill="#000000" font-family="Helvetica" font-size="1.4113px" stroke-width=".35273"><tspan x="288.54434 289.32904 290.34796" y="82.808891" stroke-width=".35273">LNK</tspan></text>
  <g fill="none" stroke="#000">
   <path d="m287.94 87.296h3.8809v-3.8816h-3.8809z" stroke-miterlimit="2.613" stroke-width=".35278"/>
   <g>
    <path d="m287.81 85.312h-1.2351m39.162-1.4997h2.2931v3.8816h-2.4694" stroke-width=".35278"/>
    <path d="m322.61 86.754h2.0024v-2.0027h-2.0024z" stroke-width=".14111"/>
    <path d="m321.68 85.665h-1.0583v-7.2341-2.8526h2.5136" stroke-width=".35278"/>
   </g>
  </g>
  <g stroke="#000" stroke-width=".14111">
   <g stroke-miterlimit="2.613">
    <path d="m291.55 72.954 0.41592 0.65052h0.22331v0.08043h-0.27411l-0.46708-0.73096z" fill="#fff"/>
    <path d="m291.9 72.954-0.41627 0.65052h-0.21449v0.08043h0.26529l0.46743-0.73096z" fill="#fff"/>
    <path d="m291.12 73.929h1.2404v-1.2506h-1.2404zm-0.17216 0.17216 1.585-1.585" fill="none"/>
   </g>
   <path d="m291.73 72.177c-0.61172 0-1.107 0.49565-1.107 1.107 0 0.61172 0.4953 1.1074 1.107 1.1074 0.61136 0 1.1067-0.49565 1.1067-1.1074 0-0.61136-0.4953-1.107-1.1067-1.107z" fill="none"/>
   <g stroke-miterlimit="2.613">
    <path d="m313.07 72.836 0.41628 0.65088h0.22296v0.08043h-0.27376l-0.46708-0.73131z" fill="#fff"/>
    <path d="m313.42 72.836-0.41628 0.65088h-0.21448v0.08043h0.26528l0.46708-0.73131z" fill="#fff"/>
    <path d="m312.64 73.812h1.2404v-1.251h-1.2404zm-0.17216 0.1718 1.5847-1.585" fill="none"/>
   </g>
   <path d="m313.25 72.06c-0.61136 0-1.107 0.49565-1.107 1.1074 0 0.61172 0.49565 1.1074 1.107 1.1074 0.61137 0 1.107-0.49565 1.107-1.1074 0-0.61172-0.49565-1.1074-1.107-1.1074z" fill="none"/>
   <g stroke-miterlimit="2.613">
    <path d="m272.38 72.836 0.41628 0.65088h0.22295v0.08043h-0.27375l-0.46708-0.73131z" fill="#fff"/>
    <path d="m272.73 72.836-0.41628 0.65088h-0.21449v0.08043h0.26529l0.46708-0.73131z" fill="#fff"/>
    <path d="m271.95 73.812h1.2404v-1.251h-1.2404zm-0.17215 0.1718 1.5847-1.585" fill="none"/>
   </g>
   <path d="m272.56 72.06c-0.61136 0-1.107 0.49565-1.107 1.1074 0 0.61172 0.49566 1.1074 1.107 1.1074s1.107-0.49565 1.107-1.1074c0-0.61172-0.49566-1.1074-1.107-1.1074z" fill="none"/>
   <g stroke-miterlimit="2.613">
    <path d="m250.4 72.719 0.41628 0.65052h0.22295v0.08079h-0.27375l-0.46708-0.73131z" fill="#fff"/>
    <path d="m250.75 72.719-0.41628 0.65052h-0.21449v0.08079h0.26529l0.46708-0.73131z" fill="#fff"/>
    <path d="m249.97 73.694h1.2404v-1.251h-1.2404zm-0.17215 0.17216 1.5847-1.5854" fill="none"/>
   </g>
   <path d="m250.58 71.942c-0.61136 0-1.107 0.49565-1.107 1.1074 0 0.61136 0.49566 1.107 1.107 1.107s1.107-0.49565 1.107-1.107c0-0.61172-0.49566-1.1074-1.107-1.1074z" fill="none"/>
  </g>
  <text transform="scale(.99988 1.0001)" x="322.62201" y="82.877678" fill="#000000" font-family="Helvetica" font-size="1.4113px" stroke-width=".35273"><tspan x="322.62201 323.71997" y="82.877678" stroke-width=".35273">OK</tspan></text>
  <path d="m240.41 88.875h130.72l0.0868 0.0032c1.2905-3.2064 2.0235-6.8841 2.0235-10.795 0-3.6209-0.62865-7.0425-1.7462-10.075h-1.1515v-0.57011h-129.09v0.57009h-1.1328c-1.1176 3.0321-1.7466 6.4537-1.7466 10.075 0 3.9105 0.73343 7.5882 2.0239 10.795m-0.56268 0.68157h131.92l0.0914-0.1023c1.3547-3.3666 2.1251-7.3812 2.1251-11.487 0-3.8019-0.6604-7.3946-1.8337-10.578l-0.29421-0.59831h-132.19l-0.27411 0.59831c-1.1737 3.1838-1.8341 6.7765-1.8341 10.578 0 4.106 0.92287 8.1206 2.2779 11.487m125.89-12.076h4.1892v-8.7111h-4.1892zm3.3708-0.35772c0.25012 0 0.45262-0.20285 0.45262-0.45261v-6.9846c0-0.25012-0.2025-0.45261-0.45262-0.45261h-2.5068c-0.24977 0-0.45262 0.2025-0.45262 0.45261v6.9846c0 0.24977 0.20285 0.45261 0.45262 0.45261zm-2.7093-4.0714h2.903m-36.589 13.824h25.926v-2.2056h-25.926zm-2.9122 0.32279h2.9136v-2.9143h-2.9136z" fill="none" stroke="#000" stroke-width=".14111"/>
  <text transform="scale(.99988 1.0001)" x="340.42715" y="83.958099" fill="#000000" font-family="Helvetica" font-size="1.4113px" stroke-width=".35273"><tspan x="340.42715 341.28946 342.07413 343.01544 343.95679 344.97574 345.36807 346.30939 347.32834 347.72067 348.73962 349.68097 350.69992 355.33176 356.11642 356.90112 357.29346 358.23477 359.25372" y="83.958099" stroke-width=".35273">FLASH PC CARD14 VDC</tspan></text>
  <g fill="#fff" stroke="#000" stroke-width=".14111">
   <path d="m243.49 73.337c1.2026 0 2.1777-0.97508 2.1777-2.178 0-1.2026-0.97508-2.1777-2.1777-2.1777-1.2023 0-2.1773 0.97508-2.1773 2.1777 0 1.203 0.97508 2.178 2.1773 2.178z"/>
   <path d="m243.49 72.71c0.85619 0 1.5505-0.69427 1.5505-1.5508 0-0.85619-0.69427-1.5505-1.5505-1.5505s-1.5501 0.69427-1.5501 1.5505c0 0.85654 0.69391 1.5508 1.5501 1.5508z"/>
   <path d="m242.84 71.735c-0.31821 0-0.57573-0.25788-0.57573-0.57609 0-0.31785 0.25752-0.57573 0.57573-0.57573h1.2838c0.31785 0 0.57573 0.25788 0.57573 0.57573 0 0.31821-0.25788 0.57609-0.57573 0.57609z"/>
  </g>
  <g stroke="#000">
   <path d="m364.33 87.223c1.4993 0 2.715-1.2464 2.715-2.7838 0-1.5374-1.2157-2.7841-2.715-2.7841-1.5 0-2.7157 1.2467-2.7157 2.7841 0 1.5374 1.2157 2.7838 2.7157 2.7838zm-1.1934-3.2159h0.48013v-0.96026h-0.48013zm-0.45155 1.2485h0.47977v-0.96026h-0.47977zm0.87594 1.0403h0.47978v-0.96026h-0.47978zm1.0202-0.02928h0.48013v-0.96026h-0.48013zm0.93803-0.99378h0.48013v-0.96026h-0.48013zm-0.36653-1.2658h0.48013v-0.96026h-0.48013zm-1.0562 0.38418h0.48013v-0.96061h-0.48013zm0.56056-1.742h-0.78951v-0.59796c-0.9772 0.27658-1.7911 1.294-1.7911 2.388 0 1.3123 1.0333 2.3767 2.3082 2.3767 1.2746 0 2.3079-1.0643 2.3079-2.3767 0-1.1783-0.94297-2.1953-2.0355-2.383zm2.9789 2.4589c0 0.49848 0.40393 0.90241 0.90205 0.90241s0.90205-0.40393 0.90205-0.90241v-1.9999c0-0.49812-0.40393-0.9024-0.90205-0.9024s-0.90205 0.40428-0.90205 0.9024z" fill="none" stroke-width=".14111"/>
   <path d="m367.99 83.108c0-0.14676 0.0575-0.28469 0.16086-0.38841 0.10372-0.10372 0.24201-0.16087 0.38841-0.16087 0.14676 0 0.28469 0.05715 0.38841 0.16087s0.16087 0.24165 0.16087 0.38841v1.9999c0 0.30304-0.24624 0.54928-0.54928 0.54928-0.1464 0-0.28469-0.05715-0.38841-0.16087-0.10336-0.10372-0.16086-0.24165-0.16086-0.38841z" fill="none" stroke-width=".088194"/>
   <path d="m368.82 87.189v-2.4141h-0.52917v2.4141" fill="#fff" stroke-width=".14111"/>
   <path d="m368.82 80.777v2.4144h-0.52917v-2.4144" fill="#fff" stroke-width=".14111"/>
  </g>
  <g>
   <path d="m371.44 82.307c0.6149-0.2861 1.2506-0.58208 1.7484-0.58208 0.61489 0 1.1931 0.23954 1.6281 0.67451m0.3743-0.3743c-0.53481-0.53481-1.246-0.82938-2.0024-0.82938-0.61489 0-1.3046 0.32103-1.972 0.63147m1.972 4.5036c-0.49777 0-1.1335-0.29598-1.7484-0.58208m-0.22366 0.47978c0.66746 0.31044 1.3571 0.63182 1.972 0.63182" fill="none" stroke="#fff" stroke-width=".88194"/>
   <path d="m368.82 88.5v-2.4144c0-0.09384 0.0258-0.16369 0.0815-0.21908 0.11747-0.11748 0.37042-0.18203 0.71296-0.18203 0.42969 0 1.0234 0.27658 1.5977 0.54398 0.66746 0.31044 1.3571 0.63182 1.972 0.63182 0.75636 0 1.4676-0.29492 2.0024-0.82973s0.82938-1.246 0.82938-2.0027c0-0.75636-0.29457-1.4676-0.82938-2.0027-0.53481-0.53481-1.246-0.82938-2.0024-0.82938-0.61489 0-1.3046 0.32103-1.972 0.63147-0.57432 0.26741-1.168 0.54398-1.5977 0.54398-0.34254 0-0.59549-0.06456-0.71296-0.18203-0.0557-0.05539-0.0815-0.12524-0.0815-0.21908v-2.4141h-0.52917v2.4141c0 0.23354 0.0815 0.43886 0.23636 0.59337 0.22366 0.22366 0.58914 0.33726 1.0873 0.33726 0.54681 0 1.1659-0.28857 1.8214-0.59372 0.6149-0.2861 1.2506-0.58208 1.7484-0.58208 0.61489 0 1.1931 0.23954 1.6281 0.67451 0.43498 0.43498 0.67416 1.0132 0.67416 1.6284 0 1.27-1.0326 2.3029-2.3022 2.3029-0.49777 0-1.1335-0.29598-1.7484-0.58208-0.65546-0.30551-1.2746-0.59337-1.8214-0.59337-1.1945 0-1.3236 0.65052-1.3236 0.93028v2.4144z" fill="#fff" stroke="#000" stroke-width=".14111"/>
   <path d="m375.19 82.025c-0.38735-0.3877-0.86819-0.64664-1.3906-0.76129 0.10865-1.0844 0.16933-2.1848 0.16933-3.2935 0-3.8019-0.6604-7.3946-1.8337-10.578l-0.29421-0.59831h-132.19l-0.27411 0.59831c-1.1737 3.1838-1.8341 6.7765-1.8341 10.578 0 4.106 0.92287 8.1206 2.2779 11.487l0.0127 0.1023h131.92l0.0914-0.1023c0.33972-0.8442 0.64241-1.7293 0.90558-2.6462 0.14922 0.03034 0.29598 0.04904 0.4385 0.04904 0.75636 0 1.4676-0.29492 2.0024-0.82973s0.82938-1.246 0.82938-2.0027c0-0.75636-0.29457-1.4676-0.82938-2.0027z" fill="none" stroke="#000" stroke-width=".28222"/>
  </g>
 </g>
 <metadata>
  <rdf:RDF>
   <cc:Work rdf:about="">
    <dc:title>Cisco 1605 R</dc:title>
    <dc:creator>
     <cc:Agent>
      <dc:title>Cisco</dc:title>
     </cc:Agent>
    </dc:creator>
    <dc:rights>
     <cc:Agent>
      <dc:title>Cisco</dc:title>
     </cc:Agent>
    </dc:rights>
    <dc:description>Made for: savalione.com</dc:description>
   </cc:Work>
  </rdf:RDF>
 </metadata>
</svg>
