<?xml version="1.0" encoding="UTF-8"?>
<!-- Created with Inkscape (http://www.inkscape.org/) -->
<svg width="140.77mm" height="23.048mm" version="1.1" viewBox="0 0 140.77 23.048" xmlns="http://www.w3.org/2000/svg" xmlns:cc="http://creativecommons.org/ns#" xmlns:dc="http://purl.org/dc/elements/1.1/" xmlns:rdf="http://www.w3.org/1999/02/22-rdf-syntax-ns#">
 <title>Cisco 1604 R</title>
 <g transform="translate(-107.38 -52.374)">
  <text transform="scale(.99862 1.0014)" x="196.6743" y="63.462372" fill="#000000" font-family="Helvetica" font-size="1.4095px" stroke-width=".35229"><tspan x="196.6743 198.0049 198.39674" y="63.462372" stroke-width=".35229">WIC</tspan></text>
  <g transform="matrix(.35228 0 0 -.35327 69.005 161.66)" stroke="#000" stroke-width=".4">
   <g fill="none">
    <path d="m327.62 253h22.525v20.706h-22.525zm1.849 13.443v-0.045m18.638 0v0.045m-1.835 1.295v-7.3h-2.71v-1.101h-1.594v-1.101h-6.608v1.101h-1.124v1.101h-2.831v7.3m-1.992-9.869 2.104 2.554m0.791-2.554 1.738 2.372m-1.572-3.923 1.737 3.102m-0.331-3.193 1.324 3.101m-1.158-4.56 1.241 3.557m12.741-0.365-1.702 2.45m-0.78-2.45-1.82 2.281m1.903-4.014-2.234 3.284m0.083-3.375-1.324 3.01m1.241-4.47-1.324 3.466m4.22 8.301v5.291h-14.893v-5.291h-1.929v-8.605h2.862v-1.572h1.606v-1.573h9.441v1.573h2.277v1.572h2.452v8.605zm-14.066 2.545h13.31v2.68h-13.31zm11.058 0h0.614v2.522h-0.614zm-1.843 0h0.614v2.522h-0.614zm-1.843 0h0.614v2.522h-0.614zm-1.844 0h0.615v2.522h-0.615zm-1.842 0h0.615v2.522h-0.615zm-1.843 0h0.615v2.522h-0.615zm-2.508-2.762 1.324 1.095v1.642m13.569-2.554-1.489 1.641v0.913m-218.46-15.963h22.525v20.706h-22.525zm1.85 13.443v-0.045"/>
    <path d="m146.98 266.4v0.045m-1.835 1.295v-7.3h-2.71v-1.101h-1.594v-1.101h-6.608v1.101h-1.124v1.101h-2.831v7.3m-1.992-9.869 2.104 2.554m0.792-2.554 1.737 2.372m-1.572-3.923 1.738 3.102m-0.331-3.193 1.323 3.101m-1.158-4.56 1.241 3.557m12.742-0.365-1.703 2.45m-0.78-2.45-1.819 2.281m1.902-4.014-2.234 3.284m0.083-3.375-1.323 3.01m1.24-4.47-1.323 3.466m4.219 8.301v5.291h-14.892v-5.291h-1.929v-8.605h2.862v-1.572h1.605v-1.573h9.441v1.573h2.277v1.572h2.452v8.605zm-14.066 2.545h13.31v2.68h-13.31zm11.058 0h0.615v2.522h-0.615zm-1.843 0h0.614v2.522h-0.614zm-1.843 0h0.614v2.522h-0.614zm-1.843 0h0.615v2.522h-0.615zm-1.843 0h0.615v2.522h-0.615zm-1.843 0h0.614v2.522h-0.614zm-2.508-2.762 1.324 1.095v1.642m13.569-2.554-1.49 1.641v0.913m38.848-4.823c-0.757 0-1.37 0.613-1.37 1.369s0.613 1.369 1.37 1.369c0.756 0 1.369-0.613 1.369-1.369s-0.613-1.369-1.369-1.369zm33.28 5.329c1.412 0 2.777-1.222 2.557-2.689-0.297-1.97-0.814-4.483-1.274-6.928-0.274-1.457-1.144-2.69-2.556-2.69h-32.45c-1.411 0-2.282 1.233-2.556 2.69-0.46 2.445-0.976 4.958-1.273 6.928-0.221 1.467 1.144 2.689 2.556 2.689z"/>
    <path d="m215.11 268.52c1.37 0 2.695-0.407 2.48-1.831-0.288-1.91-0.789-4.348-1.236-6.719-0.266-1.413-1.11-1.83-2.479-1.83h-30.817c-1.37 0-2.214 0.417-2.48 1.83-0.447 2.371-0.948 4.809-1.236 6.719-0.214 1.424 1.111 1.831 2.48 1.831zm1.155-14.031c2.19 0 3.965 1.776 3.965 3.965h4.829c2.659 0 4.815 2.156 4.815 4.815 0 2.66-2.156 4.816-4.815 4.816h-4.829c0 2.189-1.775 3.965-3.965 3.965h-35.624c-2.19 0-3.965-1.776-3.965-3.965h-4.829c-2.659 0-4.816-2.156-4.816-4.816 0-2.659 2.157-4.815 4.816-4.815h4.829c0-2.189 1.775-3.965 3.965-3.965zm-29.165 9.659c-0.756 0-1.37 0.613-1.37 1.369s0.614 1.369 1.37 1.369 1.37-0.613 1.37-1.369-0.614-1.369-1.37-1.369zm4.416 0c-0.757 0-1.37 0.613-1.37 1.369s0.613 1.369 1.37 1.369c0.756 0 1.369-0.613 1.369-1.369s-0.613-1.369-1.369-1.369zm4.417 0c-0.756 0-1.37 0.613-1.37 1.369s0.614 1.369 1.37 1.369 1.369-0.613 1.369-1.369-0.613-1.369-1.369-1.369zm4.416 0c-0.756 0-1.369 0.613-1.369 1.369s0.613 1.369 1.369 1.369c0.757 0 1.37-0.613 1.37-1.369s-0.613-1.369-1.37-1.369zm4.417 0c-0.756 0-1.369 0.613-1.369 1.369s0.613 1.369 1.369 1.369c0.757 0 1.37-0.613 1.37-1.369s-0.613-1.369-1.37-1.369zm4.416 0c-0.756 0-1.369 0.613-1.369 1.369s0.613 1.369 1.369 1.369c0.757 0 1.37-0.613 1.37-1.369s-0.613-1.369-1.37-1.369zm4.417 0c-0.757 0-1.37 0.613-1.37 1.369s0.613 1.369 1.37 1.369c0.756 0 1.369-0.613 1.369-1.369s-0.613-1.369-1.369-1.369zm-28.971-4.086c-0.757 0-1.37 0.613-1.37 1.369 0 0.757 0.613 1.37 1.37 1.37 0.756 0 1.369-0.613 1.369-1.37 0-0.756-0.613-1.369-1.369-1.369zm4.476 0c-0.757 0-1.37 0.613-1.37 1.369 0 0.757 0.613 1.37 1.37 1.37 0.756 0 1.369-0.613 1.369-1.37 0-0.756-0.613-1.369-1.369-1.369zm4.475 0c-0.756 0-1.369 0.613-1.369 1.369 0 0.757 0.613 1.37 1.369 1.37s1.37-0.613 1.37-1.37c0-0.756-0.614-1.369-1.37-1.369zm4.475 0c-0.756 0-1.369 0.613-1.369 1.369 0 0.757 0.613 1.37 1.369 1.37 0.757 0 1.37-0.613 1.37-1.37 0-0.756-0.613-1.369-1.37-1.369zm4.476 0c-0.756 0-1.369 0.613-1.369 1.369 0 0.757 0.613 1.37 1.369 1.37s1.37-0.613 1.37-1.37c0-0.756-0.614-1.369-1.37-1.369zm4.476 0c-0.756 0-1.369 0.613-1.369 1.369 0 0.757 0.613 1.37 1.369 1.37s1.369-0.613 1.369-1.37c0-0.756-0.613-1.369-1.369-1.369zm4.475 0c-0.756 0-1.369 0.613-1.369 1.369 0 0.757 0.613 1.37 1.369 1.37 0.757 0 1.37-0.613 1.37-1.37 0-0.756-0.613-1.369-1.37-1.369zm-38.432 7.358 3.65-2.108v-4.215l-3.651-2.108-3.649 2.108v4.215zm0.021-6.383c1.185 0 2.146 0.961 2.146 2.146 0 1.186-0.961 2.147-2.146 2.147s-2.146-0.961-2.146-2.147c0-1.185 0.961-2.146 2.146-2.146zm50.647 6.383 3.649-2.108v-4.215l-3.65-2.108-3.65 2.108v4.215z"/>
    <path d="m223.74 261.03c1.185 0 2.147 0.961 2.147 2.146 0 1.186-0.962 2.147-2.147 2.147s-2.146-0.961-2.146-2.147c0-1.185 0.961-2.146 2.146-2.146zm156.08 33.577m-6.352-14.206v-3.544h2.96m0 3.544h-2.96m2.96 5.767v-5.767"/>
   </g>
   <path d="m370.26 295.26c0 0.182 0.079 1.252 1.254 1.252h7.464v-1.957h0.913v1.957h71.563v-1.957h0.913v1.957c0 1e-3 6.89 0 7.359 0 0.471 0 1.306-0.26 1.306-1.382v-21.454c0-0.548 0-0.991-1.07-1.017-0.118-3e-3 -5.146-7e-3 -5.146-7e-3v5.24h-1.023v-2.005l-9.137-1e-3v1.979h-1.188v-5.216c-21.309-2e-3 -57.481 6e-3 -57.481 6e-3v4.973h-1.163v-1.746h-7.258v1.771h-1.107v-1.847s-4.887 2e-3 -4.997 2e-3c-0.783 0-1.123 0.6-1.202 1.227v18.225z" fill="#fff"/>
   <path d="m456.07 288.36c1.086 0 1.967 0.881 1.967 1.967 0 1.087-0.881 1.968-1.967 1.968-1.087 0-1.968-0.881-1.968-1.968 0-1.086 0.881-1.967 1.968-1.967z" fill="#fff"/>
   <path d="m461.1 294.78h-5.272c-2.406 0-4.357-1.951-4.357-4.357s1.951-4.357 4.357-4.357h5.118" fill="none"/>
   <path d="m375.38 288.36c-1.086 0-1.967 0.881-1.967 1.967 0 1.087 0.881 1.968 1.967 1.968 1.087 0 1.967-0.881 1.967-1.968 0-1.086-0.88-1.967-1.967-1.967z" fill="#fff"/>
   <path d="m370.36 294.78h5.272c2.406 0 4.356-1.951 4.356-4.357s-1.95-4.357-4.356-4.357h-5.118" fill="none"/>
  </g>
  <text transform="scale(.99863 1.0014)" x="209.01176" y="58.207695" fill="#231f20" font-family="Helvetica" font-size="1.0312px" font-weight="bold" stroke-width=".3523"><tspan x="209.01176 209.73564 210.51727 210.78331 211.5072 212.28882 212.89824 213.16428 213.43033 214.15421 214.82137 215.43079 216.15468 216.7641 217.3735 217.63956 218.36343 219.08731 219.75449 220.02052 220.97333 221.6972" y="58.207695">DO NOT INSTALL ANY WAN</tspan><tspan x="209.01176 209.85011 210.63173 211.35561 212.0795 212.68892 213.35608 213.62212 214.57492 214.84096 215.45038 216.17427 216.44031 217.10747 217.8891 218.8419 219.50906 220.23294 220.49898 221.28061" y="59.415092">MODULE WITH POWER ON</tspan></text>
  <g transform="matrix(.35228 0 0 -.35327 69.005 161.66)">
   <path d="m396.48 278.47v6e-3h-4.624c-0.79 0-1.429-0.64-1.429-1.429 0-0.79 0.639-1.43 1.429-1.43 0.025 0 0.048 6e-3 0.072 7e-3h4.414c0.024-1e-3 0.048-7e-3 0.072-7e-3 0.79 0 1.43 0.64 1.43 1.43 0 0.767-0.606 1.388-1.364 1.423zm52.405 8.038v7e-3h-4.623c-0.79 0-1.43-0.64-1.43-1.43s0.64-1.429 1.43-1.429c0.024 0 0.048 5e-3 0.072 7e-3h4.414c0.024-2e-3 0.048-7e-3 0.072-7e-3 0.79 0 1.429 0.639 1.429 1.429 0 0.767-0.605 1.388-1.364 1.423zm0 4.072v6e-3h-4.623c-0.79 0-1.43-0.64-1.43-1.429 0-0.79 0.64-1.43 1.43-1.43 0.024 0 0.048 6e-3 0.072 7e-3h4.414c0.024-1e-3 0.048-7e-3 0.072-7e-3 0.79 0 1.429 0.64 1.429 1.43 0 0.767-0.605 1.388-1.364 1.423zm0 4.071v7e-3h-4.623c-0.79 0-1.43-0.641-1.43-1.43 0-0.79 0.64-1.43 1.43-1.43 0.024 0 0.048 7e-3 0.072 8e-3h4.414c0.024-1e-3 0.048-8e-3 0.072-8e-3 0.79 0 1.429 0.64 1.429 1.43 0 0.767-0.605 1.388-1.364 1.423zm-61.905-8.143v7e-3h-4.624c-0.789 0-1.429-0.64-1.429-1.43s0.64-1.429 1.429-1.429c0.025 0 0.048 5e-3 0.072 7e-3h4.414c0.025-2e-3 0.048-7e-3 0.072-7e-3 0.79 0 1.43 0.639 1.43 1.429 0 0.767-0.605 1.388-1.364 1.423zm0 4.072v6e-3h-4.624c-0.789 0-1.429-0.64-1.429-1.429 0-0.79 0.64-1.43 1.429-1.43 0.025 0 0.048 6e-3 0.072 7e-3h4.414c0.025-1e-3 0.048-7e-3 0.072-7e-3 0.79 0 1.43 0.64 1.43 1.43 0 0.767-0.605 1.388-1.364 1.423zm0 4.071v7e-3h-4.624c-0.789 0-1.429-0.641-1.429-1.43 0-0.79 0.64-1.43 1.429-1.43 0.025 0 0.048 7e-3 0.072 8e-3h4.414c0.025-1e-3 0.048-8e-3 0.072-8e-3 0.79 0 1.43 0.64 1.43 1.43 0 0.767-0.605 1.388-1.364 1.423zm18.06-16.181v6e-3h-4.624c-0.789 0-1.429-0.64-1.429-1.429 0-0.79 0.64-1.43 1.429-1.43 0.025 0 0.048 6e-3 0.073 7e-3h4.413c0.025-1e-3 0.048-7e-3 0.072-7e-3 0.79 0 1.431 0.64 1.431 1.43 0 0.767-0.607 1.388-1.365 1.423zm8.56 0v6e-3h-4.624c-0.789 0-1.429-0.64-1.429-1.429 0-0.79 0.64-1.43 1.429-1.43 0.025 0 0.049 6e-3 0.073 7e-3h4.414c0.024-1e-3 0.047-7e-3 0.072-7e-3 0.789 0 1.429 0.64 1.429 1.43 0 0.767-0.605 1.388-1.364 1.423zm8.561 0v6e-3h-4.624c-0.79 0-1.43-0.64-1.43-1.429 0-0.79 0.64-1.43 1.43-1.43 0.025 0 0.048 6e-3 0.072 7e-3h4.414c0.024-1e-3 0.047-7e-3 0.072-7e-3 0.789 0 1.43 0.64 1.43 1.43 0 0.767-0.606 1.388-1.364 1.423zm8.56 0v6e-3h-4.624c-0.79 0-1.429-0.64-1.429-1.429 0-0.79 0.639-1.43 1.429-1.43 0.025 0 0.048 6e-3 0.072 7e-3h4.414c0.025-1e-3 0.048-7e-3 0.072-7e-3 0.79 0 1.43 0.64 1.43 1.43 0 0.767-0.606 1.388-1.364 1.423zm8.56 0v6e-3h-4.623c-0.79 0-1.43-0.64-1.43-1.429 0-0.79 0.64-1.43 1.43-1.43 0.024 0 0.048 6e-3 0.072 7e-3h4.413c0.025-1e-3 0.048-7e-3 0.073-7e-3 0.789 0 1.429 0.64 1.429 1.43 0 0.767-0.605 1.388-1.364 1.423z" fill="none" stroke="#000" stroke-width=".4"/>
  </g>
  <text transform="matrix(0 -1.0014 .99858 0 0 0)" x="-75.322334" y="248.48479" fill="#000000" font-family="Helvetica" font-size="2.1144px" stroke-width=".35228"><tspan x="-75.322334 -73.795753 -72.620163 -71.444572 -70.268982" y="248.48479" stroke-width=".35228">H7186</tspan></text>
  <g transform="matrix(.35228 0 0 -.35327 69.005 161.66)">
   <path d="m154.45 254.58h5.669v5.669h-5.669zm203.77-0.999h5.669v5.669h-5.669zm-133.35 25.043c1.357 0 2.457 1.811 2.457 4.045s-1.1 4.046-2.457 4.046h-107.96c-1.357 0-2.457-1.812-2.457-4.046s1.1-4.045 2.457-4.045z" fill="none" stroke="#000" stroke-width=".4"/>
  </g>
  <text transform="scale(.99858 1.0014)" x="110.37446" y="62.577625" fill="#000000" font-family="Helvetica" font-size="2.1144px" stroke-width=".35228"><tspan x="110.37446 111.55005 112.72564 113.31344 114.72372 116.13401 117.5443 118.95458 119.54237" y="62.577625">10 BASE T</tspan><tspan x="124.91647 126.32676 127.61864 129.14522 130.5555 132.08208 133.60866 135.01894 136.31082 136.89862" y="62.518002">ETHERNET Ø</tspan><tspan x="143.47537 144.88565 146.41223" y="62.530476">AUI</tspan></text>
  <g transform="matrix(.35228 0 0 -.35327 69.005 161.66)">
   <path d="m157.17 263.06h-5.868v-11.362h5.993m-6.368 5.993h-1.748" fill="none" stroke="#000" stroke-width=".999"/>
  </g>
  <text transform="scale(.99862 1.0014)" x="122.78178" y="67.749771" fill="#000000" font-family="Helvetica" font-size="1.4095px" stroke-width=".35229"><tspan x="122.78178 123.56548 124.58315" y="67.749771">LNK</tspan><tspan x="195.38698 196.48358" y="68.513313">OK</tspan></text>
  <g transform="matrix(.35228 0 0 -.35327 69.005 161.66)" fill="none" stroke="#000">
   <path d="m355.51 250.72h10.988v10.988h-10.988z" stroke-miterlimit="2.613" stroke-width=".999"/>
   <path d="m366.98 255.73h3.329" stroke-width=".999"/>
   <path d="m273.56 278.68c0.53 0 0.96 1.811 0.96 4.045s-0.43 4.045-0.96 4.045h-42.171c-0.53 0-0.96-1.811-0.96-4.045s0.43-4.045 0.96-4.045z" stroke-width=".4"/>
  </g>
  <text transform="scale(.99858 1.0014)" x="151.34381" y="62.520203" fill="#000000" font-family="Helvetica" font-size="2.1144px" stroke-width=".35228"><tspan x="151.34381 151.93159 153.34189 154.86845 156.39503 156.98283 158.39311 159.91969 160.50749 161.09529 162.74026 163.32806" y="62.520203" stroke-width=".35228">ISDN BRI Ø U</tspan></text>
  <g transform="matrix(.35228 0 0 -.35327 69.005 161.66)">
   <path d="m353.79 278.74c0.383 0 0.693 1.812 0.693 4.046s-0.31 4.045-0.693 4.045h-30.469c-0.383 0-0.694-1.811-0.694-4.045s0.311-4.046 0.694-4.046z" fill="none" stroke="#000" stroke-width=".4"/>
  </g>
  <text transform="scale(.99858 1.0014)" x="183.36037" y="62.429668" fill="#000000" font-family="Helvetica" font-size="2.1144px" stroke-width=".35228"><tspan x="183.36037 184.88695 186.53192 188.0585 189.46878 191.11377 192.28935" y="62.429668" stroke-width=".35228">CONSOLE</tspan></text>
  <g transform="matrix(.35228 0 0 -.35327 69.005 161.66)" fill="none" stroke="#000">
   <path d="m233.68 250.46h22.525v20.706h-22.525zm1.85 13.443v-0.045m18.638 0v0.045m-1.836 1.295v-7.3h-2.71v-1.101h-1.593v-1.101h-6.609v1.101h-1.123v1.101h-2.831v7.3m-1.993-9.869 2.104 2.554m0.792-2.554 1.738 2.371m-1.572-3.922 1.737 3.101m-0.331-3.192 1.324 3.101m-1.158-4.561 1.241 3.557m12.741-0.364-1.703 2.45m-0.779-2.45-1.82 2.28m1.902-4.013-2.233 3.284m0.083-3.376-1.324 3.011m1.241-4.47-1.324 3.466m4.219 8.301v5.29h-14.892v-5.29h-1.929v-8.605h2.862v-1.572h1.606v-1.573h9.441v1.573h2.276v1.572h2.453v8.605zm-14.065 2.545h13.31v2.68h-13.31zm11.057 0h0.614v2.522h-0.614zm-1.843 0h0.614v2.522h-0.614zm-1.843 0h0.615v2.522h-0.615zm-1.843 0h0.615v2.522h-0.615zm-1.843 0h0.615v2.522h-0.615zm-1.843 0h0.615v2.522h-0.615zm-2.507-2.762 1.324 1.095v1.641m13.568-2.553-1.489 1.641v0.912m13.177-13.462h5.668v5.669h-5.668z" stroke-width=".4"/>
   <path d="m261.27 250.11h10.988v10.988h-10.988z" stroke-miterlimit="2.613" stroke-width=".999"/>
  </g>
  <text transform="scale(.99862 1.0014)" x="162.00925" y="68.750282" fill="#000000" font-family="Helvetica" font-size="1.4095px" stroke-width=".35229"><tspan x="162.00925 163.02693 163.88814 164.28" y="68.750282" stroke-width=".35229">NT 1</tspan></text>
  <g transform="matrix(.35228 0 0 -.35327 69.005 161.66)">
   <path d="m319.52 278.66c0.53 0 0.96 1.812 0.96 4.046s-0.43 4.045-0.96 4.045h-42.171c-0.53 0-0.96-1.811-0.96-4.045s0.43-4.046 0.96-4.046z" fill="none" stroke="#000" stroke-width=".4"/>
  </g>
  <text transform="scale(.99858 1.0014)" x="167.75923" y="62.530067" fill="#000000" font-family="Helvetica" font-size="2.1144px" stroke-width=".35228"><tspan x="167.75923 168.34703 169.75732 171.28389 172.81047 173.39827 174.80855 176.33513 177.9801 179.50668" y="62.530067" stroke-width=".35228">ISDN PHONE</tspan></text>
  <g transform="matrix(.35228 0 0 -.35327 69.005 161.66)" fill="none" stroke="#000">
   <path d="m261.61 256.07h-5.661" stroke-width=".999"/>
   <path d="m281.28 249.79h22.525v20.706h-22.525zm1.849 13.443v-0.045m18.639 0v0.045m-1.836 1.296v-7.301h-2.71v-1.1h-1.594v-1.101h-6.608v1.101h-1.124v1.1h-2.831v7.301m-1.992-9.87 2.104 2.554m0.791-2.554 1.738 2.371m-1.572-3.922 1.738 3.101m-0.332-3.192 1.324 3.101m-1.158-4.56 1.241 3.557m12.742-0.365-1.703 2.45m-0.78-2.45-1.82 2.28m1.903-4.013-2.234 3.284m0.083-3.375-1.324 3.01m1.241-4.47-1.324 3.467m4.22 8.3v5.291h-14.893v-5.291h-1.929v-8.604h2.862v-1.573h1.606v-1.573h9.441v1.573h2.277v1.573h2.453v8.604zm-14.066 2.546h13.31v2.679h-13.31zm11.058 0h0.614v2.522h-0.614zm-1.843 0h0.614v2.522h-0.614zm-1.843 0h0.615v2.522h-0.615zm-1.843 0h0.615v2.522h-0.615zm-1.843 0h0.615v2.522h-0.615zm-1.843 0h0.615v2.522h-0.615zm-2.508-2.762 1.324 1.094v1.642m13.569-2.554-1.489 1.641v0.913m13.842-12.131h5.669v5.669h-5.669z" stroke-width=".4"/>
   <path d="m309.54 250.78h10.988v10.988h-10.988z" stroke-miterlimit="2.613" stroke-width=".999"/>
  </g>
  <text transform="scale(.99862 1.0014)" x="179.03479" y="68.513893" fill="#000000" font-family="Helvetica" font-size="1.4095px" stroke-width=".35229"><tspan x="179.03479 180.13139" y="68.513893" stroke-width=".35229">OK</tspan></text>
  <g transform="matrix(.35228 0 0 -.35327 69.005 161.66)" stroke="#000">
   <path d="m309.87 256.74h-5.66" fill="none" stroke-width=".999"/>
   <path d="m117.46 246.45h370.11l0.246-9e-3c3.654 9.076 5.73 19.487 5.73 30.556 0 10.248-1.78 19.934-4.944 28.517h-3.261v1.613h-365.49v-1.613h-3.208c-3.164-8.583-4.944-18.269-4.944-28.517 0-11.069 2.076-21.48 5.73-30.556m-1.593-1.93h373.5l0.258 0.291c3.836 9.529 6.017 20.892 6.017 32.515 0 10.761-1.87 20.931-5.192 29.943l-0.833 1.693h-374.27l-0.777-1.693c-3.323-9.012-5.192-19.182-5.192-29.943 0-11.623 2.612-22.986 6.448-32.515m356.44 34.182h11.861v24.657h-11.861zm9.544 1.012c0.708 0 1.282 0.574 1.282 1.281v19.771c0 0.707-0.574 1.281-1.282 1.281h-7.097c-0.708 0-1.282-0.574-1.282-1.281v-19.771c0-0.707 0.574-1.281 1.282-1.281zm-7.671 11.524h8.219m-103.59-39.128h73.402v6.242h-73.402zm-8.244-0.914h8.249v8.249h-8.249z" fill="none" stroke-width=".4"/>
   <g stroke-miterlimit="2.613" stroke-width=".4">
    <path d="m146.45 292.81 1.179-1.842h0.631v-0.228h-0.775l-1.323 2.07z" fill="#fff"/>
    <path d="m147.45 292.81-1.178-1.842h-0.608v-0.228h0.752l1.322 2.07z" fill="#fff"/>
    <path d="m145.24 290.05h3.512v3.54h-3.512zm-0.487-0.488 4.487 4.488" fill="none"/>
   </g>
   <path d="m146.97 295.01c-1.731 0-3.134-1.403-3.134-3.134s1.403-3.134 3.134-3.134 3.134 1.403 3.134 3.134-1.403 3.134-3.134 3.134z" fill="none" stroke-width=".4"/>
  </g>
  <text transform="scale(.99862 1.0014)" x="210.38625" y="69.5905" fill="#000000" font-family="Helvetica" font-size="1.4095px" stroke-width=".35229"><tspan x="210.38625 211.24745 212.03116 212.9713 213.91145 214.92912 215.32097 216.26112 217.27881 217.67065 218.68832 219.62848 220.64615 225.27361 226.05731 226.841 227.23285 228.173 229.19067" y="69.5905" stroke-width=".35229">FLASH PC CARD14 VDC</tspan></text>
  <g transform="matrix(.35228 0 0 -.35327 69.005 161.66)">
   <g fill="#fff" stroke="#000" stroke-width=".4">
    <path d="m126.18 290.43c3.404 0 6.164 2.76 6.164 6.164 0 3.405-2.76 6.165-6.164 6.165-3.405 0-6.165-2.76-6.165-6.165 0-3.404 2.76-6.164 6.165-6.164z"/>
    <path d="m126.18 292.2c2.424 0 4.389 1.966 4.389 4.389 0 2.425-1.965 4.39-4.389 4.39-2.425 0-4.39-1.965-4.39-4.39 0-2.423 1.965-4.389 4.39-4.389z"/>
    <path d="m124.36 294.96c-0.9 0-1.63 0.729-1.63 1.629 0 0.901 0.73 1.631 1.63 1.631h3.635c0.9 0 1.63-0.73 1.63-1.631 0-0.9-0.73-1.629-1.63-1.629z"/>
   </g>
   <g stroke="#000">
    <path d="m468.31 251.12c4.245 0 7.687 3.528 7.687 7.88 0 4.353-3.442 7.88-7.687 7.88-4.247 0-7.689-3.527-7.689-7.88 0-4.352 3.442-7.88 7.689-7.88zm-3.379 9.103h1.359v2.718h-1.359zm-1.279-3.533h1.359v2.718h-1.359zm2.48-2.945h1.359v2.718h-1.359zm2.89 0.083h1.359v2.718h-1.359zm2.655 2.813h1.359v2.718h-1.359zm-1.038 3.582h1.359v2.718h-1.359zm-2.99-1.087h1.359v2.718h-1.359zm1.587 4.93h-2.235v1.693c-2.767-0.783-5.071-3.662-5.071-6.759 0-3.715 2.926-6.727 6.535-6.727s6.534 3.012 6.534 6.727c0 3.336-2.67 6.214-5.763 6.745zm8.434-6.96c0-1.41 1.143-2.553 2.554-2.553 1.41 0 2.554 1.143 2.554 2.553v5.662c0 1.41-1.144 2.554-2.554 2.554-1.411 0-2.554-1.144-2.554-2.554z" fill="none" stroke-width=".4"/>
    <path d="m478.67 262.77c0 0.415 0.162 0.806 0.456 1.099 0.293 0.294 0.684 0.456 1.099 0.456s0.806-0.162 1.099-0.456c0.294-0.293 0.456-0.684 0.456-1.099v-5.662c0-0.857-0.698-1.554-1.555-1.554-0.415 0-0.806 0.161-1.099 0.455-0.294 0.294-0.456 0.684-0.456 1.099z" fill="none" stroke-width=".25"/>
    <path d="m481.04 251.22v6.834h-1.499v-6.834" fill="#fff" stroke-width=".4"/>
    <path d="m481.04 269.37v-6.834h-1.499v6.834" fill="#fff" stroke-width=".4"/>
   </g>
   <path d="m488.44 265.04c1.74 0.81 3.54 1.648 4.95 1.648 1.741 0 3.378-0.678 4.609-1.909m1.06 1.059c-1.515 1.515-3.528 2.349-5.669 2.349-1.741 0-3.694-0.909-5.583-1.789m5.583-12.748c-1.41 0-3.21 0.838-4.95 1.649m-0.633-1.358c1.889-0.88 3.842-1.789 5.583-1.789" fill="none" stroke="#fff" stroke-width="2.497"/>
   <path d="m481.04 247.51v6.834c0 0.266 0.073 0.463 0.23 0.62 0.333 0.332 1.049 0.515 2.019 0.515 1.216 0 2.898-0.782 4.524-1.539 1.889-0.88 3.842-1.789 5.583-1.789 2.141 0 4.154 0.834 5.669 2.349 1.514 1.513 2.348 3.527 2.348 5.668 0 2.142-0.834 4.155-2.348 5.669-1.515 1.515-3.528 2.349-5.669 2.349-1.741 0-3.694-0.909-5.583-1.789-1.626-0.757-3.308-1.54-4.524-1.54-0.97 0-1.686 0.183-2.019 0.516-0.157 0.157-0.23 0.354-0.23 0.62v6.833h-1.499v-6.833c0-0.661 0.232-1.242 0.67-1.679 0.633-0.633 1.668-0.955 3.078-0.955 1.548 0 3.301 0.816 5.157 1.68 1.74 0.81 3.54 1.648 4.95 1.648 1.741 0 3.378-0.678 4.609-1.909 1.231-1.232 1.909-2.868 1.909-4.61 0-3.594-2.924-6.519-6.518-6.519-1.41 0-3.21 0.838-4.95 1.649-1.856 0.864-3.609 1.679-5.157 1.679-3.382 0-3.748-1.841-3.748-2.633v-6.834z" fill="#fff" stroke="#000" stroke-width=".4"/>
   <path d="m499.06 265.84c-1.097 1.096-2.458 1.83-3.938 2.155 0.308 3.069 0.48 6.184 0.48 9.322 0 10.761-1.87 20.931-5.192 29.943l-0.833 1.693h-374.27l-0.777-1.693c-3.323-9.012-5.192-19.182-5.192-29.943 0-11.623 2.612-22.986 6.449-32.515l0.036-0.291h373.5l0.258 0.291c0.962 2.389 1.819 4.895 2.565 7.49 0.422-0.085 0.838-0.139 1.241-0.139 2.141 0 4.154 0.834 5.669 2.348 1.514 1.515 2.348 3.528 2.348 5.669 0 2.142-0.834 4.155-2.348 5.67z" fill="none" stroke="#000" stroke-width=".799"/>
  </g>
 </g>
 <metadata>
  <rdf:RDF>
   <cc:Work rdf:about="">
    <dc:title>Cisco 1604 R</dc:title>
    <dc:creator>
     <cc:Agent>
      <dc:title>Cisco</dc:title>
     </cc:Agent>
    </dc:creator>
    <dc:rights>
     <cc:Agent>
      <dc:title>Cisco</dc:title>
     </cc:Agent>
    </dc:rights>
    <dc:description>Made for: savalione.com</dc:description>
   </cc:Work>
  </rdf:RDF>
 </metadata>
</svg>
