<?xml version="1.0" encoding="UTF-8"?>
<!-- Created with Inkscape (http://www.inkscape.org/) -->
<svg width="139.67mm" height="23.402mm" version="1.1" viewBox="0 0 139.67 23.402" xmlns="http://www.w3.org/2000/svg" xmlns:cc="http://creativecommons.org/ns#" xmlns:dc="http://purl.org/dc/elements/1.1/" xmlns:rdf="http://www.w3.org/1999/02/22-rdf-syntax-ns#">
 <title>Cisco 1602 R</title>
 <g transform="translate(-19.053 -80.041)">
  <text transform="scale(.99741 1.0026)" x="108.96131" y="91.510933" fill="#000000" font-family="Helvetica" font-size="1.4293px" stroke-width=".35186"><tspan x="108.96131 110.31054 110.70788" y="91.510933" stroke-width=".35186">WIC</tspan></text>
  <g transform="matrix(.35183 0 0 -.35373 -19.64 268.06)" stroke="#000" stroke-width=".405">
   <g fill="none">
    <path d="m331.21 473.4h22.841v20.997h-22.841zm1.875 13.632v-0.046m18.9 0v0.046m-1.862 1.313v-7.403h-2.747v-1.116h-1.616v-1.116h-6.702v1.116h-1.139v1.116h-2.871v7.403m-2.02-10.008 2.133 2.59m0.803-2.59 1.762 2.405m-1.594-3.977 1.762 3.145m-0.336-3.238 1.343 3.145m-1.175-4.625 1.258 3.607m12.921-0.37-1.726 2.485m-0.791-2.485-1.846 2.313m1.93-4.07-2.265 3.33m0.083-3.422-1.342 3.052m1.259-4.533-1.343 3.515m4.279 8.418v5.364h-15.101v-5.364h-1.957v-8.726h2.903v-1.594h1.627v-1.595h9.574v1.595h2.309v1.594h2.487v8.726zm-14.264 2.581h13.497v2.717h-13.497zm11.213 0h0.623v2.557h-0.623zm-1.868 0h0.623v2.557h-0.623zm-1.869 0h0.623v2.557h-0.623zm-1.869 0h0.623v2.557h-0.623zm-1.869 0h0.623v2.557h-0.623zm-1.869 0h0.624v2.557h-0.624zm-2.543-2.801 1.342 1.11v1.665m13.76-2.59-1.51 1.665v0.925m-221.53-16.187h22.841v20.997h-22.841zm1.875 13.632v-0.046"/>
    <path d="m148.04 486.99v0.046m-1.861 1.313v-7.403h-2.748v-1.116h-1.616v-1.116h-6.702v1.116h-1.139v1.116h-2.871v7.403m-2.02-10.008 2.133 2.59m0.803-2.59 1.762 2.405m-1.594-3.977 1.762 3.145m-0.336-3.238 1.343 3.145m-1.175-4.625 1.259 3.607m12.92-0.37-1.727 2.485m-0.79-2.485-1.846 2.313m1.93-4.07-2.266 3.33m0.085-3.422-1.343 3.052m1.258-4.533-1.342 3.515m4.279 8.418v5.364h-15.102v-5.364h-1.956v-8.726h2.902v-1.594h1.629v-1.595h9.573v1.595h2.309v1.594h2.487v8.726zm-14.263 2.581h13.497v2.717h-13.497zm11.213 0h0.623v2.557h-0.623zm-1.869 0h0.623v2.557h-0.623zm-1.869 0h0.623v2.557h-0.623zm-1.869 0h0.623v2.557h-0.623zm-1.869 0h0.623v2.557h-0.623zm-1.869 0h0.623v2.557h-0.623zm-2.543-2.801 1.343 1.11v1.665m13.759-2.59-1.51 1.665v0.925m39.393-4.891c-0.767 0-1.389 0.622-1.389 1.389s0.622 1.388 1.389 1.388c0.766 0 1.388-0.621 1.388-1.388s-0.622-1.389-1.388-1.389zm33.748 5.404c1.431 0 2.816-1.239 2.592-2.727-0.301-1.997-0.824-4.546-1.291-7.025-0.279-1.477-1.161-2.727-2.593-2.727h-32.905c-1.431 0-2.314 1.25-2.592 2.727-0.467 2.479-0.99 5.028-1.292 7.025-0.224 1.488 1.161 2.727 2.593 2.727z"/>
    <path d="m217.13 489.14c1.388 0 2.732-0.413 2.515-1.856-0.293-1.937-0.801-4.41-1.253-6.815-0.27-1.433-1.126-1.855-2.515-1.855h-31.25c-1.389 0-2.245 0.422-2.515 1.855-0.453 2.405-0.961 4.878-1.252 6.815-0.218 1.443 1.125 1.856 2.514 1.856zm1.171-14.228c2.22 0 4.02 1.8 4.02 4.021h4.897c2.697 0 4.883 2.186 4.883 4.883 0 2.696-2.186 4.883-4.883 4.883h-4.897c0 2.22-1.8 4.02-4.02 4.02h-36.125c-2.221 0-4.021-1.8-4.021-4.02h-4.897c-2.696 0-4.882-2.187-4.882-4.883 0-2.697 2.186-4.883 4.882-4.883h4.897c0-2.221 1.8-4.021 4.021-4.021zm-29.575 9.794c-0.767 0-1.389 0.622-1.389 1.389s0.622 1.388 1.389 1.388 1.389-0.621 1.389-1.388-0.622-1.389-1.389-1.389zm4.478 0c-0.767 0-1.389 0.622-1.389 1.389s0.622 1.388 1.389 1.388 1.389-0.621 1.389-1.388-0.622-1.389-1.389-1.389zm4.479 0c-0.767 0-1.389 0.622-1.389 1.389s0.622 1.388 1.389 1.388 1.389-0.621 1.389-1.388-0.622-1.389-1.389-1.389zm4.478 0c-0.767 0-1.388 0.622-1.388 1.389s0.621 1.388 1.388 1.388 1.389-0.621 1.389-1.388-0.622-1.389-1.389-1.389zm4.479 0c-0.767 0-1.388 0.622-1.388 1.389s0.621 1.388 1.388 1.388c0.768 0 1.389-0.621 1.389-1.388s-0.621-1.389-1.389-1.389zm4.478 0c-0.767 0-1.388 0.622-1.388 1.389s0.621 1.388 1.388 1.388c0.768 0 1.389-0.621 1.389-1.388s-0.621-1.389-1.389-1.389zm4.479 0c-0.767 0-1.389 0.622-1.389 1.389s0.622 1.388 1.389 1.388 1.389-0.621 1.389-1.388-0.622-1.389-1.389-1.389zm-29.378-4.143c-0.767 0-1.389 0.622-1.389 1.388 0 0.768 0.622 1.389 1.389 1.389s1.389-0.621 1.389-1.389c0-0.766-0.622-1.388-1.389-1.388zm4.539 0c-0.768 0-1.389 0.622-1.389 1.388 0 0.768 0.621 1.389 1.389 1.389 0.767 0 1.388-0.621 1.388-1.389 0-0.766-0.621-1.388-1.388-1.388zm4.538 0c-0.767 0-1.389 0.622-1.389 1.388 0 0.768 0.622 1.389 1.389 1.389s1.389-0.621 1.389-1.389c0-0.766-0.622-1.388-1.389-1.388zm4.539 0c-0.767 0-1.389 0.622-1.389 1.388 0 0.768 0.622 1.389 1.389 1.389 0.766 0 1.388-0.621 1.388-1.389 0-0.766-0.622-1.388-1.388-1.388zm4.538 0c-0.767 0-1.389 0.622-1.389 1.388 0 0.768 0.622 1.389 1.389 1.389s1.389-0.621 1.389-1.389c0-0.766-0.622-1.388-1.389-1.388zm4.539 0c-0.767 0-1.389 0.622-1.389 1.388 0 0.768 0.622 1.389 1.389 1.389 0.766 0 1.388-0.621 1.388-1.389 0-0.766-0.622-1.388-1.388-1.388zm4.538 0c-0.767 0-1.389 0.622-1.389 1.388 0 0.768 0.622 1.389 1.389 1.389s1.389-0.621 1.389-1.389c0-0.766-0.622-1.388-1.389-1.388zm-38.972 7.461 3.701-2.137v-4.275l-3.702-2.137-3.701 2.137v4.275zm0.021-6.472c1.202 0 2.176 0.974 2.176 2.176s-0.974 2.177-2.176 2.177-2.176-0.975-2.176-2.177 0.974-2.176 2.176-2.176zm51.358 6.472 3.701-2.137v-4.275l-3.702-2.137-3.701 2.137v4.275z"/>
    <path d="m225.88 481.55c1.202 0 2.176 0.974 2.176 2.176s-0.974 2.177-2.176 2.177-2.176-0.975-2.176-2.177 0.974-2.176 2.176-2.176zm158.27 34.048m-6.44-14.405v-3.594h3.001m0 3.594h-3.001m3.001 5.847v-5.847"/>
   </g>
   <path d="m374.46 516.26c0 0.185 0.081 1.271 1.272 1.271h7.569v-1.985h0.926v1.985h72.567v-1.985h0.926v1.985h7.463c0.477 0 1.323-0.265 1.323-1.403v-21.754c0-0.556 0-1.006-1.085-1.032-0.119-3e-3 -5.217-7e-3 -5.217-7e-3v5.313h-1.038v-2.032l-9.265-2e-3v2.007h-1.205v-5.289c-21.608-2e-3 -58.288 6e-3 -58.288 6e-3v5.042h-1.179v-1.77h-7.361v1.797h-1.121v-1.873s-4.957 1e-3 -5.068 1e-3c-0.795 0-1.139 0.609-1.219 1.244v18.481z" fill="#fff"/>
   <path d="m461.47 509.26c1.102 0 1.995 0.893 1.995 1.994 0 1.102-0.893 1.995-1.995 1.995s-1.995-0.893-1.995-1.995c0-1.101 0.893-1.994 1.995-1.994z" fill="#fff"/>
   <path d="m466.57 515.77h-5.346c-2.44 0-4.418-1.978-4.418-4.418s1.978-4.417 4.418-4.417h5.189" fill="none"/>
   <path d="m379.65 509.26c-1.102 0-1.995 0.893-1.995 1.994 0 1.102 0.893 1.995 1.995 1.995s1.995-0.893 1.995-1.995c0-1.101-0.893-1.994-1.995-1.994z" fill="#fff"/>
   <path d="m374.55 515.77h5.346c2.44 0 4.418-1.978 4.418-4.418s-1.978-4.417-4.418-4.417h-5.189" fill="none"/>
  </g>
  <text transform="scale(.9973 1.0027)" x="121.84424" y="86.17234" fill="#231f20" font-family="Helvetica" font-size="1.0456px" font-weight="bold" stroke-width=".35183"><tspan x="121.84424 122.57828 123.37086 123.64062 124.37466 125.16724 125.7852 126.05499 126.32477 127.05879 127.73531 128.35327 129.08731 129.70528 130.32324 130.59302 131.32704 132.06108 132.73759 133.00737 133.97354 134.70757" y="86.17234">DO NOT INSTALL ANY WAN</tspan><tspan x="121.84424 122.69433 123.48692 124.22095 124.95499 125.57295 126.24947 126.51924 127.4854 127.75519 128.37314 129.10718 129.37695 130.05347 130.84605 131.81221 132.48874 133.22278 133.49254 134.28513" y="87.396667">MODULE WITH POWER ON</tspan></text>
  <g transform="matrix(.35183 0 0 -.35373 -19.64 268.06)" fill="none" stroke="#000" stroke-width=".405">
   <path d="m401.04 499.22v6e-3h-4.689c-0.8 0-1.449-0.649-1.449-1.45 0-0.8 0.649-1.449 1.449-1.449 0.025 0 0.049 6e-3 0.074 7e-3h4.475c0.025-1e-3 0.048-7e-3 0.073-7e-3 0.801 0 1.45 0.649 1.45 1.449 0 0.778-0.614 1.409-1.383 1.444zm53.141 8.151v6e-3h-4.688c-0.8 0-1.45-0.649-1.45-1.449 0-0.801 0.65-1.45 1.45-1.45 0.025 0 0.049 6e-3 0.074 7e-3h4.475c0.025-1e-3 0.048-7e-3 0.074-7e-3 0.8 0 1.449 0.649 1.449 1.45 0 0.778-0.614 1.407-1.384 1.443zm0 4.129v6e-3h-4.688c-0.8 0-1.45-0.649-1.45-1.45 0-0.8 0.65-1.449 1.45-1.449 0.025 0 0.049 6e-3 0.074 7e-3h4.475c0.025-1e-3 0.048-7e-3 0.074-7e-3 0.8 0 1.449 0.649 1.449 1.449 0 0.778-0.614 1.408-1.384 1.444zm0 4.128v7e-3h-4.688c-0.8 0-1.45-0.65-1.45-1.45 0-0.801 0.65-1.45 1.45-1.45 0.025 0 0.049 6e-3 0.074 7e-3h4.475c0.025-1e-3 0.048-7e-3 0.074-7e-3 0.8 0 1.449 0.649 1.449 1.45 0 0.778-0.614 1.408-1.384 1.443zm-62.775-8.257v6e-3h-4.688c-0.801 0-1.449-0.649-1.449-1.449 0-0.801 0.648-1.45 1.449-1.45 0.025 0 0.049 6e-3 0.073 7e-3h4.476c0.025-1e-3 0.048-7e-3 0.073-7e-3 0.801 0 1.45 0.649 1.45 1.45 0 0.778-0.614 1.407-1.384 1.443zm0 4.129v6e-3h-4.688c-0.801 0-1.449-0.649-1.449-1.45 0-0.8 0.648-1.449 1.449-1.449 0.025 0 0.049 6e-3 0.073 7e-3h4.476c0.025-1e-3 0.048-7e-3 0.073-7e-3 0.801 0 1.45 0.649 1.45 1.449 0 0.778-0.614 1.408-1.384 1.444zm0 4.128v7e-3h-4.688c-0.801 0-1.449-0.65-1.449-1.45 0-0.801 0.648-1.45 1.449-1.45 0.025 0 0.049 6e-3 0.073 7e-3h4.476c0.025-1e-3 0.048-7e-3 0.073-7e-3 0.801 0 1.45 0.649 1.45 1.45 0 0.778-0.614 1.408-1.384 1.443zm18.314-16.408v6e-3h-4.688c-0.801 0-1.45-0.649-1.45-1.45 0-0.8 0.649-1.449 1.45-1.449 0.025 0 0.049 6e-3 0.073 7e-3h4.476c0.024-1e-3 0.048-7e-3 0.073-7e-3 0.801 0 1.45 0.649 1.45 1.449 0 0.778-0.614 1.409-1.384 1.444zm8.681 0v6e-3h-4.689c-0.8 0-1.449-0.649-1.449-1.45 0-0.8 0.649-1.449 1.449-1.449 0.026 0 0.049 6e-3 0.074 7e-3h4.476c0.024-1e-3 0.048-7e-3 0.073-7e-3 0.801 0 1.449 0.649 1.449 1.449 0 0.778-0.614 1.409-1.383 1.444zm8.68 0v6e-3h-4.688c-0.801 0-1.45-0.649-1.45-1.45 0-0.8 0.649-1.449 1.45-1.449 0.025 0 0.048 6e-3 0.073 7e-3h4.476c0.025-1e-3 0.048-7e-3 0.073-7e-3 0.801 0 1.45 0.649 1.45 1.449 0 0.778-0.614 1.409-1.384 1.444zm8.681 0v6e-3h-4.688c-0.801 0-1.45-0.649-1.45-1.45 0-0.8 0.649-1.449 1.45-1.449 0.024 0 0.048 6e-3 0.073 7e-3h4.475c0.025-1e-3 0.049-7e-3 0.074-7e-3 0.8 0 1.45 0.649 1.45 1.449 0 0.778-0.615 1.409-1.384 1.444zm8.681 0v6e-3h-4.689c-0.801 0-1.45-0.649-1.45-1.45 0-0.8 0.649-1.449 1.45-1.449 0.025 0 0.049 6e-3 0.073 7e-3h4.476c0.025-1e-3 0.048-7e-3 0.073-7e-3 0.801 0 1.45 0.649 1.45 1.449 0 0.778-0.614 1.409-1.383 1.444z"/>
   <path d="m155.62 475h5.748v5.749h-5.748zm103.1-2.954h5.748v5.749h-5.748zm103.54 2.954h5.749v5.749h-5.749zm-132.89 24.673c1.376 0 2.492 1.837 2.492 4.102s-1.116 4.102-2.492 4.102h-105.97c-1.377 0-2.492-1.837-2.492-4.102s1.115-4.102 2.492-4.102z"/>
  </g>
  <text transform="scale(.99729 1.0027)" x="23.863894" y="90.502243" fill="#000000" font-family="Helvetica" font-size="2.144px" stroke-width=".35182"><tspan x="23.863894 25.055958 26.24802 26.844051 28.274099 29.704145 31.134193 32.56424 33.160275" y="90.502243">10 BASE T</tspan><tspan x="38.85302 40.283066 41.593052 43.141018 44.571064 46.119034 47.667 49.097046 50.407032 51.003059" y="90.441772">ETHERNET Ø</tspan><tspan x="56.855106 58.285156 59.833118" y="90.410049">AUI</tspan></text>
  <g transform="matrix(.35183 0 0 -.35373 -19.64 268.06)">
   <path d="m158.38 483.6h-5.951v-11.521h6.077m-6.457 6.077h-1.772" fill="none" stroke="#000" stroke-width="1.013"/>
  </g>
  <text transform="scale(.99741 1.0026)" x="34.38969" y="95.858589" fill="#000000" font-family="Helvetica" font-size="1.4293px" stroke-width=".35186"><tspan x="34.38969 35.184368 36.216305" y="95.858589">LNK</tspan><tspan x="64.548096 65.580032 66.533356 67.565292 68.597229 68.994568 69.947891" y="93.255295">CARRIER</tspan><tspan x="66.055977 67.0093 67.803978 68.757309 69.789238" y="95.041893">ALARM</tspan><tspan x="63.115963 63.910641 65.022614 66.13459 67.087914 68.041237 68.994568 70.026505" y="96.828484">LOOPBACK</tspan><tspan x="108.01218 109.12415" y="96.275642">OK</tspan></text>
  <g transform="matrix(.35183 0 0 -.35373 -19.64 268.06)" fill="none" stroke="#000">
   <path d="m359.5 472.1h11.142v11.142h-11.142z" stroke-miterlimit="2.613" stroke-width="1.013"/>
   <path d="m371.13 477.18h3.377" stroke-width="1.013"/>
   <path d="m317.35 499.44c0.956 0 1.73 1.837 1.73 4.102 0 2.266-0.774 4.102-1.73 4.102h-80.397c-0.955 0-1.73-1.836-1.73-4.102 0-2.265 0.775-4.102 1.73-4.102z" stroke-width=".405"/>
  </g>
  <text transform="scale(.99729 1.0027)" x="65.811775" y="90.457558" fill="#000000" font-family="Helvetica" font-size="2.144px" stroke-width=".35182"><tspan x="65.811775 67.241821 68.671875 70.219841 70.815872 72.245918 73.437981 74.034012 75.702042 76.298073 77.490143 78.682205 80.112251 80.708282 82.256248 83.686295 85.234261 85.830292 87.378265 88.808311" y="90.457558" stroke-width=".35182">SERIAL Ø 56K DSU/CSU</tspan></text>
  <g transform="matrix(.35183 0 0 -.35373 -19.64 268.06)">
   <path d="m360.51 499.5c0.518 0 0.938 1.837 0.938 4.102s-0.42 4.102-0.938 4.102h-35.365c-0.517 0-0.937-1.837-0.937-4.102s0.42-4.102 0.937-4.102z" fill="none" stroke="#000" stroke-width=".405"/>
  </g>
  <text transform="scale(.99729 1.0027)" x="96.027977" y="90.455109" fill="#000000" font-family="Helvetica" font-size="2.144px" stroke-width=".35182"><tspan x="96.027977 97.575943 99.24398 100.79195 102.22199 103.89002 105.08208" y="90.455109" stroke-width=".35182">CONSOLE</tspan></text>
  <text transform="matrix(0 -1.0027 .99729 0 0 0)" x="-102.93244" y="159.12367" fill="#000000" font-family="Helvetica" font-size="2.144px" stroke-width=".35182"><tspan x="-102.93244 -101.38447 -100.19241 -99.000343 -97.808289" y="159.12367" stroke-width=".35182">H7184</tspan></text>
  <g transform="matrix(.35183 0 0 -.35373 -19.64 268.06)" stroke="#000">
   <g fill="none">
    <path d="m291.01 472.76h22.841v20.997h-22.841zm1.876 13.632v-0.046m18.899 0v0.046m-1.861 1.314v-7.403h-2.748v-1.116h-1.616v-1.117h-6.702v1.117h-1.139v1.116h-2.87v7.403m-2.021-10.008 2.134 2.59m0.802-2.59 1.763 2.404m-1.594-3.977 1.761 3.145m-0.336-3.238 1.343 3.145m-1.174-4.625 1.258 3.608m12.92-0.37-1.726 2.484m-0.791-2.484-1.845 2.312m1.929-4.07-2.265 3.331m0.084-3.423-1.342 3.052m1.258-4.532-1.343 3.515m4.279 8.417v5.365h-15.101v-5.365h-1.956v-8.725h2.902v-1.595h1.628v-1.595h9.573v1.595h2.309v1.595h2.487v8.725zm-14.263 2.581h13.497v2.717h-13.497zm11.213 0h0.623v2.557h-0.623zm-1.869 0h0.623v2.557h-0.623zm-1.869 0h0.623v2.557h-0.623zm-1.869 0h0.623v2.557h-0.623zm-1.869 0h0.623v2.557h-0.623zm-1.869 0h0.623v2.557h-0.623zm-2.542-2.8 1.342 1.109v1.665m13.759-2.59-1.51 1.665v0.925m-41.369-16.834h5.748v5.749h-5.748zm9.116 0h5.748v5.749h-5.748z" stroke-width=".405"/>
    <path d="m264.28 480.56h-8.356v-10.636h8.609m-7.09 14.687h3.292v-3.292m6.584-0.759h5.824m-5.951-10.636h5.824m-15.32 20.005h12.408v-8.61m6.584-0.633h8.356v-10.635h-8.609m-18.992 24.942h22.79v-13.674" stroke-width="1.013"/>
    <path d="m479 471.32c5.056 0 9.155 4.201 9.155 9.384s-4.099 9.384-9.155 9.384c-5.057 0-9.156-4.201-9.156-9.384s4.099-9.384 9.156-9.384zm-4.023 10.84h1.618v3.237h-1.618zm-1.523-4.207h1.618v3.237h-1.618zm2.953-3.507h1.618v3.237h-1.618zm3.441 0.098h1.619v3.237h-1.619zm3.162 3.35h1.619v3.237h-1.619zm-1.236 4.266h1.618v3.237h-1.618zm-3.56-1.294h1.618v3.237h-1.618zm1.889 5.87h-2.662v2.016c-3.294-0.931-6.038-4.361-6.038-8.048 0-4.424 3.484-8.011 7.782-8.011 4.297 0 7.781 3.587 7.781 8.011 0 3.972-3.179 7.399-6.863 8.032zm-361.49-18.986h375.31l0.249-9e-3c3.705 9.203 5.811 19.76 5.811 30.984 0 10.393-1.806 20.214-5.014 28.918h-3.307v1.635h-370.63v-1.635h-3.253c-3.209-8.704-5.014-18.525-5.014-28.918 0-11.224 2.106-21.781 5.811-30.984" stroke-width=".405"/>
    <path d="m116.96 465.78h378.75l0.262 0.294c3.89 9.663 6.101 21.186 6.101 32.971 0 10.913-1.896 21.225-5.265 30.365l-0.844 1.717h-379.52l-0.788-1.717c-3.369-9.14-5.265-19.452-5.265-30.365 0-11.785 2.649-23.308 6.539-32.971" stroke-width=".81"/>
    <path d="m478.37 500.74h12.027v25.003h-12.027zm9.678 1.027c0.718 0 1.3 0.581 1.3 1.299v20.048c0 0.717-0.582 1.299-1.3 1.299h-7.197c-0.718 0-1.299-0.582-1.299-1.299v-20.048c0-0.718 0.581-1.299 1.299-1.299zm-7.779 11.686h8.335m-105.05-39.678h74.432v6.33h-74.432zm-8.361-0.927h8.366v8.365h-8.366z" stroke-width=".405"/>
   </g>
   <g stroke-width=".405">
    <g stroke-miterlimit="2.613">
     <path d="m148.01 514.76 1.195-1.867h0.64v-0.231h-0.786l-1.341 2.098z" fill="#fff"/>
     <path d="m149.03 514.76-1.195-1.867h-0.616v-0.231h0.762l1.341 2.098z" fill="#fff"/>
     <path d="m146.78 511.96h3.561v3.59h-3.561zm-0.494-0.495 4.55 4.551" fill="none"/>
    </g>
    <path d="m148.54 516.99c-1.755 0-3.179-1.423-3.179-3.178 0-1.756 1.424-3.178 3.179-3.178s3.178 1.422 3.178 3.178c0 1.755-1.423 3.178-3.178 3.178z" fill="none"/>
   </g>
  </g>
  <text transform="scale(.99741 1.0026)" x="123.40154" y="97.374763" fill="#000000" font-family="Helvetica" font-size="1.4293px" stroke-width=".35186"><tspan x="123.40154 124.27483 125.06951 126.02283 126.97615 128.00809 128.40543 129.35876 130.39069 130.78804 131.81996 132.7733 133.80524 138.49611 139.29079 140.08546 140.4828 141.43613 142.46806" y="97.374763" stroke-width=".35186">FLASH PC CARD14 VDC</tspan></text>
  <g transform="matrix(.35183 0 0 -.35373 -19.64 268.06)" fill="#fff" stroke="#000" stroke-width=".405">
   <path d="m127.45 512.35c3.452 0 6.251 2.799 6.251 6.251 0 3.453-2.799 6.252-6.251 6.252s-6.251-2.799-6.251-6.252c0-3.452 2.799-6.251 6.251-6.251z"/>
   <path d="m127.45 514.15c2.458 0 4.451 1.992 4.451 4.45s-1.993 4.452-4.451 4.452-4.451-1.994-4.451-4.452 1.993-4.45 4.451-4.45z"/>
   <path d="m125.61 516.94c-0.913 0-1.653 0.74-1.653 1.653s0.74 1.654 1.653 1.654h3.686c0.913 0 1.653-0.741 1.653-1.654s-0.74-1.653-1.653-1.653z"/>
  </g>
 </g>
 <metadata>
  <rdf:RDF>
   <cc:Work rdf:about="">
    <dc:title>Cisco 1602 R</dc:title>
    <dc:creator>
     <cc:Agent>
      <dc:title>Cisco</dc:title>
     </cc:Agent>
    </dc:creator>
    <dc:rights>
     <cc:Agent>
      <dc:title>Cisco</dc:title>
     </cc:Agent>
    </dc:rights>
    <dc:description>Made for: savalione.com</dc:description>
   </cc:Work>
  </rdf:RDF>
 </metadata>
</svg>
