<?xml version="1.0" encoding="UTF-8"?>
<!-- Created with Inkscape (http://www.inkscape.org/) -->
<svg width="140.47mm" height="23.728mm" version="1.1" viewBox="0 0 140.47 23.728" xmlns="http://www.w3.org/2000/svg" xmlns:cc="http://creativecommons.org/ns#" xmlns:dc="http://purl.org/dc/elements/1.1/" xmlns:rdf="http://www.w3.org/1999/02/22-rdf-syntax-ns#">
 <title>Cisco 1601 R</title>
 <g transform="translate(-.16676 -.45974)">
  <text transform="scale(.98422 1.016)" x="90.600121" y="12.505968" fill="#000000" font-family="Helvetica" font-size="1.4302px" stroke-width=".34721"><tspan x="90.600121 91.95018 92.347771" y="12.505968" stroke-width=".34721">WIC</tspan></text>
  <g transform="matrix(.3472 0 0 -.35842 -37.728 227.99)" stroke="#000" stroke-width=".405">
   <g fill="none">
    <path d="m330.95 575.54h22.856v21.011h-22.856zm1.877 13.641v-0.046m18.912 0v0.046m-1.863 1.314v-7.408h-2.749v-1.117h-1.617v-1.117h-6.706v1.117h-1.14v1.117h-2.873v7.408m-2.021-10.015 2.135 2.592m0.803-2.592 1.763 2.407m-1.595-3.98 1.763 3.147m-0.336-3.24 1.343 3.147m-1.175-4.628 1.259 3.61m12.93-0.37-1.728 2.486m-0.791-2.486-1.847 2.314m1.93-4.073-2.266 3.332m0.084-3.425-1.343 3.055m1.259-4.536-1.343 3.517m4.281 8.424v5.368h-15.112v-5.368h-1.957v-8.732h2.904v-1.595h1.629v-1.597h9.58v1.597h2.311v1.595h2.488v8.732zm-14.273 2.582h13.506v2.719h-13.506zm11.22 0h0.624v2.56h-0.624zm-1.869 0h0.623v2.56h-0.623zm-1.871 0h0.624v2.56h-0.624zm-1.87 0h0.624v2.56h-0.624zm-1.87 0h0.624v2.56h-0.624zm-1.87 0h0.624v2.56h-0.624zm-2.545-2.802 1.344 1.11v1.666m13.768-2.591-1.511 1.666v0.925m-221.68-16.197h22.857v21.011h-22.857zm1.877 13.641v-0.046"/>
    <path d="m147.65 589.14v0.046m-1.862 1.314v-7.408h-2.75v-1.117h-1.617v-1.117h-6.706v1.117h-1.14v1.117h-2.873v7.408m-2.021-10.015 2.134 2.592m0.804-2.592 1.763 2.407m-1.596-3.98 1.764 3.147m-0.336-3.24 1.343 3.147m-1.175-4.628 1.259 3.61m12.929-0.37-1.727 2.486m-0.791-2.486-1.847 2.314m1.931-4.073-2.267 3.332m0.084-3.425-1.343 3.055m1.259-4.536-1.344 3.517m4.282 8.424v5.368h-15.111v-5.368h-1.958v-8.732h2.904v-1.595h1.629v-1.597h9.581v1.597h2.31v1.595h2.488v8.732zm-14.273 2.582h13.506v2.719h-13.506zm11.221 0h0.623v2.56h-0.623zm-1.871 0h0.624v2.56h-0.624zm-1.87 0h0.624v2.56h-0.624zm-1.87 0h0.624v2.56h-0.624zm-1.87 0h0.624v2.56h-0.624zm-1.87 0h0.624v2.56h-0.624zm-2.545-2.802 1.344 1.11v1.666m13.769-2.591-1.512 1.666v0.925m39.42-4.894c-0.768 0-1.39 0.623-1.39 1.39s0.622 1.39 1.39 1.39c0.767 0 1.389-0.623 1.389-1.39s-0.622-1.39-1.389-1.39zm33.77 5.408c1.433 0 2.819-1.24 2.595-2.729-0.302-1.999-0.825-4.549-1.293-7.03-0.278-1.478-1.161-2.729-2.594-2.729h-32.927c-1.433 0-2.316 1.251-2.594 2.729-0.467 2.481-0.991 5.031-1.292 7.03-0.224 1.489 1.161 2.729 2.594 2.729z"/>
    <path d="m216.79 591.28c1.389 0 2.734-0.413 2.516-1.858-0.292-1.938-0.801-4.412-1.253-6.818-0.271-1.434-1.127-1.857-2.517-1.857h-31.271c-1.39 0-2.246 0.423-2.516 1.857-0.454 2.406-0.962 4.88-1.254 6.818-0.218 1.445 1.126 1.858 2.516 1.858zm1.172-14.237c2.222 0 4.023 1.801 4.023 4.023h4.9c2.699 0 4.886 2.188 4.886 4.886 0 2.699-2.187 4.886-4.886 4.886h-4.9c0 2.223-1.801 4.024-4.023 4.024h-36.149c-2.223 0-4.024-1.801-4.024-4.024h-4.9c-2.699 0-4.886-2.187-4.886-4.886 0-2.698 2.187-4.886 4.886-4.886h4.9c0-2.222 1.801-4.023 4.024-4.023zm-29.595 9.8c-0.768 0-1.39 0.623-1.39 1.39s0.622 1.39 1.39 1.39c0.767 0 1.389-0.623 1.389-1.39s-0.622-1.39-1.389-1.39zm4.481 0c-0.768 0-1.39 0.623-1.39 1.39s0.622 1.39 1.39 1.39c0.767 0 1.39-0.623 1.39-1.39s-0.623-1.39-1.39-1.39zm4.482 0c-0.767 0-1.39 0.623-1.39 1.39s0.623 1.39 1.39 1.39 1.39-0.623 1.39-1.39-0.623-1.39-1.39-1.39zm4.481 0c-0.767 0-1.389 0.623-1.389 1.39s0.622 1.39 1.389 1.39c0.768 0 1.39-0.623 1.39-1.39s-0.622-1.39-1.39-1.39zm4.482 0c-0.767 0-1.389 0.623-1.389 1.39s0.622 1.39 1.389 1.39c0.768 0 1.39-0.623 1.39-1.39s-0.622-1.39-1.39-1.39zm4.481 0c-0.767 0-1.389 0.623-1.389 1.39s0.622 1.39 1.389 1.39c0.768 0 1.39-0.623 1.39-1.39s-0.622-1.39-1.39-1.39zm4.482 0c-0.767 0-1.389 0.623-1.389 1.39s0.622 1.39 1.389 1.39c0.768 0 1.39-0.623 1.39-1.39s-0.622-1.39-1.39-1.39zm-29.398-4.145c-0.767 0-1.389 0.622-1.389 1.389s0.622 1.389 1.389 1.389c0.768 0 1.39-0.622 1.39-1.389s-0.622-1.389-1.39-1.389zm4.542 0c-0.768 0-1.389 0.622-1.389 1.389s0.621 1.389 1.389 1.389c0.767 0 1.389-0.622 1.389-1.389s-0.622-1.389-1.389-1.389zm4.542 0c-0.768 0-1.39 0.622-1.39 1.389s0.622 1.389 1.39 1.389c0.767 0 1.389-0.622 1.389-1.389s-0.622-1.389-1.389-1.389zm4.541 0c-0.768 0-1.39 0.622-1.39 1.389s0.622 1.389 1.39 1.389 1.39-0.622 1.39-1.389-0.622-1.389-1.39-1.389zm4.542 0c-0.768 0-1.39 0.622-1.39 1.389s0.622 1.389 1.39 1.389c0.767 0 1.389-0.622 1.389-1.389s-0.622-1.389-1.389-1.389zm4.541 0c-0.767 0-1.39 0.622-1.39 1.389s0.623 1.389 1.39 1.389 1.389-0.622 1.389-1.389-0.622-1.389-1.389-1.389zm4.542 0c-0.768 0-1.39 0.622-1.39 1.389s0.622 1.389 1.39 1.389c0.767 0 1.389-0.622 1.389-1.389s-0.622-1.389-1.389-1.389zm-38.999 7.466 3.704-2.139v-4.278l-3.705-2.139-3.703 2.139v4.278zm0.021-6.477c1.203 0 2.178 0.975 2.178 2.178s-0.975 2.178-2.178 2.178c-1.202 0-2.177-0.975-2.177-2.178s0.975-2.178 2.177-2.178zm51.393 6.477 3.704-2.139v-4.278l-3.705-2.139-3.704 2.139v4.278z"/>
    <path d="m225.54 583.69c1.203 0 2.178 0.975 2.178 2.178s-0.975 2.178-2.178 2.178-2.178-0.975-2.178-2.178 0.975-2.178 2.178-2.178zm248.26-7.973c4.309 0 7.801 3.581 7.801 7.997s-3.492 7.996-7.801 7.996-7.801-3.58-7.801-7.996 3.492-7.997 7.801-7.997zm-3.428 9.238h1.379v2.758h-1.379zm-1.298-3.586h1.379v2.759h-1.379zm2.517-2.988h1.379v2.758h-1.379zm2.932 0.084h1.379v2.758h-1.379zm2.695 2.854h1.379v2.758h-1.379zm-1.054 3.636h1.379v2.758h-1.379zm-3.034-1.103h1.379v2.758h-1.379zm1.61 5.002h-2.268v1.718c-2.807-0.794-5.145-3.716-5.145-6.858 0-3.77 2.969-6.827 6.631-6.827s6.631 3.057 6.631 6.827c0 3.384-2.71 6.305-5.849 6.844zm-356.96-17.882h375.56l0.25-8e-3c3.707 9.209 5.814 19.773 5.814 31.005 0 10.4-1.807 20.228-5.017 28.938h-3.31v1.636h-370.88v-1.636h-3.255c-3.211-8.71-5.018-18.538-5.018-28.938 0-11.232 2.107-21.796 5.815-31.005m-1.617-1.959h379l0.262 0.295c3.892 9.67 6.105 21.201 6.105 32.994 0 10.92-1.897 21.239-5.268 30.385l-0.845 1.717h-379.78l-0.789-1.717c-3.371-9.146-5.268-19.465-5.268-30.385 0-11.793 2.651-23.324 6.543-32.994m267.83 48.461m-6.446-14.415v-3.597h3.003m0 3.597h-3.003m3.003 5.852v-5.852"/>
   </g>
   <path d="m374.22 618.42c0 0.186 0.08 1.271 1.272 1.271h7.574v-1.986h0.927v1.986h72.617v-1.986h0.926v1.986h7.468c0.477 0 1.325-0.264 1.325-1.403v-21.769c0-0.556 0-1.007-1.086-1.033-0.12-3e-3 -5.221-7e-3 -5.221-7e-3v5.317h-1.038v-2.034l-9.272-1e-3v2.008h-1.207v-5.293c-21.621-2e-3 -58.327 6e-3 -58.327 6e-3v5.046h-1.18v-1.771h-7.365v1.797h-1.122v-1.874s-4.96 1e-3 -5.072 1e-3c-0.794 0-1.14 0.61-1.219 1.245v18.494z" fill="#fff"/>
   <path d="m461.29 611.42c1.103 0 1.997 0.894 1.997 1.996 0 1.103-0.894 1.997-1.997 1.997-1.102 0-1.996-0.894-1.996-1.997 0-1.102 0.894-1.996 1.996-1.996z" fill="#fff"/>
   <path d="m466.4 617.94h-5.349c-2.442 0-4.422-1.98-4.422-4.422 0-2.441 1.98-4.42 4.422-4.42h5.192" fill="none"/>
   <path d="m379.42 611.42c-1.102 0-1.996 0.894-1.996 1.996 0 1.103 0.894 1.997 1.996 1.997 1.103 0 1.997-0.894 1.997-1.997 0-1.102-0.894-1.996-1.997-1.996z" fill="#fff"/>
   <path d="m374.32 617.94h5.351c2.441 0 4.42-1.98 4.42-4.422 0-2.441-1.979-4.42-4.42-4.42h-5.193" fill="none"/>
  </g>
  <text transform="scale(.98411 1.0161)" x="103.13242" y="7.1727819" fill="#231f20" font-family="Helvetica" font-size="1.0464px" font-weight="bold" stroke-width=".34717"><tspan x="103.13242 103.86697 104.66013 104.93009 105.66466 106.4578 107.07622 107.34618 107.61614 108.35071 109.02773 109.64615 110.38068 110.99909 111.61754 111.88747 112.62203 113.3566 114.03362 114.30359 115.27042 116.00498" y="7.1727819">DO NOT INSTALL ANY WAN</tspan><tspan x="103.13242 103.98312 104.77628 105.51083 106.24538 106.86379 107.54082 107.81078 108.77765 109.04761 109.66602 110.40057 110.67055 111.34754 112.14071 113.10756 113.78458 114.51913 114.78911 115.58225" y="8.397994">MODULE WITH POWER ON</tspan></text>
  <g transform="matrix(.3472 0 0 -.35842 -37.728 227.99)" fill="none" stroke="#000" stroke-width=".405">
   <path d="m400.83 601.38v6e-3h-4.691c-0.801 0-1.451-0.649-1.451-1.451 0-0.801 0.65-1.45 1.451-1.45 0.025 0 0.048 6e-3 0.073 7e-3h4.479c0.024-1e-3 0.048-7e-3 0.073-7e-3 0.801 0 1.451 0.649 1.451 1.45 0 0.779-0.615 1.409-1.385 1.445zm53.178 8.156v7e-3h-4.691c-0.802 0-1.451-0.65-1.451-1.451s0.649-1.45 1.451-1.45c0.025 0 0.048 6e-3 0.073 7e-3h4.479c0.025-1e-3 0.048-7e-3 0.073-7e-3 0.801 0 1.451 0.649 1.451 1.45 0 0.779-0.615 1.409-1.385 1.444zm0 4.132v6e-3h-4.691c-0.802 0-1.451-0.649-1.451-1.45 0-0.802 0.649-1.451 1.451-1.451 0.025 0 0.048 6e-3 0.073 8e-3h4.479c0.025-2e-3 0.048-8e-3 0.073-8e-3 0.801 0 1.451 0.649 1.451 1.451 0 0.778-0.615 1.408-1.385 1.444zm0 4.131v7e-3h-4.691c-0.802 0-1.451-0.65-1.451-1.451s0.649-1.451 1.451-1.451c0.025 0 0.048 7e-3 0.073 8e-3h4.479c0.025-1e-3 0.048-8e-3 0.073-8e-3 0.801 0 1.451 0.65 1.451 1.451 0 0.778-0.615 1.409-1.385 1.444zm-62.817-8.263v7e-3h-4.692c-0.801 0-1.451-0.65-1.451-1.451s0.65-1.45 1.451-1.45c0.025 0 0.049 6e-3 0.073 7e-3h4.479c0.025-1e-3 0.048-7e-3 0.073-7e-3 0.802 0 1.451 0.649 1.451 1.45 0 0.779-0.615 1.409-1.384 1.444zm0 4.132v6e-3h-4.692c-0.801 0-1.451-0.649-1.451-1.45 0-0.802 0.65-1.451 1.451-1.451 0.025 0 0.049 6e-3 0.073 8e-3h4.479c0.025-2e-3 0.048-8e-3 0.073-8e-3 0.802 0 1.451 0.649 1.451 1.451 0 0.778-0.615 1.408-1.384 1.444zm0 4.131v7e-3h-4.692c-0.801 0-1.451-0.65-1.451-1.451s0.65-1.451 1.451-1.451c0.025 0 0.049 7e-3 0.073 8e-3h4.479c0.025-1e-3 0.048-8e-3 0.073-8e-3 0.802 0 1.451 0.65 1.451 1.451 0 0.778-0.615 1.409-1.384 1.444zm18.326-16.419v6e-3h-4.692c-0.801 0-1.45-0.649-1.45-1.451 0-0.801 0.649-1.45 1.45-1.45 0.025 0 0.049 6e-3 0.074 7e-3h4.478c0.025-1e-3 0.049-7e-3 0.074-7e-3 0.801 0 1.45 0.649 1.45 1.45 0 0.779-0.614 1.409-1.384 1.445zm8.686 0v6e-3h-4.692c-0.8 0-1.45-0.649-1.45-1.451 0-0.801 0.65-1.45 1.45-1.45 0.026 0 0.049 6e-3 0.074 7e-3h4.479c0.024-1e-3 0.048-7e-3 0.073-7e-3 0.801 0 1.451 0.649 1.451 1.45 0 0.779-0.615 1.409-1.385 1.445zm8.687 0v6e-3h-4.692c-0.801 0-1.451-0.649-1.451-1.451 0-0.801 0.65-1.45 1.451-1.45 0.025 0 0.049 6e-3 0.073 7e-3h4.479c0.025-1e-3 0.048-7e-3 0.073-7e-3 0.802 0 1.451 0.649 1.451 1.45 0 0.779-0.614 1.409-1.384 1.445zm8.686 0v6e-3h-4.691c-0.802 0-1.451-0.649-1.451-1.451 0-0.801 0.649-1.45 1.451-1.45 0.025 0 0.048 6e-3 0.073 7e-3h4.479c0.024-1e-3 0.048-7e-3 0.073-7e-3 0.801 0 1.451 0.649 1.451 1.45 0 0.779-0.615 1.409-1.385 1.445zm8.687 0v6e-3h-4.692c-0.801 0-1.451-0.649-1.451-1.451 0-0.801 0.65-1.45 1.451-1.45 0.025 0 0.049 6e-3 0.073 7e-3h4.479c0.025-1e-3 0.048-7e-3 0.073-7e-3 0.802 0 1.451 0.649 1.451 1.45 0 0.779-0.615 1.409-1.384 1.445z"/>
   <path d="m477.78 603.98h12.035v25.021h-12.035zm9.684 1.028c0.719 0 1.301 0.582 1.301 1.3v20.061c0 0.718-0.582 1.301-1.301 1.301h-7.202c-0.718 0-1.3-0.583-1.3-1.301v-20.061c0-0.718 0.582-1.3 1.3-1.3zm-7.784 11.694h8.34"/>
  </g>
  <text transform="matrix(0 -1.0161 .98418 0 0 0)" x="-23.649387" y="142.87041" fill="#000000" font-family="Helvetica" font-size="2.1453px" stroke-width=".3472"><tspan x="-23.649387 -22.100468 -20.907673 -19.714878 -18.522068" y="142.87041" stroke-width=".3472">H7183</tspan></text>
  <g transform="matrix(.3472 0 0 -.35842 -37.728 227.99)" stroke="#000" stroke-linecap="round" stroke-linejoin="round" stroke-width=".405">
   <path d="m305.81 577.48c-0.22-0.046-0.441-0.051-0.658-0.056h-41.687c-1.921-0.049-3.555 1.599-4.123 3.575l-1.423 8.063c-0.48 2.373 0.88 4.664 3.041 5.116" fill="#fff"/>
   <path d="m305.81 577.48c2.161 0.452 2.616 2.297 3.468 5.13l1.139 6.866c0.854 3.342-1.777 4.864-3.698 4.814h-45.101c-0.218-6e-3 -0.438-0.066-0.658-0.112" fill="none"/>
   <path d="m252 581.55c2.148 0 3.888 1.741 3.888 3.888s-1.74 3.888-3.888 3.888c-2.146 0-3.887-1.741-3.887-3.888s1.741-3.888 3.887-3.888z" fill="#fff"/>
  </g>
  <path d="m49.768 18.715c0.30621 0 0.55457-0.25612 0.55457-0.57221s-0.24836-0.5722-0.55457-0.5722c-0.30586 0-0.55421 0.25611-0.55421 0.5722s0.24836 0.57221 0.55421 0.57221"/>
  <g transform="matrix(.3472 0 0 -.35842 -37.728 227.99)">
   <path d="m316.11 581.85c2.147 0 3.888 1.741 3.888 3.888s-1.741 3.887-3.888 3.887-3.887-1.74-3.887-3.887 1.74-3.888 3.887-3.888z" fill="#fff" stroke="#000" stroke-linecap="round" stroke-linejoin="round" stroke-width=".405"/>
  </g>
  <g>
   <path d="m72.028 18.61c0.30621 0 0.55421-0.25612 0.55421-0.57221 0-0.31644-0.248-0.57256-0.55421-0.57256s-0.55457 0.25612-0.55457 0.57256c0 0.31609 0.24836 0.57221 0.55457 0.57221"/>
   <path d="m53.347 16.594h0.9204v-0.77399h-0.9204z"/>
   <path d="m53.347 17.756h0.9204v-0.774h-0.9204z"/>
   <path d="m53.347 18.917h0.9204v-0.77435h-0.9204z"/>
   <path d="m53.347 20.078h0.9204v-0.77399h-0.9204z"/>
   <path d="m54.643 16.594h0.9204v-0.77399h-0.9204z"/>
   <path d="m54.643 17.756h0.9204v-0.774h-0.9204z"/>
   <path d="m54.643 18.917h0.9204v-0.77435h-0.9204z"/>
   <path d="m54.643 20.078h0.9204v-0.77399h-0.9204z"/>
   <path d="m55.938 16.594h0.9204v-0.77399h-0.9204z"/>
   <path d="m55.938 17.756h0.9204v-0.774h-0.9204z"/>
   <path d="m55.938 18.917h0.9204v-0.77435h-0.9204z"/>
   <path d="m55.938 20.078h0.9204v-0.77399h-0.9204z"/>
   <path d="m57.233 16.594h0.9204v-0.77399h-0.9204z"/>
   <path d="m57.233 17.756h0.9204v-0.774h-0.9204z"/>
   <path d="m57.233 18.917h0.9204v-0.77435h-0.9204z"/>
   <path d="m57.233 20.078h0.9204v-0.77399h-0.9204z"/>
   <path d="m58.529 16.594h0.9204v-0.77399h-0.9204z"/>
   <path d="m58.529 17.756h0.9204v-0.774h-0.9204z"/>
   <path d="m58.529 18.917h0.9204v-0.77435h-0.9204z"/>
   <path d="m58.529 20.078h0.9204v-0.77399h-0.9204z"/>
   <path d="m59.824 16.594h0.9204v-0.77399h-0.9204z"/>
   <path d="m59.824 17.756h0.9204v-0.774h-0.9204z"/>
   <path d="m59.824 18.917h0.9204v-0.77435h-0.9204z"/>
   <path d="m59.824 20.078h0.9204v-0.77399h-0.9204z"/>
   <path d="m61.119 16.594h0.9204v-0.77399h-0.9204z"/>
   <path d="m61.119 17.756h0.9204v-0.774h-0.9204z"/>
   <path d="m61.119 18.917h0.9204v-0.77435h-0.9204z"/>
   <path d="m61.119 20.078h0.9204v-0.77399h-0.9204z"/>
   <path d="m62.415 16.594h0.92004v-0.77399h-0.92004z"/>
   <path d="m62.415 17.756h0.92004v-0.774h-0.92004z"/>
   <path d="m62.415 18.917h0.92004v-0.77435h-0.92004z"/>
   <path d="m62.415 20.078h0.92004v-0.77399h-0.92004z"/>
   <path d="m63.71 16.594h0.9204v-0.77399h-0.9204z"/>
   <path d="m63.71 17.756h0.9204v-0.774h-0.9204z"/>
   <path d="m63.71 18.917h0.9204v-0.77435h-0.9204z"/>
   <path d="m63.71 20.078h0.9204v-0.77399h-0.9204z"/>
   <path d="m65.006 16.594h0.9204v-0.77399h-0.9204z"/>
   <path d="m65.006 17.756h0.9204v-0.774h-0.9204z"/>
   <path d="m65.006 18.917h0.9204v-0.77435h-0.9204z"/>
   <path d="m65.006 20.078h0.9204v-0.77399h-0.9204z"/>
   <path d="m66.301 16.594h0.9204v-0.77399h-0.9204z"/>
   <path d="m66.301 17.756h0.9204v-0.774h-0.9204z"/>
   <path d="m66.301 18.917h0.9204v-0.77435h-0.9204z"/>
   <path d="m66.301 20.078h0.9204v-0.77399h-0.9204z"/>
   <path d="m67.596 16.594h0.9204v-0.77399h-0.9204z"/>
   <path d="m67.596 17.756h0.9204v-0.774h-0.9204z"/>
   <path d="m67.596 18.917h0.9204v-0.77435h-0.9204z"/>
   <path d="m67.596 20.078h0.9204v-0.77399h-0.9204z"/>
  </g>
  <g transform="matrix(.3472 0 0 -.35842 -37.728 227.99)">
   <path d="m382.9 577h74.483v6.334h-74.483zm-8.366-0.927h8.371v8.371h-8.371zm-219.3 1.063h5.752v5.752h-5.752zm81.796 0h5.752v5.752h-5.752zm124.98 0h5.752v5.752h-5.752zm-132.98 24.69c1.378 0 2.494 1.837 2.494 4.104 0 2.268-1.116 4.105-2.494 4.105h-111.88c-1.377 0-2.494-1.837-2.494-4.105 0-2.267 1.117-4.104 2.494-4.104z" fill="none" stroke="#000" stroke-width=".405"/>
  </g>
  <text transform="scale(.98418 1.0161)" x="3.0198207" y="11.301733" fill="#000000" font-family="Helvetica" font-size="2.1453px" stroke-width=".3472"><tspan x="3.0198207 4.2126203 5.4054189 6.0018163 7.4327474 8.8636789 10.294606 11.725537 12.321935" y="11.301733">10 BASE T</tspan><tspan x="17.568748 18.999676 20.310471 21.85939 23.290321 24.839239 26.388163 27.81909 29.129885 29.726282" y="11.344206">ETHERNET Ø</tspan><tspan x="35.576141 37.007072 38.555992" y="11.254103">AUI</tspan></text>
  <g transform="matrix(.3472 0 0 -.35842 -37.728 227.99)">
   <path d="m157.99 585.74h-5.955v-11.53h6.082m-6.462 6.082h-1.773" fill="none" stroke="#000" stroke-width="1.014"/>
  </g>
  <text transform="scale(.98422 1.016)" x="15.614755" y="16.856501" fill="#000000" font-family="Helvetica" font-size="1.4302px" stroke-width=".34721"><tspan x="15.614755 16.40992 17.442493" y="16.856501" stroke-width=".34721">LNK</tspan></text>
  <g transform="matrix(.3472 0 0 -.35842 -37.728 227.99)" stroke="#000">
   <g stroke-width=".405">
    <g stroke-miterlimit="2.613">
     <path d="m147.2 618.02 1.195-1.869h0.641v-0.231h-0.787l-1.341 2.1z" fill="#fff"/>
     <path d="m148.22 618.02-1.196-1.869h-0.616v-0.231h0.762l1.342 2.1z" fill="#fff"/>
     <path d="m145.97 615.22h3.563v3.592h-3.563zm-0.495-0.495 4.554 4.553" fill="none"/>
    </g>
    <path d="m147.73 620.25c-1.757 0-3.181-1.424-3.181-3.181 0-1.756 1.424-3.18 3.181-3.18 1.756 0 3.18 1.424 3.18 3.18 0 1.757-1.424 3.181-3.18 3.181z" fill="none"/>
    <path d="m215.2 618.11 1.197-1.869h0.64v-0.231h-0.786l-1.343 2.1z" fill="#fff" stroke-miterlimit="2.613"/>
    <path d="m216.22 618.11-1.196-1.869h-0.616v-0.231h0.762l1.342 2.1z" fill="#fff" stroke-miterlimit="2.613"/>
   </g>
   <g fill="none">
    <path d="m213.97 615.31h3.564v3.592h-3.564zm-0.495-0.494 4.553 4.553" stroke-miterlimit="2.613" stroke-width=".405"/>
    <path d="m215.73 620.34c-1.756 0-3.18-1.424-3.18-3.18 0-1.757 1.424-3.18 3.18-3.18 1.757 0 3.181 1.423 3.181 3.18 0 1.756-1.424 3.18-3.181 3.18z" stroke-width=".405"/>
    <path d="m234.05 574.25h11.149v11.149h-11.149z" stroke-miterlimit="2.613" stroke-width="1.014"/>
   </g>
   <g>
    <g stroke-width=".405">
     <path d="m283.59 617.67 1.605-2.453h0.848v-0.32h-1.05l-1.78 2.773z" fill="#fff"/>
     <path d="m284.96 617.67-1.605-2.453h-0.848v-0.32h1.051l1.779 2.773z" fill="#fff"/>
     <path d="m281.92 613.96h4.76v4.76h-4.76z" fill="none"/>
    </g>
    <path d="m239.46 586.08v2.703" fill="none" stroke-width="1.014"/>
   </g>
  </g>
  <text transform="scale(.98422 1.016)" x="44.989952" y="16.217989" fill="#000000" font-family="Helvetica" font-size="1.4302px" stroke-width=".34721"><tspan x="44.989952 46.022522 47.055099" y="16.217989">RDY</tspan><tspan x="89.285332 90.397987" y="17.273439">OK</tspan></text>
  <g transform="matrix(.3472 0 0 -.35842 -37.728 227.99)" stroke="#000">
   <path d="m359.25 574.23h11.149v11.149h-11.149z" fill="none" stroke-miterlimit="2.613" stroke-width="1.014"/>
   <path d="m370.89 579.32h3.379" fill="none" stroke-width="1.014"/>
   <g stroke-miterlimit="2.613" stroke-width=".405">
    <path d="m341.88 618.07 1.196-1.869h0.641v-0.231h-0.787l-1.342 2.1z" fill="#fff"/>
    <path d="m342.9 618.07-1.195-1.869h-0.617v-0.231h0.762l1.342 2.1z" fill="#fff"/>
    <path d="m340.65 615.27h3.564v3.592h-3.564zm-0.494-0.494 4.553 4.553" fill="none"/>
   </g>
   <path d="m342.41 620.3c-1.756 0-3.18-1.424-3.18-3.18 0-1.757 1.424-3.181 3.18-3.181s3.18 1.424 3.18 3.181c0 1.756-1.424 3.18-3.18 3.18z" fill="none" stroke-width=".405"/>
  </g>
  <text transform="scale(.98422 1.016)" x="104.54505" y="17.988749" fill="#000000" font-family="Helvetica" font-size="1.4302px" stroke-width=".34721"><tspan x="104.54505 105.41887 106.21404 107.16795 108.12186 109.15444 109.55202 110.50594 111.5385 111.93608 112.96866 113.92258 114.95516" y="17.988749" stroke-width=".34721">FLASH PC CARD</tspan></text>
  <g transform="matrix(.3472 0 0 -.35842 -37.728 227.99)">
   <path d="m312.99 601.92c0.956 0 1.731 1.838 1.731 4.105s-0.775 4.105-1.731 4.105h-76.075c-0.957 0-1.732-1.838-1.732-4.105s0.775-4.105 1.732-4.105z" fill="none" stroke="#000" stroke-width=".405"/>
  </g>
  <text transform="scale(.98418 1.0161)" x="53.778091" y="11.44026" fill="#000000" font-family="Helvetica" font-size="2.1453px" stroke-width=".3472"><tspan x="53.778091 55.209015 56.639946 58.188866 58.785271 60.216194 61.408997 62.005394" y="11.44026" stroke-width=".3472">SERIAL Ø</tspan></text>
  <g transform="matrix(.3472 0 0 -.35842 -37.728 227.99)">
   <path d="m361.43 601.93c0.518 0 0.938 1.839 0.938 4.106 0 2.266-0.42 4.105-0.938 4.105h-41.224c-0.519 0-0.939-1.839-0.939-4.105 0-2.267 0.42-4.106 0.939-4.106z" fill="none" stroke="#000" stroke-width=".405"/>
  </g>
  <text transform="scale(.98418 1.0161)" x="76.775856" y="11.363523" fill="#000000" font-family="Helvetica" font-size="2.1453px" stroke-width=".3472"><tspan x="76.775856 78.324776 79.993835 81.54277 82.973701 84.642761 85.835556" y="11.363523" stroke-width=".3472">CONSOLE</tspan></text>
  <text transform="scale(.98422 1.016)" x="119.65164" y="17.988749" fill="#000000" font-family="Helvetica" font-size="1.4302px" stroke-width=".34721"><tspan x="119.65164 120.4468 121.24198 121.63957 122.59347 123.62605" y="17.988749" stroke-width=".34721">14 VDC</tspan></text>
  <g transform="matrix(.3472 0 0 -.35842 -37.728 227.99)">
   <g fill="#fff" stroke="#000" stroke-width=".405">
    <path d="m126.63 615.6c3.455 0 6.256 2.801 6.256 6.256s-2.801 6.255-6.256 6.255-6.255-2.8-6.255-6.255 2.8-6.256 6.255-6.256z"/>
    <path d="m126.63 617.4c2.46 0 4.455 1.994 4.455 4.454s-1.995 4.454-4.455 4.454c-2.459 0-4.453-1.994-4.453-4.454s1.994-4.454 4.453-4.454z"/>
    <path d="m124.78 620.2c-0.913 0-1.654 0.74-1.654 1.654 0 0.913 0.741 1.654 1.654 1.654h3.688c0.914 0 1.655-0.741 1.655-1.654 0-0.914-0.741-1.654-1.655-1.654z"/>
   </g>
   <g stroke="#000">
    <path d="m483.3 581.79c0-1.431 1.16-2.591 2.591-2.591 1.432 0 2.592 1.16 2.592 2.591v5.745c0 1.431-1.16 2.591-2.592 2.591-1.431 0-2.591-1.16-2.591-2.591z" fill="none" stroke-width=".405"/>
    <path d="m484.31 587.54c0 0.421 0.163 0.817 0.462 1.115 0.298 0.298 0.694 0.463 1.115 0.463 0.422 0 0.818-0.165 1.116-0.463s0.462-0.694 0.462-1.115v-5.745c0-0.87-0.708-1.577-1.578-1.577-0.421 0-0.817 0.163-1.115 0.461-0.299 0.299-0.462 0.695-0.462 1.116z" fill="none" stroke-width=".253"/>
    <path d="m486.72 575.81v6.935h-1.52v-6.935" fill="#fff" stroke-width=".405"/>
    <path d="m486.72 594.23v-6.935h-1.52v6.935" fill="#fff" stroke-width=".405"/>
   </g>
   <path d="m494.23 589.84c1.766 0.823 3.593 1.673 5.023 1.673 1.767 0 3.428-0.688 4.677-1.938m1.076 1.075c-1.537 1.537-3.58 2.383-5.753 2.383-1.766 0-3.749-0.922-5.665-1.814m5.665-12.936c-1.43 0-3.257 0.851-5.023 1.673m-0.642-1.379c1.916-0.892 3.899-1.814 5.665-1.814" fill="none" stroke="#fff" stroke-width="2.534"/>
   <path d="m486.72 572.05v6.935c0 0.269 0.075 0.469 0.234 0.629 0.337 0.337 1.065 0.523 2.048 0.523 1.235 0 2.941-0.794 4.591-1.563 1.916-0.892 3.899-1.814 5.665-1.814 2.173 0 4.216 0.846 5.753 2.383 1.536 1.536 2.382 3.579 2.382 5.752s-0.846 4.216-2.382 5.752c-1.537 1.537-3.58 2.383-5.753 2.383-1.766 0-3.749-0.922-5.665-1.814-1.65-0.769-3.356-1.562-4.591-1.562-0.983 0-1.711 0.185-2.048 0.522-0.159 0.16-0.234 0.36-0.234 0.629v6.935h-1.52v-6.935c0-0.67 0.235-1.26 0.679-1.704 0.642-0.642 1.693-0.968 3.123-0.968 1.571 0 3.35 0.828 5.233 1.704 1.766 0.823 3.593 1.673 5.023 1.673 1.767 0 3.428-0.688 4.677-1.938 1.25-1.249 1.938-2.91 1.938-4.677 0-3.648-2.967-6.615-6.615-6.615-1.43 0-3.257 0.851-5.023 1.673-1.883 0.876-3.662 1.704-5.233 1.704-3.432 0-3.802-1.869-3.802-2.672v-6.935z" fill="#fff" stroke="#000" stroke-width=".405"/>
   <path d="m505.01 590.65c-1.113 1.113-2.494 1.857-3.995 2.187 0.312 3.115 0.486 6.276 0.486 9.46 0 10.92-1.897 21.239-5.268 30.384l-0.845 1.718h-379.78l-0.789-1.718c-3.371-9.145-5.268-19.464-5.268-30.384 0-11.794 2.651-23.325 6.544-32.994l0.036-0.295h379l0.262 0.295c0.976 2.424 1.846 4.967 2.602 7.6 0.428-0.087 0.85-0.141 1.259-0.141 2.173 0 4.216 0.846 5.753 2.383 1.536 1.537 2.382 3.58 2.382 5.752 0 2.173-0.846 4.216-2.382 5.753z" fill="none" stroke="#000" stroke-width=".811"/>
  </g>
 </g>
 <metadata>
  <rdf:RDF>
   <cc:Work rdf:about="">
    <dc:title>Cisco 1601 R</dc:title>
    <dc:description>Made for: savalione.com</dc:description>
    <dc:creator>
     <cc:Agent>
      <dc:title>Cisco</dc:title>
     </cc:Agent>
    </dc:creator>
    <dc:rights>
     <cc:Agent>
      <dc:title>Cisco</dc:title>
     </cc:Agent>
    </dc:rights>
   </cc:Work>
  </rdf:RDF>
 </metadata>
</svg>
