<?xml version="1.0" encoding="UTF-8"?>
<!-- Created with Inkscape (http://www.inkscape.org/) -->
<svg width="140.44mm" height="23.115mm" version="1.1" viewBox="0 0 140.44 23.115" xmlns="http://www.w3.org/2000/svg" xmlns:cc="http://creativecommons.org/ns#" xmlns:dc="http://purl.org/dc/elements/1.1/" xmlns:rdf="http://www.w3.org/1999/02/22-rdf-syntax-ns#">
 <title>Cisco 1603 R</title>
 <g transform="translate(-51.505 -113.74)">
  <text transform="scale(.99862 1.0014)" x="140.50133" y="124.97143" fill="#000000" font-family="Helvetica" font-size="1.4095px" stroke-width=".35229"><tspan x="140.50133 141.83191 142.22375" y="124.97143" stroke-width=".35229">WIC</tspan></text>
  <g transform="matrix(.35228 0 0 -.35327 13.762 262.32)" stroke="#000" stroke-width=".4">
   <g fill="none">
    <path d="m325.16 360.73h22.526v20.708h-22.526zm1.85 13.444v-0.045m18.639 0v0.045m-1.836 1.295v-7.301h-2.709v-1.1h-1.594v-1.101h-6.609v1.101h-1.124v1.1h-2.831v7.301m-1.992-9.869 2.104 2.553m0.791-2.553 1.738 2.371m-1.572-3.923 1.738 3.102m-0.332-3.193 1.324 3.102m-1.158-4.561 1.241 3.558m12.743-0.365-1.703 2.45m-0.78-2.45-1.82 2.28m1.903-4.014-2.234 3.284m0.083-3.375-1.324 3.01m1.241-4.47-1.324 3.467m4.22 8.301v5.291h-14.894v-5.291h-1.929v-8.605h2.862v-1.573h1.606v-1.573h9.442v1.573h2.276v1.573h2.453v8.605zm-14.068 2.546h13.311v2.68h-13.311zm11.059 0h0.615v2.523h-0.615zm-1.843 0h0.614v2.523h-0.614zm-1.843 0h0.615v2.523h-0.615zm-1.843 0h0.615v2.523h-0.615zm-1.844 0h0.615v2.523h-0.615zm-1.842 0h0.615v2.523h-0.615zm-2.508-2.763 1.324 1.095v1.642m13.569-2.554-1.489 1.642v0.912m-218.48-13.088h22.526v20.708h-22.526zm1.85 13.444v-0.046"/>
    <path d="m144.52 377v0.046m-1.836 1.295v-7.301h-2.71v-1.101h-1.593v-1.101h-6.61v1.101h-1.123v1.101h-2.831v7.301m-1.992-9.87 2.103 2.554m0.792-2.554 1.738 2.371m-1.573-3.922 1.738 3.101m-0.331-3.192 1.324 3.101m-1.158-4.561 1.241 3.558m12.742-0.365-1.702 2.45m-0.78-2.45-1.821 2.28m1.904-4.013-2.235 3.284m0.083-3.376-1.324 3.011m1.241-4.471-1.323 3.467m4.22 8.302v5.291h-14.894v-5.291h-1.929v-8.606h2.862v-1.572h1.606v-1.573h9.442v1.573h2.276v1.572h2.453v8.606zm-14.068 2.545h13.311v2.68h-13.311zm11.059 0h0.614v2.523h-0.614zm-1.843 0h0.615v2.523h-0.615zm-1.843 0h0.615v2.523h-0.615zm-1.843 0h0.615v2.523h-0.615zm-1.843 0h0.615v2.523h-0.615zm-1.844 0h0.615v2.523h-0.615zm-2.507-2.762 1.323 1.094v1.642m13.571-2.554-1.49 1.642v0.912m38.85-4.823c-0.757 0-1.37 0.613-1.37 1.37 0 0.756 0.613 1.369 1.37 1.369 0.756 0 1.37-0.613 1.37-1.369 0-0.757-0.614-1.37-1.37-1.37zm33.282 5.329c1.413 0 2.778-1.222 2.557-2.689-0.297-1.97-0.813-4.483-1.273-6.928-0.275-1.457-1.145-2.69-2.557-2.69h-32.452c-1.411 0-2.282 1.233-2.556 2.69-0.46 2.445-0.977 4.958-1.273 6.928-0.221 1.467 1.144 2.689 2.556 2.689z"/>
    <path d="m212.66 379.12c1.369 0 2.694-0.407 2.48-1.83-0.289-1.91-0.79-4.349-1.236-6.72-0.266-1.414-1.111-1.831-2.48-1.831h-30.82c-1.369 0-2.213 0.417-2.479 1.831-0.447 2.371-0.948 4.81-1.236 6.72-0.214 1.423 1.11 1.83 2.48 1.83zm1.155-14.031c2.189 0 3.965 1.775 3.965 3.965h4.829c2.66 0 4.815 2.156 4.815 4.816 0 2.659-2.155 4.815-4.815 4.815h-4.829c0 2.19-1.776 3.965-3.965 3.965h-35.627c-2.19 0-3.965-1.775-3.965-3.965h-4.83c-2.66 0-4.815-2.156-4.815-4.815 0-2.66 2.155-4.816 4.815-4.816h4.83c0-2.19 1.775-3.965 3.965-3.965zm-29.168 9.659c-0.756 0-1.37 0.613-1.37 1.37 0 0.756 0.614 1.369 1.37 1.369 0.757 0 1.37-0.613 1.37-1.369 0-0.757-0.613-1.37-1.37-1.37zm4.417 0c-0.757 0-1.37 0.613-1.37 1.37 0 0.756 0.613 1.369 1.37 1.369 0.756 0 1.369-0.613 1.369-1.369 0-0.757-0.613-1.37-1.369-1.37zm4.417 0c-0.756 0-1.37 0.613-1.37 1.37 0 0.756 0.614 1.369 1.37 1.369s1.37-0.613 1.37-1.369c0-0.757-0.614-1.37-1.37-1.37zm4.417 0c-0.757 0-1.37 0.613-1.37 1.37 0 0.756 0.613 1.369 1.37 1.369 0.756 0 1.369-0.613 1.369-1.369 0-0.757-0.613-1.37-1.369-1.37zm4.417 0c-0.757 0-1.37 0.613-1.37 1.37 0 0.756 0.613 1.369 1.37 1.369 0.756 0 1.37-0.613 1.37-1.369 0-0.757-0.614-1.37-1.37-1.37zm4.416 0c-0.756 0-1.37 0.613-1.37 1.37 0 0.756 0.614 1.369 1.37 1.369 0.757 0 1.37-0.613 1.37-1.369 0-0.757-0.613-1.37-1.37-1.37zm4.417 0c-0.756 0-1.369 0.613-1.369 1.37 0 0.756 0.613 1.369 1.369 1.369s1.369-0.613 1.369-1.369c0-0.757-0.613-1.37-1.369-1.37zm-28.973-4.086c-0.756 0-1.37 0.613-1.37 1.369 0 0.757 0.614 1.37 1.37 1.37s1.37-0.613 1.37-1.37c0-0.756-0.614-1.369-1.37-1.369zm4.476 0c-0.757 0-1.369 0.613-1.369 1.369 0 0.757 0.612 1.37 1.369 1.37 0.756 0 1.369-0.613 1.369-1.37 0-0.756-0.613-1.369-1.369-1.369zm4.476 0c-0.756 0-1.37 0.613-1.37 1.369 0 0.757 0.614 1.37 1.37 1.37s1.37-0.613 1.37-1.37c0-0.756-0.614-1.369-1.37-1.369zm4.476 0c-0.757 0-1.37 0.613-1.37 1.369 0 0.757 0.613 1.37 1.37 1.37 0.756 0 1.369-0.613 1.369-1.37 0-0.756-0.613-1.369-1.369-1.369zm4.476 0c-0.757 0-1.37 0.613-1.37 1.369 0 0.757 0.613 1.37 1.37 1.37 0.756 0 1.369-0.613 1.369-1.37 0-0.756-0.613-1.369-1.369-1.369zm4.476 0c-0.757 0-1.37 0.613-1.37 1.369 0 0.757 0.613 1.37 1.37 1.37 0.756 0 1.369-0.613 1.369-1.37 0-0.756-0.613-1.369-1.369-1.369zm4.475 0c-0.756 0-1.369 0.613-1.369 1.369 0 0.757 0.613 1.37 1.369 1.37 0.757 0 1.37-0.613 1.37-1.37 0-0.756-0.613-1.369-1.37-1.369zm-38.434 7.358 3.65-2.107v-4.216l-3.651-2.109-3.65 2.109v4.216zm0.021-6.383c1.185 0 2.146 0.961 2.146 2.147 0 1.185-0.961 2.146-2.146 2.146-1.186 0-2.147-0.961-2.147-2.146 0-1.186 0.961-2.147 2.147-2.147zm50.65 6.383 3.65-2.107v-4.216l-3.651-2.109-3.65 2.109v4.216z"/>
    <path d="m221.28 371.64c1.186 0 2.147 0.961 2.147 2.147 0 1.185-0.961 2.146-2.147 2.146-1.185 0-2.146-0.961-2.146-2.146 0-1.186 0.961-2.147 2.146-2.147zm156.09 33.579m-6.353-14.207v-3.544h2.96m0 3.544h-2.96m2.96 5.768v-5.768"/>
   </g>
   <path d="m367.82 405.86c0 0.183 0.079 1.253 1.254 1.253h7.464v-1.957h0.914v1.957h71.567v-1.957h0.913v1.957h7.361c0.47 0 1.305-0.261 1.305-1.383v-21.455c0-0.547 0-0.991-1.07-1.018-0.118-3e-3 -5.146-6e-3 -5.146-6e-3v5.24h-1.023v-2.004l-9.138-2e-3v1.98h-1.189v-5.217c-21.309-2e-3 -57.484 6e-3 -57.484 6e-3v4.973h-1.163v-1.746h-7.259v1.772h-1.106v-1.847s-4.888 1e-3 -4.999 1e-3c-0.782 0-1.123 0.6-1.201 1.227v18.226z" fill="#fff"/>
   <path d="m453.63 398.96c1.087 0 1.968 0.881 1.968 1.967 0 1.087-0.881 1.968-1.968 1.968-1.086 0-1.967-0.881-1.967-1.968 0-1.086 0.881-1.967 1.967-1.967z" fill="#fff"/>
   <path d="m458.66 405.39h-5.272c-2.407 0-4.357-1.951-4.357-4.357s1.95-4.357 4.357-4.357h5.118" fill="none"/>
   <path d="m372.94 398.96c-1.086 0-1.967 0.881-1.967 1.967 0 1.087 0.881 1.968 1.967 1.968 1.087 0 1.968-0.881 1.968-1.968 0-1.086-0.881-1.967-1.968-1.967z" fill="#fff"/>
   <path d="m367.91 405.39h5.273c2.406 0 4.357-1.951 4.357-4.357s-1.951-4.357-4.357-4.357h-5.118" fill="none"/>
  </g>
  <text transform="scale(.99863 1.0014)" x="152.84099" y="119.71725" fill="#231f20" font-family="Helvetica" font-size="1.0312px" font-weight="bold" stroke-width=".3523"><tspan x="152.84099 153.56488 154.3465 154.61253 155.33643 156.11804 156.72746 156.99352 157.25955 157.98343 158.65059 159.26001 159.9839 160.59332 161.20274 161.46878 162.19266 162.91653 163.58371 163.84975 164.80255 165.52643" y="119.71725">DO NOT INSTALL ANY WAN</tspan><tspan x="152.84099 153.67934 154.46095 155.18484 155.90872 156.51814 157.1853 157.45134 158.40414 158.67018 159.2796 160.00349 160.26953 160.93669 161.71832 162.67113 163.33829 164.06216 164.32822 165.10983" y="120.92464">MODULE WITH POWER ON</tspan></text>
  <g transform="matrix(.35228 0 0 -.35327 13.762 262.32)">
   <path d="m394.04 389.07v7e-3h-4.624c-0.789 0-1.429-0.64-1.429-1.43s0.64-1.43 1.429-1.43c0.025 0 0.048 6e-3 0.072 8e-3h4.414c0.025-2e-3 0.048-8e-3 0.072-8e-3 0.79 0 1.431 0.64 1.431 1.43 0 0.767-0.607 1.389-1.365 1.423zm52.409 8.039v6e-3h-4.623c-0.79 0-1.43-0.64-1.43-1.429 0-0.79 0.64-1.43 1.43-1.43 0.024 0 0.047 6e-3 0.072 7e-3h4.414c0.024-1e-3 0.047-7e-3 0.072-7e-3 0.79 0 1.43 0.64 1.43 1.43 0 0.767-0.606 1.388-1.365 1.423zm0 4.072v6e-3h-4.623c-0.79 0-1.43-0.64-1.43-1.429 0-0.79 0.64-1.43 1.43-1.43 0.024 0 0.047 6e-3 0.072 7e-3h4.414c0.024-1e-3 0.047-7e-3 0.072-7e-3 0.79 0 1.43 0.64 1.43 1.43 0 0.767-0.606 1.388-1.365 1.423zm0 4.071v7e-3h-4.623c-0.79 0-1.43-0.64-1.43-1.43 0-0.789 0.64-1.43 1.43-1.43 0.024 0 0.047 7e-3 0.072 8e-3h4.414c0.024-1e-3 0.047-8e-3 0.072-8e-3 0.79 0 1.43 0.641 1.43 1.43 0 0.767-0.606 1.389-1.365 1.423zm-61.909-8.143v6e-3h-4.624c-0.79 0-1.43-0.64-1.43-1.429 0-0.79 0.64-1.43 1.43-1.43 0.024 0 0.047 6e-3 0.072 7e-3h4.414c0.025-1e-3 0.047-7e-3 0.072-7e-3 0.79 0 1.43 0.64 1.43 1.43 0 0.767-0.606 1.388-1.364 1.423zm0 4.072v6e-3h-4.624c-0.79 0-1.43-0.64-1.43-1.429 0-0.79 0.64-1.43 1.43-1.43 0.024 0 0.047 6e-3 0.072 7e-3h4.414c0.025-1e-3 0.047-7e-3 0.072-7e-3 0.79 0 1.43 0.64 1.43 1.43 0 0.767-0.606 1.388-1.364 1.423zm0 4.071v7e-3h-4.624c-0.79 0-1.43-0.64-1.43-1.43 0-0.789 0.64-1.43 1.43-1.43 0.024 0 0.047 7e-3 0.072 8e-3h4.414c0.025-1e-3 0.047-8e-3 0.072-8e-3 0.79 0 1.43 0.641 1.43 1.43 0 0.767-0.606 1.389-1.364 1.423zm18.061-16.182v7e-3h-4.624c-0.79 0-1.43-0.64-1.43-1.43s0.64-1.43 1.43-1.43c0.025 0 0.048 6e-3 0.072 8e-3h4.414c0.025-2e-3 0.048-8e-3 0.073-8e-3 0.789 0 1.429 0.64 1.429 1.43 0 0.767-0.605 1.389-1.364 1.423zm8.561 0v7e-3h-4.624c-0.789 0-1.43-0.64-1.43-1.43s0.641-1.43 1.43-1.43c0.025 0 0.048 6e-3 0.072 8e-3h4.414c0.025-2e-3 0.048-8e-3 0.072-8e-3 0.79 0 1.43 0.64 1.43 1.43 0 0.767-0.606 1.389-1.364 1.423zm8.561 0v7e-3h-4.624c-0.79 0-1.43-0.64-1.43-1.43s0.64-1.43 1.43-1.43c0.025 0 0.048 6e-3 0.072 8e-3h4.414c0.024-2e-3 0.048-8e-3 0.072-8e-3 0.79 0 1.43 0.64 1.43 1.43 0 0.767-0.606 1.389-1.364 1.423zm8.561 0v7e-3h-4.624c-0.79 0-1.43-0.64-1.43-1.43s0.64-1.43 1.43-1.43c0.025 0 0.048 6e-3 0.072 8e-3h4.414c0.025-2e-3 0.048-8e-3 0.072-8e-3 0.79 0 1.43 0.64 1.43 1.43 0 0.767-0.606 1.389-1.364 1.423zm8.561 0v7e-3h-4.624c-0.79 0-1.43-0.64-1.43-1.43s0.64-1.43 1.43-1.43c0.024 0 0.048 6e-3 0.072 8e-3h4.414c0.024-2e-3 0.047-8e-3 0.072-8e-3 0.79 0 1.43 0.64 1.43 1.43 0 0.767-0.606 1.389-1.364 1.423z" fill="none" stroke="#000" stroke-width=".4"/>
  </g>
  <text transform="matrix(0 -1.0014 .99858 0 0 0)" x="-136.8299" y="192.19604" fill="#000000" font-family="Helvetica" font-size="2.1144px" stroke-width=".35228"><tspan x="-136.8299 -135.30331 -134.12772 -132.95213 -131.77654" y="192.19604" stroke-width=".35228">H7185</tspan></text>
  <g transform="matrix(.35228 0 0 -.35327 13.762 262.32)">
   <path d="m151.99 365.18h5.669v5.669h-5.669zm85.609 0h5.669v5.669h-5.669zm118.18 0h5.669v5.669h-5.669zm-133.07 24.333c1.358 0 2.458 1.811 2.458 4.045 0 2.235-1.1 4.046-2.458 4.046h-102.5c-1.357 0-2.457-1.811-2.457-4.046 0-2.234 1.1-4.045 2.457-4.045z" fill="none" stroke="#000" stroke-width=".4"/>
  </g>
  <text transform="scale(.99858 1.0014)" x="56.274643" y="123.89742" fill="#000000" font-family="Helvetica" font-size="2.1144px" stroke-width=".35228"><tspan x="56.274643 57.45023 58.62582 59.213619 60.623901 62.034187 63.444473 64.854759 65.442558" y="123.89742">10 BASE T</tspan><tspan x="70.090576 71.500862 72.792747 74.319321 75.729607 77.25618 78.782761 80.193047 81.484924 82.072723" y="123.8805">ETHERNET Ø</tspan><tspan x="87.144043 88.554329 90.080902" y="123.85047">AUI</tspan></text>
  <g transform="matrix(.35228 0 0 -.35327 13.762 262.32)">
   <path d="m154.71 373.66h-5.868v-11.363h5.993m-6.368 5.994h-1.748" fill="none" stroke="#000" stroke-width=".999"/>
  </g>
  <text transform="scale(.99862 1.0014)" x="66.598198" y="129.25883" fill="#000000" font-family="Helvetica" font-size="1.4095px" stroke-width=".35229"><tspan x="66.598198 67.381889 68.399567" y="129.25883" stroke-width=".35229">LNK</tspan></text>
  <g transform="matrix(.35228 0 0 -.35327 13.762 262.32)" stroke="#000">
   <path d="m213.38 405.56 1.179-1.842h0.631v-0.228h-0.775l-1.322 2.07z" fill="#fff" stroke-miterlimit="2.613" stroke-width=".4"/>
   <path d="m214.38 405.56-1.179-1.842h-0.608v-0.228h0.751l1.323 2.07z" fill="#fff" stroke-miterlimit="2.613" stroke-width=".4"/>
   <g fill="none">
    <path d="m212.16 402.8h3.512v3.54h-3.512zm-0.488-0.488 4.487 4.488" stroke-miterlimit="2.613" stroke-width=".4"/>
    <path d="m213.9 407.76c-1.731 0-3.134-1.403-3.134-3.134 0-1.732 1.403-3.135 3.134-3.135s3.134 1.403 3.134 3.135c0 1.731-1.403 3.134-3.134 3.134z" stroke-width=".4"/>
    <path d="m234.67 362.34h10.988v10.988h-10.988z" stroke-miterlimit="2.613" stroke-width=".999"/>
   </g>
   <g stroke-width=".4">
    <path d="m259.18 405.12 1.583-2.417h0.835v-0.316h-1.035l-1.754 2.733z" fill="#fff"/>
    <path d="m260.53 405.12-1.582-2.417h-0.836v-0.316h1.036l1.753 2.733z" fill="#fff"/>
    <path d="m257.54 401.47h4.691v4.691h-4.691z" fill="none"/>
   </g>
  </g>
  <text transform="scale(.99862 1.0014)" x="97.311295" y="129.68686" fill="#000000" font-family="Helvetica" font-size="1.4095px" stroke-width=".35229"><tspan x="97.311295 98.407906" y="129.68686">OK</tspan><tspan x="139.20567 140.30229" y="129.66995">OK</tspan></text>
  <g transform="matrix(.35228 0 0 -.35327 13.762 262.32)" stroke="#000">
   <path d="m353.06 362.31h10.988v10.988h-10.988z" fill="none" stroke-miterlimit="2.613" stroke-width=".999"/>
   <path d="m364.53 367.33h3.329" fill="none" stroke-width=".999"/>
   <g stroke-miterlimit="2.613" stroke-width=".4">
    <path d="m335.94 405.52 1.179-1.843h0.631v-0.228h-0.775l-1.323 2.071z" fill="#fff"/>
    <path d="m336.95 405.52-1.179-1.843h-0.607v-0.228h0.751l1.323 2.071z" fill="#fff"/>
    <path d="m334.73 402.76h3.512v3.54h-3.512zm-0.487-0.487 4.487 4.487" fill="none"/>
   </g>
   <path d="m336.46 407.72c-1.732 0-3.135-1.403-3.135-3.134s1.403-3.135 3.135-3.135c1.731 0 3.134 1.404 3.134 3.135s-1.403 3.134-3.134 3.134zm-50.776-18.43c0.707 0 1.28 1.811 1.28 4.045 0 2.235-0.573 4.046-1.28 4.046h-53.069c-0.707 0-1.28-1.811-1.28-4.046 0-2.234 0.573-4.045 1.28-4.045z" fill="none" stroke-width=".4"/>
  </g>
  <text transform="scale(.99858 1.0014)" x="97.468674" y="124.02635" fill="#000000" font-family="Helvetica" font-size="2.1144px" stroke-width=".35228"><tspan x="97.468674 98.056465 99.466751 100.99333 102.51991 103.1077 104.51799 106.04456 106.63236 107.22015 108.86514 109.45293 110.86321 111.45101" y="124.02635" stroke-width=".35228">ISDN BRI Ø S/T</tspan></text>
  <g transform="matrix(.35228 0 0 -.35327 13.762 262.32)">
   <path d="m355.21 389.34c0.511 0 0.925 1.811 0.925 4.045 0 2.235-0.414 4.046-0.925 4.046h-40.628c-0.511 0-0.925-1.811-0.925-4.046 0-2.234 0.414-4.045 0.925-4.045z" fill="none" stroke="#000" stroke-width=".4"/>
  </g>
  <text transform="scale(.99858 1.0014)" x="126.87875" y="123.93617" fill="#000000" font-family="Helvetica" font-size="2.1144px" stroke-width=".35228"><tspan x="126.87875 128.40533 130.05031 131.57689 132.98717 134.63216 135.80774" y="123.93617" stroke-width=".35228">CONSOLE</tspan></text>
  <g transform="matrix(.35228 0 0 -.35327 13.762 262.32)" stroke="#000">
   <g>
    <path d="m252.21 361.06h22.526v20.707h-22.526zm1.85 13.444v-0.045m18.639 0v0.045m-1.836 1.295v-7.3h-2.71v-1.102h-1.593v-1.1h-6.61v1.1h-1.123v1.102h-2.831v7.3m-1.993-9.87 2.104 2.554m0.792-2.554 1.737 2.372m-1.572-3.922 1.738 3.101m-0.331-3.193 1.324 3.102m-1.159-4.561 1.242 3.557m12.742-0.364-1.703 2.45m-0.78-2.45-1.819 2.28m1.902-4.014-2.234 3.284m0.083-3.375-1.323 3.01m1.24-4.47-1.323 3.466m4.219 8.302v5.291h-14.893v-5.291h-1.929v-8.605h2.862v-1.573h1.605v-1.573h9.442v1.573h2.277v1.573h2.453v8.605zm-14.067 2.546h13.311v2.679h-13.311zm11.059 0h0.615v2.522h-0.615zm-1.843 0h0.614v2.522h-0.614zm-1.843 0h0.615v2.522h-0.615zm-1.844 0h0.615v2.522h-0.615zm-1.843 0h0.615v2.522h-0.615zm-1.843 0h0.615v2.522h-0.615zm-2.508-2.763 1.325 1.095v1.642m13.569-2.554-1.489 1.641v0.913" fill="none" stroke-width=".4"/>
    <path d="m245.49 367.66h5.994" fill="#fff" stroke-width=".999"/>
    <path d="m115.65 357.67h370.14l0.245-8e-3c3.654 9.076 5.731 19.487 5.731 30.557 0 10.249-1.781 19.935-4.945 28.519h-3.261v1.613h-365.52v-1.613h-3.208c-3.165-8.584-4.945-18.27-4.945-28.519 0-11.07 2.076-21.481 5.73-30.557m-1.593-1.93h373.53l0.258 0.29c3.837 9.53 6.018 20.894 6.018 32.517 0 10.762-1.87 20.933-5.193 29.946l-0.832 1.693h-374.29l-0.777-1.693c-3.323-9.013-5.192-19.184-5.192-29.946 0-11.623 2.612-22.987 6.449-32.517m356.46 34.184h11.861v24.659h-11.861zm9.545 1.013c0.708 0 1.281 0.573 1.281 1.281v19.772c0 0.707-0.573 1.281-1.281 1.281h-7.098c-0.708 0-1.282-0.574-1.282-1.281v-19.772c0-0.708 0.574-1.281 1.282-1.281zm-7.672 11.525h8.22m-103.6-39.131h73.407v6.243h-73.407zm-8.246-0.914h8.25v8.25h-8.25z" fill="none" stroke-width=".4"/>
   </g>
   <g stroke-miterlimit="2.613" stroke-width=".4">
    <path d="m144.64 404.03 1.178-1.841h0.632v-0.228h-0.775l-1.323 2.069z" fill="#fff"/>
    <path d="m145.65 404.03-1.178-1.841h-0.608v-0.228h0.752l1.322 2.069z" fill="#fff"/>
    <path d="m143.43 401.27h3.512v3.54h-3.512zm-0.488-0.488 4.488 4.487" fill="none"/>
   </g>
   <path d="m145.17 406.23c-1.731 0-3.135-1.403-3.135-3.134s1.404-3.135 3.135-3.135 3.134 1.404 3.134 3.135-1.403 3.134-3.134 3.134z" fill="none" stroke-width=".4"/>
  </g>
  <text transform="scale(.99862 1.0014)" x="154.44676" y="130.88008" fill="#000000" font-family="Helvetica" font-size="1.4095px" stroke-width=".35229"><tspan x="154.44676 155.30798 156.09167 157.03181 157.97197 158.98965 159.3815 160.32164 161.33932 161.73117 162.74884 163.689 164.70667 169.33554 170.11923 170.90292 171.29478 172.23492 173.25261" y="130.88008" stroke-width=".35229">FLASH PC CARD14 VDC</tspan></text>
  <g transform="matrix(.35228 0 0 -.35327 13.762 262.32)">
   <g fill="#fff" stroke="#000" stroke-width=".4">
    <path d="m124.37 401.65c3.405 0 6.165 2.761 6.165 6.165 0 3.405-2.76 6.166-6.165 6.166s-6.166-2.761-6.166-6.166c0-3.404 2.761-6.165 6.166-6.165z"/>
    <path d="m124.37 403.43c2.424 0 4.389 1.965 4.389 4.389 0 2.425-1.965 4.39-4.389 4.39-2.425 0-4.39-1.965-4.39-4.39 0-2.424 1.965-4.389 4.39-4.389z"/>
    <path d="m122.55 406.19c-0.9 0-1.63 0.73-1.63 1.63 0 0.901 0.73 1.631 1.63 1.631h3.635c0.9 0 1.631-0.73 1.631-1.631 0-0.9-0.731-1.63-1.631-1.63z"/>
   </g>
   <g stroke="#000">
    <path d="m466.52 362.35c4.246 0 7.689 3.528 7.689 7.88 0 4.353-3.443 7.881-7.689 7.881s-7.689-3.528-7.689-7.881c0-4.352 3.443-7.88 7.689-7.88zm-3.378 9.104h1.359v2.718h-1.359zm-1.279-3.534h1.359v2.718h-1.359zm2.48-2.945h1.359v2.718h-1.359zm2.89 0.083h1.359v2.718h-1.359zm2.655 2.813h1.359v2.718h-1.359zm-1.038 3.583h1.359v2.718h-1.359zm-2.99-1.088h1.359v2.718h-1.359zm1.587 4.931h-2.236v1.693c-2.766-0.783-5.071-3.663-5.071-6.76 0-3.715 2.926-6.727 6.536-6.727 3.609 0 6.535 3.012 6.535 6.727 0 3.336-2.671 6.215-5.764 6.746zm8.435-6.961c0-1.41 1.143-2.553 2.554-2.553 1.41 0 2.553 1.143 2.553 2.553v5.662c0 1.411-1.143 2.554-2.553 2.554-1.411 0-2.554-1.143-2.554-2.554z" fill="none" stroke-width=".4"/>
    <path d="m476.88 373.99c0 0.415 0.163 0.806 0.456 1.1 0.294 0.293 0.684 0.455 1.1 0.455 0.415 0 0.805-0.162 1.099-0.455 0.294-0.294 0.455-0.685 0.455-1.1v-5.662c0-0.857-0.697-1.555-1.554-1.555-0.416 0-0.806 0.162-1.1 0.456-0.293 0.294-0.456 0.684-0.456 1.099z" fill="none" stroke-width=".25"/>
    <path d="m479.26 362.44v6.834h-1.498v-6.834" fill="#fff" stroke-width=".4"/>
    <path d="m479.26 380.59v-6.834h-1.498v6.834" fill="#fff" stroke-width=".4"/>
   </g>
   <path d="m486.66 376.26c1.741 0.81 3.541 1.648 4.95 1.648 1.742 0 3.379-0.678 4.61-1.909m1.06 1.059c-1.515 1.514-3.528 2.349-5.67 2.349-1.741 0-3.694-0.91-5.583-1.789m5.583-12.749c-1.409 0-3.209 0.838-4.95 1.649m-0.633-1.359c1.889-0.879 3.842-1.788 5.583-1.788" fill="none" stroke="#fff" stroke-width="2.497"/>
   <path d="m479.26 358.73v6.835c0 0.266 0.074 0.463 0.231 0.62 0.332 0.332 1.049 0.515 2.019 0.515 1.216 0 2.898-0.783 4.524-1.54 1.889-0.879 3.842-1.788 5.583-1.788 2.142 0 4.155 0.834 5.67 2.348 1.514 1.514 2.348 3.528 2.348 5.67 0 2.141-0.834 4.154-2.348 5.669-1.515 1.514-3.528 2.349-5.67 2.349-1.741 0-3.694-0.91-5.583-1.789-1.626-0.757-3.308-1.54-4.524-1.54-0.97 0-1.687 0.183-2.019 0.516-0.157 0.157-0.231 0.354-0.231 0.62v6.834h-1.498v-6.834c0-0.661 0.231-1.242 0.669-1.68 0.633-0.633 1.669-0.954 3.079-0.954 1.548 0 3.301 0.816 5.157 1.68 1.741 0.81 3.541 1.648 4.95 1.648 1.742 0 3.379-0.678 4.61-1.909 1.231-1.232 1.909-2.869 1.909-4.61 0-3.595-2.924-6.52-6.519-6.52-1.409 0-3.209 0.838-4.95 1.649-1.856 0.864-3.609 1.679-5.157 1.679-3.383 0-3.748-1.841-3.748-2.633v-6.835z" fill="#fff" stroke="#000" stroke-width=".4"/>
   <path d="m497.28 377.06c-1.097 1.097-2.458 1.83-3.938 2.155 0.308 3.07 0.48 6.185 0.48 9.323 0 10.762-1.87 20.932-5.193 29.945l-0.832 1.693h-374.29l-0.777-1.693c-3.323-9.013-5.192-19.183-5.192-29.945 0-11.623 2.612-22.987 6.449-32.517l0.036-0.291h373.53l0.258 0.291c0.962 2.389 1.82 4.895 2.565 7.49 0.423-0.085 0.838-0.139 1.241-0.139 2.142 0 4.155 0.834 5.67 2.348 1.514 1.515 2.348 3.529 2.348 5.67s-0.834 4.155-2.348 5.67z" fill="none" stroke="#000" stroke-width=".799"/>
  </g>
 </g>
 <metadata>
  <rdf:RDF>
   <cc:Work rdf:about="">
    <dc:creator>
     <cc:Agent>
      <dc:title>Cisco</dc:title>
     </cc:Agent>
    </dc:creator>
    <dc:rights>
     <cc:Agent>
      <dc:title>Cisco</dc:title>
     </cc:Agent>
    </dc:rights>
    <dc:title>Cisco 1603 R</dc:title>
    <dc:description>Made for: savalione.com</dc:description>
   </cc:Work>
  </rdf:RDF>
 </metadata>
</svg>
