<svg id="Layer_1" data-name="Layer 1" xmlns="http://www.w3.org/2000/svg" viewBox="0 0 863.7 1050.51"><defs><style>.cls-1{fill:#020204;}.cls-2{fill:#02030c;}.cls-3{fill:#000723;}.cls-4{fill:#474747;}.cls-5{fill:#c7d9d9;}.cls-6{fill:#000a2d;}.cls-7{fill:#b0a5e1;}.cls-8{fill:#b6c6c5;}.cls-9{fill:#363636;}.cls-10{fill:#0a1743;}.cls-11{fill:#9389bd;}.cls-12{fill:#030307;}.cls-13{fill:#998fc4;}.cls-14{fill:#424242;}.cls-15{fill:#010411;}.cls-16{fill:#454545;}.cls-17{fill:#464646;}.cls-18{fill:#858789;}.cls-19{fill:#444;}.cls-20{fill:#383838;}.cls-21{fill:#0a1643;}.cls-22{fill:#858788;}.cls-23{fill:#030404;}.cls-24{fill:#020202;}.cls-25{fill:#030304;}.cls-26{fill:#030305;}.cls-27{fill:#943a38;}.cls-28{fill:#912322;}.cls-29{fill:#eff0f0;}.cls-30{fill:#f7f7f7;}</style></defs><path class="cls-1" d="M726.69,1029.6c-1.54-5-1.51-10.35-2.2-15.51a165.07,165.07,0,0,0-4.8-22.71c-3.47-12.39-7.12-24.77-13.38-36.15-.35-.63-.59-1.33-1-1.92s-.75-1.13-1.49-.86-.6,1-.46,1.58c1.74,6.82,1.27,13.87,2.22,20.76a34.32,34.32,0,0,1,0,10.61c-1.33,3.71-.44,7.89-2.87,11.49-.86,1.28,2.15,3.24,1.06,5.61-4-3.68-6.15-8.57-8.79-13.09a224.7,224.7,0,0,0-28.39-38.9c-2-2.18-3.91-4.43-5.89-6.63-.65-.72-1.26-1.61-2.5-1.23.45,10.15-.75,20.19-2.1,30.24s-3.88,19.87-8.7,28.86a81.85,81.85,0,0,1-31.27,32.31c-9.57,5.62-19.37,10.74-30.41,13a212,212,0,0,1-40.5,3.34c-25.38-.77-49.74-5.82-72-18.68-12-6.92-24.29-13.53-33.58-24.13-6.27-7.16-12.11-14.71-14.11-24.43a32.4,32.4,0,0,1-.11-11.11c.16-1.16.61-2.06-.38-3-8.05-7.29-14.23-16.23-21.41-24.28-4.55-5.1-10.94-6.73-17.42-7.44-3.72-.41-5.76,3.35-8.88,4.64-.35.14,0,.85.06,1.32,2.23,17.1-3.89,26.35-19,32.75-10.35,4.38-21.66,5.57-32.82,7A230.2,230.2,0,0,1,288,984.46c-14.6-.48-29.23-1.87-43.19-6.25-7-2.21-12.14-8.16-16.89-13.87-6.84-8.2-8.8-18.27-10.47-28.38-.32-1.92-1.07-3.77-.88-5.82.13-1.4-.61-1.69-2.12-1.14-8.42,3.06-17.26,4.85-25.55,8.32-1.68.7-2.85,1.17-2.5,3.74s-1.64,5.31-3.8,6.3-1.93,2-2,3.56c-.64,15.27-7.95,26.65-20.5,34.94-9.38,6.19-19.08,11.57-30,14.61-12.36,3.42-24.87,5.25-37.64,4.22-14.58-1.17-28.52-4.84-41.17-12.57-15.05-9.2-24.83-22-27.34-39.81-2.66-18.81,1.32-36.43,8.84-53.66,7.36-16.86,18-31.17,31.27-43.71,6.71-6.34,14.75-10.93,22-16.5.19-.15.47-.16.66-.3,4-2.94,4-3.59,1.11-7.51a76.78,76.78,0,0,1-14.54-37.7,161.5,161.5,0,0,1-.45-26.1c.64-11.91,1.3-23.84,3.44-35.65a79.62,79.62,0,0,0,.76-18.3c-2.14,3.39-4.46,6.68-6.39,10.18-5.24,9.52-9.7,19.43-11.3,30.24A92.26,92.26,0,0,0,58.93,777a97.78,97.78,0,0,0,6.17,25.11,41,41,0,0,0,2.29,4.12c.44.87,1.12,1.76,0,2.57a1.76,1.76,0,0,1-2.6-.53c-11.62-14-20.54-29.46-23.37-47.61-1.59-10.13-1.37-20.47-.32-30.8a154.11,154.11,0,0,1,7.77-35.29c4.29-12.27,9.91-24,15.1-35.94,6-13.8,11.84-27.68,17.75-41.53C86.6,605.58,91,593.9,94.79,582a252.68,252.68,0,0,0,9.46-41.21c1.09-7.82,1.75-15.67,2.41-23.53a226.42,226.42,0,0,0,.43-23.86c-.25-11.72-1.38-23.39-2.78-35-1.65-13.73-4.16-27.29-6.92-40.82-1-4.88-2.71-9.63-3.58-14.52-.59-3.34-1.84-2.59-3.44-1.1-3.46,3.2-6.78,6.54-10.36,9.63-13,11.22-24.82,23.81-38.71,34a127.89,127.89,0,0,1-18.83,11.17C16.61,459.57,11,463,4.23,463.58,3,463.7,1.78,464.92,0,466c2.72-6.33,6.41-11.41,10-16.42,6.32-8.77,11.13-18.34,15.71-28a187.18,187.18,0,0,0,10.59-27.1c4.1-13.92,7.64-28,9.4-42.44,1.52-12.43,2.77-24.9,4.6-37.29,2.42-16.4,6.49-32.47,10.85-48.45a430.73,430.73,0,0,1,21.54-61.51c7.23-16.33,14.74-32.52,24.6-47.4A123.36,123.36,0,0,1,134,128.55c9.83-7.73,20.11-14.87,30.52-21.64,14.6-9.49,29.48-18.77,45.81-25.26,12.62-5,25.46-9.55,38.7-12.46A135.36,135.36,0,0,1,273.34,66a70.2,70.2,0,0,0,8.57-1.32c2.73.3,5.47.67,8.18-.19a105.53,105.53,0,0,1-24.65-19.81A177.54,177.54,0,0,1,238.83,8.32c-1-1.89-2-3.86-1.93-6.14,0-.7-.35-1.63.43-2s1.54.16,2.3.68c4.5,3,7.56,7.74,12.24,10.56-.55,1.92-2,1.38-3.33,1.24a3.75,3.75,0,0,1-1.43-.86c-.64-.55-1-1.4-2.08-1.91a4.87,4.87,0,0,0,1.8,4.81c.67.77,1.22,1.62,1.81,2.45,1.63,2.46,3.06,5.06,5.17,7.18,1.44,1.39,2.16,3.33,3.61,4.71a26.25,26.25,0,0,0,2.85,4.09,7.16,7.16,0,0,1,.62.83c3.6,4.18,6.78,8.76,11.39,12a7.55,7.55,0,0,1,1.7,1.22c3.84,5.54,9.5,8.8,15.13,12.09a7.46,7.46,0,0,1,.9.55c3.14,2.19,6.22,4.54,10.31,4.66A5.43,5.43,0,0,1,302,65c1.1.82,2.48,1.57,2,3.22-.52,1.94-2.26.88-3.45,1.22-3.42,1-7,.09-10.38,1a8.79,8.79,0,0,1-1.9.27c-3.79.06-7.58,0-11.36,0a10.94,10.94,0,0,0-4.59,1.09c-4,.36-7.9,1.27-11.85,1.92-4.68-.49-9,.95-13.31,2.47a7.37,7.37,0,0,1-1.12.29,12.93,12.93,0,0,0-5.36,1.26,7,7,0,0,1-1.64.34c-2,.16-4-.24-5.74,1.18-6.59,3-13.9,3.71-20.58,6.56-8.51,3.63-16.3,8.57-24.48,12.78a192.34,192.34,0,0,0-23.5,13.75,13,13,0,0,1-3,1.47,9.15,9.15,0,0,0-4.82,3.06,151.18,151.18,0,0,1-19.32,15.3A90.12,90.12,0,0,0,117.26,152a168.56,168.56,0,0,0-17.79,28.5c-.77,1.57-1.52,3.13-2.19,4.75-2.12,5.12-3.73,10.32-7.42,14.88S84.32,211,82.29,216.69C78.64,227,74.1,237,71.21,247.63a534.68,534.68,0,0,0-13.54,52.16,273.42,273.42,0,0,0-5,31.37c-1.78,19.94-4.81,39.65-10.41,58.91a225.09,225.09,0,0,1-29,63,18.88,18.88,0,0,0-1.64,2.5,1.16,1.16,0,0,0,0,1c3.47-.55,6.51-2.27,9.43-4.05A253.25,253.25,0,0,0,54.54,428c11.25-9.7,22.53-19.38,33.19-29.71,7.16-6.94,14.63-13.58,21.69-20.63,5.29-5.27,10.81-10.33,16.29-15.42,7.49-6.95,14.83-14.05,22.27-21.06,9.64-9.08,18.87-18.61,27.56-28.54,12.82-14.64,25.53-29.47,35.84-46.08C217,257.4,222.24,248,228,238.93c1.66-2.14,2.15-4.94,3.9-7,1.38-.87,2.49-2.58,4.52-1.49.64,1.87-.27,3.44-1.1,4.95-3.81,6.89-7.08,14.05-10.54,21.11-3.74,7.64-9.16,14.28-14.05,21.21a447.12,447.12,0,0,1-39.25,47.64c-13.74,14.7-27.94,28.9-43,42.18-3,2.65-4,5.52-3.46,9.57a213.61,213.61,0,0,0,21.22,69.55,155.58,155.58,0,0,0,22.68,32.95c11.23,12.8,23.93,24.14,38.95,32.51,14.12,7.87,28.77,14.53,44.52,18.47,10.77,2.7,21.45,5.83,32.52,7.27,4.37.57,8.73.23,13.09.38a9.26,9.26,0,0,1,4.05.57c1.28.67,2.65,1.82,1.74,3.2-1.59,2.4-.11,3.57,1.24,5.09,8.39,9.41,12.47,20.45,13.27,33,.51,7.86,1.14,15.75.49,23.56-1,12-.27,24-.6,35.93a29.5,29.5,0,0,0,.66,7.44,20.66,20.66,0,0,0,4.74,13.45A69.81,69.81,0,0,1,334.74,679c.95,2.36,2.17,2.56,4.32,1.52,21.8-10.51,40.76-24.68,55.95-43.64a93,93,0,0,0,10.5-17.27,7.62,7.62,0,0,0-.05-7.13A120.09,120.09,0,0,1,394,562.85c-.26-13.93,1.28-27.44,6.07-40.51a96.51,96.51,0,0,1,16.8-29c16.23-19.42,30.51-40.17,40.63-63.58a128.17,128.17,0,0,0,8.57-26.3c.48-2.47,1.76-3.45,4.17-3.11,1.62.33,2.24,1.53,2.59,3-2.78,8-5,16.13-8.15,24-5.53,14-13.14,26.93-20.84,39.76-4.67,7.79-10.58,14.8-16.32,21.89a272.78,272.78,0,0,0-17,23.72,50.11,50.11,0,0,0-7.73,20.5c-.38,2.86-1.58,5.51-2,8.38-.33,2.38.25,3.25,2.94,3.26,13,.05,25.74,1.79,37.43,7.64,10.29,5.15,20.62,11,26.46,21.33,7.24,12.77,13.23,26.25,9,41.68a4,4,0,0,0,1.28,4.31c3.29,3.41,6,7.43,5,12.34-1.31,6.77,2.43,11.07,6.33,15.51,7.5,8.51,14.64,17.35,22.13,25.85,8.92,10.12,17.31,20.68,25.9,31.06,6.51,7.86,13,15.74,19.28,23.86,5,6.53,10,13,15.09,19.55,11.49,14.84,21.46,30.68,31.23,46.67,5.85,9.59,11.42,19.36,16.57,29.32,4.34,8.4,8.79,16.75,12.6,25.45s8.14,16.87,11.41,25.65,6.56,17.26,7.78,26.52c.48,3.7,2,7.2,3.07,10.79A147.09,147.09,0,0,1,658.73,934c.66,4.77,4.44,7.42,7.39,10.52,9.93,10.39,19.4,21.13,26.93,33.44,2.31,3.78,5.43,7,6.92,11.23a2.39,2.39,0,0,0,1.56-2.62c.25-11.37.27-22.73-2.15-33.93-1-4.52-1-9.16-1.84-13.73-1.11-6.44-3.21-12.54-5.28-18.68-.62-1.82-2.23-4.33.19-5.22,2-.72,3.23,1.9,4,3.77a103,103,0,0,1,5.27,16.78c1.34,6.39,3,12.38,7.2,17.79a47.22,47.22,0,0,1,6.45,12.58c5.89,16.06,11.27,32.27,14,49.27a90.81,90.81,0,0,1,1.24,12.6c0,1.28-.59,3.16,1.08,3.59,1.47.38,2.23-1.32,3.09-2.35,3.22-3.82,6.07-7.92,9.1-11.89,7.33-9.63,15-19,21.91-29,5.73-8.29,11.61-16.45,16.53-25.36s10.58-17.81,15.27-27a335.61,335.61,0,0,0,15.25-33.35c3.26-8.64,5.64-17.55,9-26.14,1.73-4.42,1.77-9.34,4-13.6,2.45-5.65,3.36-11.64,4-17.7.45-3.26,1.26-6.45,1.79-9.69a70.69,70.69,0,0,0,2-20.49,38.85,38.85,0,0,1,.16-9.27,42.8,42.8,0,0,0,.07-21.82,17.93,17.93,0,0,1-.38-4.62c-.09-4.07.52-8.17-.42-12.21-1.46-4-1.7-8.32-2.26-12.53a8.62,8.62,0,0,0-1.24-6.68,5.26,5.26,0,0,1-.22-1.63c-1.72-6.21-3.39-12.43-5.71-18.45a4.91,4.91,0,0,1-.31-2.11c.7-2.51-1-4.11-2.22-5.92a2.9,2.9,0,0,1-.53-2,6.85,6.85,0,0,0-.55-4.24c-.55-1.47-.47-2.94,1.68-3.12,2,6.05,4.07,12.05,5.82,18.16,3.54,12.4,6.86,24.85,8.67,37.67.62,4.36.39,8.79,1.42,13.08.73,3,.14,6.08.33,9.11v15.58c-.17,2.81.37,5.64-.33,8.43-1.1,9.55-2.11,19.1-3.54,28.63a300,300,0,0,1-10.18,42.59,289.29,289.29,0,0,1-16.22,41.2,532.24,532.24,0,0,1-28.84,52c-6.18,9.83-13.35,19.08-20.4,28.36-7.7,10.15-16.87,19.06-24.29,29.43-1.42,2-4.1,2.67-5.15,5.06-.13.3-1.08.62-1.22.48-.81-.78-.25-1.87-.46-2.82C726.42,1034.67,727.42,1032.07,726.69,1029.6Z"/><path class="cls-2" d="M248.14,12c1.25-.16,2.63.44,3.73-.62,4.36,1.68,7.7,5,11.52,7.48A173,173,0,0,0,286,31.78c5.87,2.71,11.56,5.76,17.65,8.07,8.61,3.26,17.58,5.18,26.47,7.34q18.85,4.56,37.85,8.52c11.61,2.45,23.14,5.17,34.79,7.42,9.66,1.87,19.41,3.18,29.08,4.95,5.61,1,11.36,1.49,17,2.31,5.44.78,10.5,2.76,15.71,4.19,8.09,2.23,16,5.08,23.88,8.08,7.3,2.8,14.4,6.12,21.46,9.53,14.23,6.86,28.23,14.06,41.34,23a153.84,153.84,0,0,1,33,30.65c5.75,7.07,12.09,13.69,17.52,21a178.62,178.62,0,0,1,12,19.35c4.82,8.58,9.58,17.22,13.73,26.14a253.6,253.6,0,0,1,10.68,28.31c2.68,8.23,5.4,16.44,7.78,24.78,2.76,9.67,4.24,19.61,6.37,29.41,1.3,6,2.7,12,4.52,17.86,4.41,14.27,8,28.75,12,43.13,4.66,16.79,8.63,33.82,15.73,49.84,6.51,14.72,13.36,29.29,19.61,44.12,8.38,19.92,21,37.24,33.25,54.73a264,264,0,0,0,23,27.73c4.39,4.72,8.49,9.71,13,14.35,5.8,6,12.61,10.92,19.13,16.1,8.37,6.65,16.7,13.35,25.73,19.15a215.68,215.68,0,0,0,28,15.16c4,1.81,8.39,2.17,12.66,2.88,1,.16,1.83.73,2.77.78s1.86.45,2,1.3c.21,1.2-1,1.39-1.83,1.93-4.64,3.09-9.84,4.4-15.26,5.09a85.35,85.35,0,0,1-16.61,0c-6.23.19-12.26-1.34-18.86-2.46,2.88,3.82,5.43,7.19,8,10.57,6.45,8.6,11,18.23,15.43,28C841,659.36,845.6,674.38,850,689.45c1.81,6.25,2.41,12.87,3.24,19.37.28,2.17,1.33,4.25.87,6.52a71.9,71.9,0,0,1,0,15.1c-.34,2.9-.48,5.85-1.09,8.69a11.52,11.52,0,0,0,0,6.48c.41,1.14.46,2.32-.62,4.61-7.77-18-17.53-33.52-32.6-45.2q.93,2.57,1.85,5.13c-1.37.85-1.72,1.89-.7,3.28s1.36,2.78.09,4.21c-1.75-.9-2.08-2.68-2.72-4.3-1.33-3.38-1.47-7.08-3-10.42a3.31,3.31,0,0,1,.84-3.81c1.21-1.16,2.57-.58,3.84,0a12.55,12.55,0,0,1,3.1,2.1c9.62,8.26,18.36,17.27,24.61,28.45.4.71.62,1.67,2,1.93a53.45,53.45,0,0,0,0-11.45,21.21,21.21,0,0,1-.43-3.34c.74-9.94-2.42-19.19-4.66-28.67-3.64-15.38-9.28-30.05-15.6-44.41-6.71-15.23-15.05-29.62-28-40.69a5.69,5.69,0,0,1-1.27-1.37c-.7-1.2-1.53-2.59-.52-3.82,1.17-1.44,2.72-.73,4.09,0a7.55,7.55,0,0,1,2.41,1.75c3.33,4.11,7.71,4.69,12.72,4.76a176.44,176.44,0,0,1,18.66.88c4.42.54,8.53-1.22,12.9-1.59-1.55-1.91-3.76-2-5.65-2.63-11.79-3.94-21.68-11.25-31.94-17.89-14.4-9.31-27.25-20.61-40.14-31.82-6.88-6-12.5-13.25-18.58-20S741.15,517.68,736,510c-7-10.62-15.38-20.34-22-31.21-6.14-10.12-11-21-15.67-31.91-2.18-5.16-4.71-10.16-7-15.29-5.95-13.46-11.87-26.87-16.54-40.9-3.87-11.61-7.59-23.27-10.63-35.08-2.21-8.58-4.68-17.07-6.91-25.63a12,12,0,0,0-1.49-3.41c-3.48-5.54-4.68-11.71-5.35-18.12-.78-7.52-4-14.38-6.3-21.51-2.51-8-5.35-15.78-7.42-23.91-3.41-13.38-6.47-26.89-11.56-39.83-4.36-11.09-10-21.51-15.91-31.75-3.5-6-8.34-11.26-11.77-17.33-4.87-8.64-10.95-16.4-16.79-24.33-2.65-3.6-6.39-6.3-9.71-9.3a85.21,85.21,0,0,1-12.21-13.09c-3.17-4.37-8.14-7.3-12.59-10.47-8.85-6.32-18.85-10.68-28.25-16.07-7.38-4.22-15.35-7.2-22.91-11-7.29-3.71-15.31-6-23.07-8.78-10.75-3.83-21.9-6-33-8.29-5.42-1.13-11.09-1.54-16.66-2.23-9.15-1.15-18.23-2.6-27.25-4.54-10.85-2.33-21.82-4.13-32.47-7.31-2.31-.69-4.71-.55-7-1.08-17.5-4-35.13-7.57-52.23-13.13-7.59-2.47-14.65-6.3-21.81-9.86C276,31.78,270.39,29,265.1,25.74s-10.47-7.18-15.63-10.88C248.58,14.22,247.74,13.35,248.14,12Z"/><path class="cls-3" d="M830,608.94h16.61A40.42,40.42,0,0,1,830,608.94Z"/><path class="cls-2" d="M837.54,803.88V788.12c.21-.34.41-.32.61,0v15.74C838,804.21,837.75,804.22,837.54,803.88Z"/><path class="cls-3" d="M854.07,730.44v-15.1A34.2,34.2,0,0,1,854.07,730.44Z"/><path class="cls-3" d="M705.59,985.4V974.79A16.89,16.89,0,0,1,705.59,985.4Z"/><path class="cls-3" d="M838.15,788.13h-.61l0-9.06C839,782,838,785.1,838.15,788.13Z"/><path class="cls-3" d="M290.09,64.44c-2.7,1.44-5.43,1.09-8.18.19Z"/><path class="cls-3" d="M837.54,803.88h.61c-.1,2.78.85,5.63-.58,8.31Z"/><path class="cls-3" d="M726.69,1029.6c1.22,2.43.39,5,.58,7.53C725.91,1034.71,726.76,1032.12,726.69,1029.6Z"/><path class="cls-3" d="M248.14,12c1.55,3.14,4.88,4.34,7.47,6,4.79,3.06,9.07,6.83,14.2,9.43,10.36,5.25,20.65,10.64,31.31,15.23a63.8,63.8,0,0,0,12.45,3.79c8.22,1.69,16.17,4.46,24.42,6.08,10.66,2.09,21.3,4.29,31.87,6.82,9.71,2.33,19.53,4.08,29.29,6.14,13,2.74,26,4.41,39.17,5.86,4.15.45,8.16,2,12.28,2.87a203,203,0,0,1,40.78,13.16C499.7,91,507.77,95.13,516,98.87c8.73,4,16.51,9.64,25.43,13.24,2.86,1.16,5.28,3.57,7.72,5.63a99.48,99.48,0,0,0,9.55,7.45c.4.27,1.08.47,1.16.81,1.17,5,5.38,7.68,8.68,11,3.51,3.51,7.68,6.36,11.11,9.94,2.81,2.92,4.77,6.65,7.44,9.74,6,7,9.46,15.67,15.17,22.79,6.94,8.66,12.11,18.45,17.25,28.09a122.36,122.36,0,0,1,9.24,22.66c2.73,9.14,5.06,18.36,7.45,27.59,2.07,8,3.59,16.35,7.46,24,1.16,2.28,1.65,5.16,2.58,7.71a141.48,141.48,0,0,1,6.78,27.7c.37,2.52,1.7,4.55,2.69,6.8,3.92,8.86,6.43,18.21,8.63,27.67,1.94,8.28,4.43,16.44,6.64,24.67,2,7.37,5.24,14.29,7.15,21.74,1.76,6.88,5.49,13.25,8.17,19.91,2.52,6.3,5.77,12.25,8.26,18.58,2.07,5.26,4.88,10.24,7.19,15.43a242,242,0,0,0,12.73,25.54c3.22,5.39,7.09,10.38,10.75,15.5,5.67,8,11.2,16,17.2,23.76,4.34,5.58,9.36,10.63,14.05,15.95,1.37,1.55,2.64,3.2,4,4.78a187.73,187.73,0,0,0,23.59,22.74c10.52,8.75,21.17,17.37,32.88,24.57,4.41,2.72,8.75,5.56,13.08,8.39,6,3.91,12.64,6.18,19.4,8.23,1.14.34,2.91.25,2.68,1.87s-1.79,1.67-3.25,1.94c-12.21,2.25-24.4-.5-36.6,0-2.47.09-3.73-1.82-5.22-3.21a31.22,31.22,0,0,0-5-3.94,1.85,1.85,0,0,0-2.12,0c-.83.62-.08,1.36,0,2a2.7,2.7,0,0,0,1.1,1.88c9.94,7.17,16.17,17.52,22.22,27.66a140.5,140.5,0,0,1,11.18,24.21c2.21,6.11,4.13,12.35,7,18.24,1.33,2.73,1.68,5.94,2.43,9,2,7.91,3.94,15.83,5.91,23.75a6.92,6.92,0,0,1,.39,1.43q.43,12.51.81,25c0,1.11.09,2.48-1.4,2.66-1.32.16-1.27-1.21-1.75-2-6-10.23-13-19.59-22.46-27-1.83-1.44-3.36-3.28-5.24-4.66-.87-.65-2.24-1.54-3.39-.59a2.67,2.67,0,0,0-.5,3.43c2.26,4.67,2.21,10.09,4.77,14.67a1.51,1.51,0,0,0,.73,1.5c.63,2.05,1.67,3.94,2.25,6,0,.75,0,1.5,0,2.25,2.19,4.15,2.55,8.86,4,13.26.61,1.86,1.58,3.58,2,5.49,0,.5,0,1,0,1.49,1.07,1.86.85,4,1.49,6q1.13,6.38,2.26,12.74c1,4.21-.3,8.55.74,12.75,0,1.5,0,3,0,4.5a67.76,67.76,0,0,1,0,21.74q0,4.88,0,9.75c-.68,6.75-1,13.55-2.24,20.25.18,3.35-1.23,6.46-1.51,9.74-1.73,5.19-2.15,10.69-3.71,15.93a6.65,6.65,0,0,1-.78,2.07c-2.18,8.85-5.06,17.46-7.95,26.1a297.5,297.5,0,0,1-17.08,41.08c-4.84,9.51-9.73,19-15.24,28.08-3.58,5.94-6.08,12.62-10.33,18-7.63,9.64-14.15,20.07-22,29.57-6.41,7.79-12.27,16-18.39,24.05a21.43,21.43,0,0,1-1.75,1.94c-.79.81-1.6,1.75-2.89,1.12-1-.52-1.14-1.56-1.12-2.59.33-15.77-4.46-30.53-8.67-45.44a135,135,0,0,0-6.76-19.36c-2.27-5-4.14-10.52-8.1-14.79-3.44-3.68-4-8.67-4.94-13.34a120.74,120.74,0,0,0-6.15-19.8,4,4,0,0,0-2.33-2.3,1.37,1.37,0,0,0-.45,2c2.67,4.94,3.78,10.45,5.3,15.71,1.35,4.66,1.52,9.78,2.32,14.65a186,186,0,0,1,2.79,37.46c-.08,2.07.46,5.06-1.67,5.55-1.64.37-2.26-2.67-3.25-4.32-2.95-4.87-6.41-9.42-9.52-14.2-6-9.25-13.65-17.2-21-25.37a65,65,0,0,0-6.42-6.66,7.57,7.57,0,0,1-2.81-5.08c-1.36-11.21-5-21.9-7.41-32.85a188.25,188.25,0,0,0-12.15-36.48c-4.46-10-9.07-20-14-29.82-4-7.9-8.05-15.77-12.32-23.52-6.14-11.17-12.79-22-19.58-32.84C584.5,767,575.75,755,566.68,743.15c-7.68-10-15.83-19.63-23.5-29.61-8.25-10.74-17.25-20.85-25.6-31.5-4.94-6.3-10.21-12.48-15.69-18.4-3.09-3.33-5.89-6.94-8.84-10.4-3.13-3.66-6.25-7.33-9.45-10.93-1.31-1.47-2.16-3-1.83-5,1.12-7,.38-13.38-6-17.89a2,2,0,0,1-.64-2.62c3.3-9.76,1.88-19.16-1.82-28.59-3.48-8.9-7.32-17.4-15.06-23.51A89.87,89.87,0,0,0,441,553.47c-6.62-3.1-13.57-5.72-21-6.3-6-.47-12.06-2.36-18.2-.88-1.59.39-2-.52-2.19-1.76-.24-1.77.37-3.44.65-5.15,1.48-9.1,4-18,8.49-25.93,3.8-6.77,8.88-12.85,13.58-19.09,5.21-6.92,11-13.45,15.85-20.58,5.21-7.6,9.64-15.73,14.23-23.75a189.42,189.42,0,0,0,14.63-32c1.69-4.84,2.76-9.9,5.27-14.44,1.77-.45,2.23,1.26,3.22,2,4.21,3.21,9.87,2.76,12.57-1.14.78-1.13,1.47-2.31.88-3.8-1.11-.12-1.09.84-1.33,1.42-1.07,2.5-2.89,4.28-5.59,4.23a8.39,8.39,0,0,1-7.15-4.05c-1-1.66-1.18-3.28.67-4.56,3.43-2,6.9-3.89,10.31-5.91,2.53-.23,3.88,1.93,5.79,2.94,4.48,2.35,8.71.75,9.83-4.31-2.69,2.29-5,5.75-8.42,1.82,3.44-6.54,8.57-11.92,12.48-18.15a148.63,148.63,0,0,0,8.34-16.28c.43-.9.76-1.85,1.22-2.74,1.89-3.64,2.93-3.88,6.39-1.79,9.3,5.61,18.43,11.49,28,16.64a5,5,0,0,0,2.21.74c-5.55-3.92-10.78-7.46-16.07-10.9-8.78-5.72-17.9-10.9-26.81-16.4-6.57-4.05-13.73-7.09-20.57-10.69-8.84-4.65-17.89-8.93-27-12.87C448.68,314.37,436,309.14,423,304.57c-9-3.2-17.7-7.95-27.24-9.23-7.39-1-12.51-4.85-17.49-9.59a5.46,5.46,0,0,0-1.5-1.11,1.46,1.46,0,0,0-1,0c.16,1.22,1.17,1.76,2,2.43,7.84,6.76,13,15.36,17.15,24.7.72,1.65,1.37,3.53.5,5.43-2.35,1.25-3.43-.77-4.65-2-6.88-6.86-14.26-13.15-21.67-19.41-13.05-11-28.16-18.07-44.21-23.67A123.12,123.12,0,0,1,288,251.94c-12-9.65-24.19-19.15-35-30.19-2.89-2.95-5.38-6.22-8.16-9.25-.63-.69-1.1-1.94-2.23-.55-2.33,3.58-3.39,7.72-5,11.57a33.87,33.87,0,0,1-5.1,8.95c-1.52,2.1-1.64,5-3.74,6.76-1.8.4-2.5,2-3.34,3.29-13.86,21.87-28.95,42.82-46.69,61.72-4,4.28-7.69,8.84-11.54,13.25-3.65,4.19-8.47,7-12.3,10.91-10.22,10.45-20.71,20.65-31.76,30.17-10.49,9-20.73,18.35-31.14,27.46C77,399.11,61.16,411.18,46.67,424.77a21.33,21.33,0,0,1-5.16,3.69,2.71,2.71,0,0,1-2.86,0c-1.15-.82-.32-1.81,0-2.69,5.19-15.14,8.21-30.76,10.77-46.53,1.33-8.22,3.33-16.36,4.88-24.57,2.83-15,5.1-30,7.09-45.12,1-7.26,2.52-14.49,3.69-21.74,1.76-10.86,4.53-21.5,6.16-32.37.41-2.77.84-5.45-.8-8a172.19,172.19,0,0,1,6.09-18.26c3.31-8.25,6.3-16.63,9.8-24.79a25,25,0,0,1,4.9-7.62c2.47-2.56,3.3-6.76,4.64-10.32a99.13,99.13,0,0,1,10.31-19.67c4.64-7,8.64-14.43,14.68-20.47,6.76-6.76,13.27-13.76,21.65-18.64,5.3-3.09,9.3-7.82,14.16-11.47,1.46-1.07,3.09-1.87,4.51-3,7.1-4.23,14.14-8.56,21.32-12.67,7.92-4.54,16-8.8,24.07-13.06,5.21-2.76,10.86-5.33,17.09-5.9,3.26-.3,6.14-2.51,9.5-2.87,1.81-1.29,4.09-.67,6-1.49l1.49,0c1.61-1,3.7-.28,5.25-1.48h.75a58.86,58.86,0,0,1,13.5-3c4-.35,7.85-2.18,12-1.51,3.94-1.42,8.05-1,12.12-1.12,1.46,0,3,.4,4.38-.36h1.49c3.5-.88,7.1,0,10.63-.66,1.3-.25,3.23,1.06,3.63-1.19s-2-1.72-3-2.64h-1.5A56.9,56.9,0,0,1,289.38,60h0c-4.35-3-8.95-5.71-12.87-9.36a30.54,30.54,0,0,1-2.88-3.37,1.61,1.61,0,0,1-1.51-.76c-4.2-4-8.16-8.33-12-12.75h0c-1.08-1.45-1.88-3.08-3-4.5-2.36-.57-2.28-3.19-3.76-4.5a79.13,79.13,0,0,0-5.24-7.49,2.29,2.29,0,0,1-1.5-2.26c-1-1.5-2-3,.75-3.74Z"/><path class="cls-4" d="M86.11,999.63c-9.2-.64-17.65-3.81-26-7.55-11-4.92-20-11.78-26.23-22.39-6.78-11.57-7.59-24-6.64-36.85,1-13.28,5.35-25.58,11.07-37.37A119.19,119.19,0,0,1,67.54,857c7.55-6.54,16.42-11.33,23.71-18.18,2-1.85,2.73.22,3.45,1.16a92.32,92.32,0,0,0,11.55,12.72c2,1.82,4.11,5.33,6.89,3.79,1.27-.71-.58-5-1.45-7.44-2-5.52-4-10.95-4.86-16.82a8.08,8.08,0,0,1,2.6-7.9c19.61-19.41,37.7-40.22,55.41-61.34a154,154,0,0,0,11.06-14.44c2.26-3.44,6-5.78,8.8-9,11-12.59,22.23-25,33.31-37.47,14-15.78,27.76-31.73,44.32-45,5.25-4.2,10.41-8.51,15.43-13,1.72-1.52,2.59-1.12,3.95.27,10.81,11.09,23.33,20.21,35.13,30.17,4.92,4.15,10.21,8,14.28,13.1,1.44,1.82,3.27,3,5.85,2.27,8.61-2.25,17.48-2.36,26.28-3,4.35-.32,8.7-.58,13.06-.86a126.81,126.81,0,0,0,17-.74c10.29-1.19,20.71-1.83,30.63-5,9.77-3.08,19.55-6.1,29.42-8.79,6-1.64,12.07-3.17,18-5.24,4.66-1.63,8.63-.29,11.68,3.56C494.93,685,507,700,518.54,715.37c5.54,7.38,11.76,14.22,16.92,21.9,6.48,9.62,13.23,19.07,19.46,28.85a249.31,249.31,0,0,0,22,29.78,162.56,162.56,0,0,1,27.7,43.79,40.63,40.63,0,0,1,2.63,11.65c.76,7.27,3.88,13.64,6.66,20.17a28.19,28.19,0,0,1,2,6.39,51.54,51.54,0,0,1-.41,21.13c-1.87,7.54-5.13,9.47-12.76,7.81-15.37-3.34-30.71-6.68-46.51-7.71-6.17-.41-12.18.52-18.28.4a12.36,12.36,0,0,0-8.22,2.76c-1.35-.89-.34-2.31-1.1-3.18-1.82-11.46-5.55-22.37-9.87-33.07-4.63-11.47-9.7-22.76-14.3-34.24-4-10-9.09-19.57-13.8-29.26-5.65-11.6-12.17-22.78-18.37-34.11A137,137,0,0,0,460.52,750c-.68-.89-1.18-1.88-2.62-2.26,0,2.24.88,4.06,1.69,5.92a88.12,88.12,0,0,0,5.89,16.45c3.59,8,7.49,15.86,9.86,24.26,3.08,10.95,6.89,21.61,10.82,32.26,1.44,3.91.9,8.13.18,12.22C484,852.29,478.79,865,475.12,878c-2.06,7.34-3.63,14.77-5.3,22.18-1.25,5.58-3.3,6.36-7.91,2.77-7.12-5.54-13.23-12.11-19.17-18.89-7.4-8.44-11.44-18.31-13.05-29.29-.57-3.84-2.14-6.91-6.16-8.13-3-1.75-6.44-1.85-9.75-2.16-5.21-.5-10.45-.67-15.67-1a7,7,0,0,1-4.28-2.79,7,7,0,0,0-2.32-2.42c-5.41-2.68-6-7.35-5.76-12.67a51.17,51.17,0,0,0-4.85-25.5c-6.35-12.9-16.24-21.25-30.63-23.92-12-2.24-24.23-3.47-36.38-4.84-5.41-.61-11,.36-16.42.83-11.68,1-23.39,1.83-34.92,4.27-4.62,1-5.72-.19-5.08-5,1.4-10.39,2.61-20.81,4.29-31.17a23.37,23.37,0,0,0-.06-10c-2-.07-2.47,1.57-3,2.88-7.33,17.77-13.76,35.82-16.52,55-.26,1.79-.72,2.53-2.51,3a51.92,51.92,0,0,0-12.21,4.59c-7.66,4.15-11.88,10.36-12.26,19.16-.66,15.06-2.74,30-2.29,45.17.06,1.93-.5,3-2.46,3.42-15.87,3.41-30.35,10.18-44.21,18.4a8.93,8.93,0,0,1-6.06,1.39,2.47,2.47,0,0,0-1.48,0c-4.39,2.54-7.36.49-11.31-2-10.61-6.72-22.78-9-35.26-9.27-9.36-.18-18.74-.11-28.11.06-1,0-4.41-2-3,2.16.22.63-1.17.65-1.83.93-2.12.89-4.61.84-7.12,2.76a97.36,97.36,0,0,0,21.58-1,91,91,0,0,1,38.12,2.18c4.67,1.3,9.45,2.37,13.68,4.92,1.15.69,2.55,1.06,3.27,2.64-10.64,4.67-22.32,8.13-25.81,21.36-3.36,5.86-3.49,12.38-2.45,18.6,2.11,12.63,8.3,22.86,20,29a16.4,16.4,0,0,0,4.92,1.69c3.48.6,4.39,2.18,3.3,5.58a25.58,25.58,0,0,1-6.88,11c-8.13,7.74-17.61,13.47-27.44,18.68a50.59,50.59,0,0,1-17.61,6C93.23,999.09,89.71,999.82,86.11,999.63Z"/><path class="cls-5" d="M317.88,647.15a159.76,159.76,0,0,1-.88-29.89,342.45,342.45,0,0,0,.33-36.67c-.82-14.47-6.16-26.86-16.79-36.75.6-1.55,3.52-1.05,2.6-3.17-.75-1.74-2.69-1.47-4.31-1.53-38.71-1.42-74.33-12.79-105.51-35.7s-51-54.3-61.94-91.39a245.75,245.75,0,0,1-7.8-37.36,5.92,5.92,0,0,1,2.11-5.86c22.55-20.36,44.09-41.73,63.64-65a399,399,0,0,0,33.55-45.93c3.86-6.2,6.53-13.13,9.88-19.67,1.33-2.59,3.26-4.88,3.67-7.9.11-3.57,2.09-6.45,3.48-9.56,1.26-.89,1.5-4,4.13-1.95,6.54,8.82,13,17.73,20.7,25.58,15.44,15.64,33.07,28,53.68,36,13.25,5.16,26.61,10.09,39.43,16.31,16.84,8.17,31.62,18.6,39.86,36.25.45.95.44,3.57,2.89,2a15.36,15.36,0,0,0,.76-1.45c.84-2.61-.81-5.76,2-8.46,1.65,4,2.75,7.77,3.92,11.52A219,219,0,0,1,414.48,369c1.19,7.82.18,15.68-.37,23.53-.87,12.19-2,24.35-3.65,36.47a148.53,148.53,0,0,1-5.92,24.72c-3,9.66-6.69,19.1-9.77,28.72-5.63,17.58-12.94,34.65-16.85,52.74-2.63,12.16-2.62,24.58-1.66,36.92a336.56,336.56,0,0,0,5.28,36.67,12.53,12.53,0,0,1-1.24,8C374.11,629.62,367,642,357.84,653c-4.55,5.46-10.23,9.87-15.46,14.67-3.4,3.11-6.36,3.21-9.69.06C326.49,661.82,319.87,656.11,317.88,647.15Z"/><path class="cls-6" d="M117.5,787.06c-17.85,17.52-16.84,37.89-12.23,59.33-1.76-2-3.59-3.89-5.25-5.95-7.5-9.24-14.78-18.71-19.23-29.83-2.37-5.91-4.43-12.06-4.43-18.67,0-5.22-.9-10.47-.59-15.66.85-14.37,1-28.78,3.4-43.06,1.09-6.57,2.34-13.3,1.69-20-.5-5.15,2-9,4.42-13.07.84-1.4,2.45-2.49,2.07-5.3C74.51,707.94,65.82,723,59.48,739.23c-6.59,16.89-6.12,34.41-1.8,52-3-2.08-4-5.25-5.43-8.05-5.8-11.48-9.06-23.57-8.14-36.6a74.15,74.15,0,0,0,0-10.11c-.74-11.07,2.92-21.36,5.54-31.81a175.62,175.62,0,0,1,10-27.78c3.77-8.6,7-17.46,11-25.94,5.94-12.52,11.18-25.33,16.39-38.15,4.28-10.52,8.18-21.16,11.45-32.09,2.8-9.35,5-18.82,7.17-28.3,2.17-9.31,2.95-18.85,3.87-28.36,1.27-13.22.94-26.46.5-39.65a284.75,284.75,0,0,0-4.62-41.4c-1.6-8.79-3.07-17.59-5-26.32-1.21-5.58-2.52-11.14-4.05-16.64a4,4,0,0,1,1.23-4.64c3.06-2.75,6.11-5.5,9.08-8.35,3.19-3.06,6.25-6.26,9.42-9.35.87-.85,1.67-2.54,2.82-2.16,1.5.5,1.63,2.48,1.67,3.88.15,4.72,1.55,9.21,2.36,13.79,1.13,6.44,3.22,12.71,4.77,19.05,1.49,6.08,4.31,11.52,6.22,17.34,5.35,16.25,13.88,30.69,24.06,44.32a163.76,163.76,0,0,0,14.58,16.86A181.23,181.23,0,0,0,189.18,505a133.47,133.47,0,0,0,29.72,17.91c5.83,2.54,11.38,6,17.37,7.7,4.29,1.22,8.36,3.12,12.74,4.06,10.38,2.23,20.67,4.81,30.86,7.82,3.34,1,7,2,10.64.67a4.72,4.72,0,0,1,4.91,1,59.28,59.28,0,0,1,13.24,16.93A2.1,2.1,0,0,1,308,564c-6.75,6.16-12.46,13.5-20.63,18.05-.53.3-.91.94-1.46,1.15-5.87,2.17-8.76,6.66-10.69,12.42-1.63,4.89-5.77,8.55-7.72,13.43a19.91,19.91,0,0,0,.13,15.89,8.75,8.75,0,0,1,.89,5.3,22.14,22.14,0,0,0,.89,10c.85,3,.16,4.86-2.49,7.27-8.16,7.43-16.7,14.44-24.56,22.23-10.14,10-19.48,20.81-29,31.39-6.53,7.25-12.67,14.91-19.42,22-7,7.34-12.76,15.75-20.06,22.86-3.71,3.6-6.33,8.29-9.76,12.21-12.27,14-24.95,27.68-36.89,42-5.84,7-13.25,12.42-18.47,19.91-.38.55-.83,1.1-1.46.55a2.14,2.14,0,0,1-.79-1.56c1.12-8.64,2.49-17.2,8-24.4C116.05,792.64,117.9,790.76,117.5,787.06Z"/><path class="cls-4" d="M431.78,989.14c-3.52-6-3.21-12.55-1.87-18.84,3.92-18.42,11.91-34.77,25.65-48.06C465.14,913,477,909,489.68,906.65c16.51-3,32.86-1.6,49.23,1.7a216.23,216.23,0,0,1,32.58,9.18,194.77,194.77,0,0,1,29.67,13.72c4.43,2.55,9.1,4.66,13.66,7,11.5,11.22,21.27,23.32,23.38,40.16,1.13,9-1.74,16.71-7,23.35-4.74,6-9.22,12.39-15.28,17.39-5.87,4.84-12.11,8.54-19.62,10.36a321,321,0,0,1-43.8,7.71c-16.54,1.65-32.85-.09-48.91-4.25a141,141,0,0,1-26.11-9.07c-13.71-6.63-26.79-14.47-37.63-25.47C437,995.47,435.12,991.67,431.78,989.14Z"/><path class="cls-7" d="M265.87,978c-21-1.15-34.35-10.07-41-28.59-2.28-6.33-3-13.11-4-19.78-.4-2.65,1.27-2.52,2.8-2.82a66.26,66.26,0,0,0,21.6-8.13,17.77,17.77,0,0,0,6.39-6.21c2.68-4.64,1.8-8.68-2.63-11.66-1.2-.81-2.52-1.45-3.77-2.16a2.36,2.36,0,0,1,.31-.77c5.62-5.73,4-10.78-2.95-15.2-1.76-1.11-3-1.44-1.07-3.84,3-3.77,1.44-9-3.08-11.91-5.25-3.34-11.28-4-17.29-3.9-3.13,0-3.86-.79-3.9-3.89-.18-14.15,2.12-28.19,2.07-42.27,0-10.32,5.33-15.44,13.71-19,.91-.25,1.1.35,1.23,1-1.71,5.88-.58,8.68,5.31,11a110.58,110.58,0,0,0,33,8A234.71,234.71,0,0,0,327,815.58c7.23-1.16,13.94-3.76,20.73-6.25,2.44.14,3.36,1.95,4,3.87,2.34,6.72,1.16,13.26-1.21,19.71-.46,1.25-1.69,1.77-2.69,2.5-1.53,1.12-4.08,1-4.33,3.66,1.14,2,3.26,2.29,5.14,2.46,21.24,1.92,33.87,15.16,41.26,33.4,5.89,14.53,4.28,29.41-4.82,42.84-3.34,4.93-5.91,10.42-10.69,14.32-5.7,4.65-11.57,8.64-19.37,8.58-2.17,0-4.56.21-5.86,2.55-1.36,12.54-10.38,18.34-20.46,23.12-10.41,4.94-21.31,8.63-32.76,9.84C286,977.23,276,978.56,265.87,978Z"/><path class="cls-8" d="M317.88,647.15c2.68,6,7.07,10.85,11.22,15.87a34.07,34.07,0,0,0,6.15,5.39,4.11,4.11,0,0,0,4.28,0,7.92,7.92,0,0,0,1.88-1.23c10.08-9.26,20.23-18.4,26.83-30.79,2.13-4,4.48-8,7-11.8,4.87-7.35,5.94-14.9,4-23.69A188.41,188.41,0,0,1,375,549.05c.67-10.66,3.48-20.92,6.66-31.14,3.35-10.79,7.85-21.16,10.77-32.1,2-7.64,5.36-14.93,7.87-22.45,4.68-14,8.65-28.14,10.16-43,1.38-13.71,2.59-27.43,3.39-41.17.67-11.56-2.55-22.64-5.22-33.73-1.56-6.46-3.71-12.78-5.65-19.34-.94,2.84.73,5.83-1.07,8.37-2.13-2.75-.22-6.15-1.48-9a99.48,99.48,0,0,0-11.3-27.2c-.49-.83-1.28-1.78-.54-2.74s2-.76,3.14-.55c4.57.87,8.79,2.82,13.11,4.43,10.8,4,10.86,4,15.6,14.67,7.07,15.86,11.64,32.36,12.55,49.81.19,3.73.7,7.44.7,11.19a16.91,16.91,0,0,1-1.68,7.28c3.86-3.88,6.53-8.6,9.16-13.26a133.93,133.93,0,0,0,16-44.53c.55-3.41,1.21-3.8,4.51-2.6a120.56,120.56,0,0,1,11.61,5.2c12.45,6.07,24.94,12.09,36.91,19.1,4.38,2.56,4.76,3.41,3,8.09A98.7,98.7,0,0,1,494.41,386c-1.06,1.2-2.1,2.51-3.85,2.8-3.1-1.8-1.86-4.34-1.09-6.75.26-.81,1.09-1.35,1.4-2.18a1.21,1.21,0,0,0-.43-1.63c-.74-.41-1.06.23-1.44.72a12,12,0,0,0-2.24,8.05c.06,1.76.91,3.76-.85,5.26a37.08,37.08,0,0,1-9.78,5.9c-2.31.72-2.25-.91-1.93-2.22.62-2.55,1.62-5,4.05-6.43.72-.44,1.73-.93.85-2s-1.77-.62-2.5.28a15.92,15.92,0,0,0-4,9c-.14,1.89-.77,3.35-2.54,4.19-1.89-.12-2.9,0-3.25,2.63a86.26,86.26,0,0,1-6.84,22.6c-7.15,16.45-15.51,32.25-26.23,46.7-5.21,7-10.2,14.3-16,20.87-17,19.39-23.07,42.35-22.9,67.48a118.14,118.14,0,0,0,12.27,52.4c1.17,2.37.17,4.08-.68,6-6.2,13.82-15.87,25-26.93,35.08C367,666.27,352.69,675,337.46,682.38c-1.43.69-2.11.79-2.73-.93-3-8.46-8.32-15.59-13.65-22.68C318.49,655.31,318,651.28,317.88,647.15Z"/><path class="cls-9" d="M431.78,989.14c3.32-.43,4.11,2.68,5.41,4.43a62.76,62.76,0,0,0,13.68,13.12c9.15,6.64,18.62,13,29.14,17.2,12.44,4.94,25.17,9.07,38.55,11.13,6.41,1,12.85,1.49,19.24,1.83a112.72,112.72,0,0,0,21.52-1.39c9.81-1.36,19.59-3.13,29.27-5.21,8.46-1.81,17-3.54,23.91-9.56,3.74-3.28,7.73-6.36,10.57-10.41,3.32-4.77,7.5-8.8,10.47-13.93a27.23,27.23,0,0,0,3.71-16.79,52.44,52.44,0,0,0-10.17-26.37c-3.13-4.31-7-8.1-10.43-12.17a24.19,24.19,0,0,1-1.83-2.81l1.82.18c-2.42-6.11-24.69-17.55-55.22-28.34.27-1.44,1.47-1,2.36-1.16,2.7,1,5.57-.22,8.28.66,5.73,0,11.47,0,17.2-.06a12,12,0,0,0,2.94-1c-7.48-3.4-15-2.57-22.32-2.68a70.42,70.42,0,0,0-15.83,0c-7.7,1.67-14.8-1.9-22.24-2.53-2.49-.21-3.82-1.5-3.15-4.19.83.55.57,1.57.93,2.65,2.43-3.72,6.22-3,9.48-3.34,17.5-1.85,34.62,1.32,51.65,4.7a125.56,125.56,0,0,1,13.78,3.11c4.88,1.55,8.07-.44,9.56-5.46,2.5-8.4,2.21-16.88.45-25.32-.71-3.39-2.69-6.41-4.14-9.5-3.12-6.71-4-13.84-5.14-20.9a33.37,33.37,0,0,0-3-8.36c-2.79-6.07-5.85-12.05-9.21-17.82-4.75-8.14-11.18-15.07-17-22.44-4-5.06-8-10.09-12-15.16-6.91-8.78-11.87-18.83-18.89-27.57-4.6-5.73-7.89-12.52-12.45-18.43-3.55-4.62-7.61-8.88-10.88-13.63-4.67-6.78-9.91-13.07-14.9-19.57-8.38-10.94-16.83-21.82-25.48-32.55a7.87,7.87,0,0,0-9.19-2.43c-13.12,4.67-26.87,7.18-40,11.79s-26.63,6.44-40.37,7.53c-3,.23-6.2,0-9.22,1-2.23.72-3.93-2.12-6.31-1.3,6.81-1.22,13.62-2.48,20.45-3.67,15-2.6,29.69-6.07,43.81-11.86,6-2.45,12-4.65,17.67-7.9A66.51,66.51,0,0,0,477.78,645c1.61-2.1,2.38-1,3.35.18q8.47,9.92,16.88,19.91c7.51,8.94,15.07,17.85,22.47,26.88,10.63,13,21,26.09,31.72,39,8.63,10.46,16.89,21.18,24.6,32.33,7.91,11.45,15.36,23.19,22.67,35,7,11.41,12.93,23.42,19.43,35.11,4.32,7.75,7.61,16.07,11.54,24,3.5,7.12,6.62,14.39,9.67,21.71,5.21,12.47,7.57,25.72,10.5,38.79,2.27,10.15,4.45,20.42,3.93,31-.76,15.3-1.89,30.61-7.64,45a68.55,68.55,0,0,1-25.95,32c-2.26-.06-4.12-1.41-6.22-2-.75-.2-1.57-.25-2,.49-.57,1,.43,1.2,1,1.61,2,1.56,2.71,3.07-.28,4.23-1.17.45-1.55,1.55-2.35,2.28h0c-4.44-.17-7,3.49-10.48,5.2a53.35,53.35,0,0,1-10.43,3.86c-.88-1-.88-1,0-2.72-5.78,2.62-11.68,3.57-17.71,4-1.67.13-2.88,1.38-4.13,2.42l-.37,0h-.37a18.16,18.16,0,0,1-2.82-1.83,5.23,5.23,0,0,0-6.59-.58,9.22,9.22,0,0,1-8.24.88c-3.32-1.09-6.62-.78-10-.62-.63,0-1.36-.12-1.8.34-2.2,2.29-4.28,3.51-6.55,0-.49-.77-1.37-.06-1.94.4a3.71,3.71,0,0,1-4.15.62c-2.15-.92-4.44-.7-6.68-.83-.28-5.72-5.2-4.83-8.66-6.32.36,3,.36,3-1.17,4.18a12.25,12.25,0,0,1-5.94-1.56c-1.41-.51-2.56-1.14-1.34-2.89.47-.67,1.35-1.39.36-2.21a2.75,2.75,0,0,0-3.16-.12,12.41,12.41,0,0,1-8.62.74l-6.75-3c-1.21-1.26-3.2-2.09-2.27-4.48.1-.26-.43,0-.64.11-1.5.41-2.88,1.57-4.56.66-1.63-.07-2.58-1.34-3.8-2.14-.4-3.68-3.8-3.78-6-5.42a38.22,38.22,0,0,0-10.49-5.16l-2.19-1.48a3.83,3.83,0,0,0-3.06-3c-2.46-.61-3.69-2.69-5.23-4.39a16,16,0,0,0-5.3-5.35C437.18,997.68,433.39,994.12,431.78,989.14Z"/><path class="cls-9" d="M409.6,610.94c-2.06-4.92-4.07-8.79-5.3-12.9a139.18,139.18,0,0,1-5.08-22.87,156.45,156.45,0,0,1-1.12-22.38c0-1.85.89-2.31,2.54-2.35,16.69-.35,32.67,1.64,46.77,11.92,4.3,3.13,8.76,5.92,12.61,9.69,2.49,2.44,3,5,2.48,8.1-2.13,14.22-8.83,26.15-18.06,37A158.24,158.24,0,0,1,412,646.21a213.28,213.28,0,0,1-23.42,13.91c-7,3.47-14.15,6.52-21.38,9.65,3.34-2.55,6.84-4.94,10-7.7,13.64-11.84,26-24.64,33.14-41.76,3.25-7.78,5.94-15.52,5.81-24,0-1.27.47-3-1.7-3.08-2.39-.12-2.06,1.69-2.06,3.13A36,36,0,0,1,409.6,610.94Z"/><path class="cls-5" d="M226.6,879.61c-8.91.48-17.65,1.73-26,5.14-.57.24-1.17.43-1.73.71-1.44.73-3.52,1.49-2.87,3.35.77,2.18,2.92,1.39,4.52.71,9.23-3.95,19-5.44,28.89-5.46,4.56,0,9.22.64,12.89,3.92,2.83,2.54,2.81,4.31-.08,6.78a14.81,14.81,0,0,1-8.52,3.53c-9.27.82-18,3.85-27,6.09A7.87,7.87,0,0,0,205,905c-1.26.68-2.5,1.61-1.94,3.19s2.18,1.07,3.26.8c5.57-1.36,11.1-2.91,16.66-4.34,5.33-1.36,10.69-2.59,16.27-2.06.74.07,1.5,0,2.24.12,2.93.37,6.13,1,7.05,4s-1.66,5.1-3.79,6.78c-5.82,4.59-12.77,6.85-19.83,8.42-17.24,3.84-34.13,8.57-49.62,17.31-1.59.9-2.52.73-3.93-.3-7.3-5.36-11.05-13-14-21.22a41.22,41.22,0,0,1-2.24-21.35,4.42,4.42,0,0,1,1.91-3.37c16.42-10.9,33.63-20.12,52.94-24.82,7.58-1.84,15.13-1.13,22.63.67a9.52,9.52,0,0,1,2.09.81c2.2,1.11,4.34,2.46,3.67,5.35a5.77,5.77,0,0,1-5.4,4.49A61.3,61.3,0,0,1,226.6,879.61Z"/><path class="cls-10" d="M70.42,247.48c2.33.19,2.45,1.91,2.23,3.56-.74,5.4-1.34,10.84-2.49,16.16C68.67,274.1,67.3,281,66,288s-2.55,13.9-3.57,20.85c-1.08,7.46-2.34,14.93-3.14,22.44-1,9.52-3.21,18.81-4.88,28.2q-3.85,21.51-8.15,42.93A129.85,129.85,0,0,1,38.73,428c2.75.45,4.5-1.46,6.11-2.92,13.13-12,26.91-23.17,40.54-34.55,6.92-5.78,13.75-11.74,20.35-17.86,6.78-6.3,14-12.12,20.79-18.33,7.25-6.58,14.34-13.37,21.15-20.41,5.05-5.21,10.87-9.51,16.05-14.52a117.18,117.18,0,0,0,8.8-10.05c4.56-5.53,9.78-10.49,14.41-16,5.82-6.9,11.51-13.9,16.84-21.21,6.58-9,12.82-18.26,19-27.51,1.37-2,2.42-4.28,4.23-6,1.19-1.17,1.36-.44,1.6.58-4.53,7.55-9.33,15-13.53,22.7C207.77,275.44,198,287.19,188.41,299c-7.87,9.7-16.4,18.87-25,28-7.09,7.46-14.47,14.65-21.84,21.77-6.6,6.38-13.34,12.73-20.29,18.81-5.84,5.13-11.27,10.82-16.92,16.21-10.07,9.58-20,19.3-30.29,28.65-7.86,7.13-16,13.94-23.9,21.05-5.39,4.85-11.83,8.52-17.7,12.84a88.74,88.74,0,0,1-18.66,10.83c-1.12.46-2.62,1.83-3.74.41s.65-2.41,1.34-3.47c8.13-12.48,15.54-25.27,21.07-39.21a268.86,268.86,0,0,0,10.5-30.48,241.22,241.22,0,0,0,6.42-31.88c1.59-12.8,2.58-25.71,4.71-38.42A323.76,323.76,0,0,1,62,277.15C64.87,267.27,66.71,257.11,70.42,247.48Z"/><path class="cls-9" d="M261.7,730.38c3.34,5,.95,10.28.37,15.36-1.07,9.34-2.65,18.63-4,27.94-.27,1.83.69,2.62,2.44,2.2,9.3-2.23,18.82-3,28.29-4.12,3.82-.44,7.68-.51,11.51-.9,17.77-1.79,35.14,1.66,52.39,4.8,13.43,2.45,22.89,11.24,29,23.55,4.43,9,5.57,18.5,5.16,28.32-.17,3.93.08,7.27,4.5,9.2,2.93,1.28,3.95,5,6.76,6.8-5.62,0-11.25-.16-16.86.08-3.35.15-5.47-2.16-8.18-3.25-1.1-.44-.51-1.45-.5-2.29.08-7.85,2.26-15.56,1.5-23.45-.45-4.66-.22-9.65-4.29-13a37.66,37.66,0,0,0-15-7.35c-14.62-3.73-29.54-5.24-44.58-6.28-17.24-1.2-34.33,0-51.45,1.56-3.72.33-7.47.28-11.21.35-1.88,0-1.27-1.15-1.16-2.3.72-7.73,2.83-15.14,5.09-22.51,3.1-10.11,6.33-20.19,9.57-30.26A14.15,14.15,0,0,0,261.7,730.38Z"/><path class="cls-11" d="M347.88,835.41c4.25-7.34,5.54-14.95,2.45-23.1a4.4,4.4,0,0,0-2.52-2.47c.23-2.51,2.78-3,4.27-4.91a86.09,86.09,0,0,0-8.3,3.23c-11,4.91-22.77,6.17-34.61,7.32a241.38,241.38,0,0,1-30.3.58,102.41,102.41,0,0,1-35.78-7.29,20.27,20.27,0,0,1-5.9-3.21c-2.08-1.81-1.81-3.28.62-4.61,1.82-1,4.18-.67,6-2.4-1.84-1.66-3.6-.85-5.33-.48-1.51.34-2.91,1.64-4.61.59l-.86-.85c6.69-3.14,13.87-3.8,21.09-4,16.93-.51,33.81-2.84,50.77-1.87s34.07,2.38,50.57,7.27a14,14,0,0,1,1.44.42c11.5,4.7,12.67,6,12.7,17.6,0,6.76-.95,13.4-1.66,20.68A41.4,41.4,0,0,0,347.88,835.41Z"/><path class="cls-9" d="M423.53,846.67c3.93,0,6.26,1.87,6.78,6.16a62.35,62.35,0,0,0,7.3,22.77c2.42,4.4,6,8.25,9.45,12a135.52,135.52,0,0,0,15.4,14.71c4.14,3.24,5.17,2.83,6.25-2.28a351.58,351.58,0,0,1,11.7-42.22,156.73,156.73,0,0,0,5.33-20.89c1.41-7-1.62-13.4-4.13-19.79a124.5,124.5,0,0,1-5.8-18c-1.81-8-5.64-15.37-8.72-23-2.48-6.09-4.95-12.18-7.64-18.17-.74-1.64,0-2.88.14-4.3,6,10.45,12,20.83,17.82,31.37,7.75,14.13,14.71,28.67,21.47,43.3,2.93,6.32,1.84,12.71,1.73,19.11-.08,4.2-1.19,8.39-1.2,12.58,0,12.61-2.07,25-3.79,37.4-.4,2.92-1.26,4.6-4.86,5.11-7.63,1.07-15,3.44-22.38,5.81-1.22.39-2.42,1-3.52,0-5.75-5.16-12.63-8.91-17.91-14.67-9.75-10.65-16.34-23.08-20.68-36.74C425.21,853.57,426.17,849.64,423.53,846.67Z"/><path class="cls-4" d="M464.07,653.07c-9.43,9.28-21.85,12.82-33.75,17.06-17.88,6.36-36.62,9.33-55.33,12-8,1.15-16.14,1.16-24.22,1.72a25.35,25.35,0,0,1-6.11.07c4.6-2,9.14-4.17,13.82-5.94,27-10.21,52.1-23.85,74.09-42.74a154.94,154.94,0,0,0,17.25-18.14c1.3-2.18,2.59-1.8,4-.06,3.51,4.38,3.8,9.43,2.44,14.47-.87,3.22-.22,5,2.53,6.78C463.12,641.16,465.56,648.57,464.07,653.07Z"/><path class="cls-12" d="M490.36,388.45c10-9.47,16.61-21.08,21.49-33.78,2-5.24,1.87-5.21-3.07-8q-23.49-13.15-48.13-24a19,19,0,0,0-2.06-.66c-1.44,12.09-5.12,23.38-9.78,34.42a138.05,138.05,0,0,1-13.65,24.3,12.93,12.93,0,0,1-1,1.52c-1.13,1.25-2.39,3.39-4.1,2.23-1.27-.87.42-2.73,1.13-3.83,2.43-3.75,1.26-7.83,1.09-11.66a148.49,148.49,0,0,0-8.57-43.93c-2.44-6.76-5.9-13.05-8.5-19.72a2.41,2.41,0,0,0-1.54-1.49c-7.79-2.69-15.3-6.2-23.32-8.23a4.65,4.65,0,0,0-1.31.1c5.35,9.16,10.06,18.49,12.14,28.91a34.49,34.49,0,0,1,0,10.54c-.25.84.61,2.16-.92,2.45-1.24.23-1.69-.87-2.18-1.7-2.61-4.36-4.3-9.19-7.56-13.23a90,90,0,0,0-15.18-14.53c-13.12-10.15-28.53-15.62-43.66-21.57-19.46-7.66-38.48-15.84-54.73-29.53C265.34,247.32,255.68,236,246.7,224c-1.15-1.54-2.92-2.76-3.11-4.93-.57-1-1.19-1.77-2.08-.27-.45.75-.35,1.71-.87,2.44-1.41,3-2,6.42-4.21,9.09-1.61.23-2.71,1.41-4,2.16q4.16-9.69,8.3-19.4a2.83,2.83,0,0,1,1.44-1.58c2,.39,2.7,2.08,3.7,3.48,8.36,11.67,16.86,23.24,27.65,32.85,9,8.07,18.47,15.87,29.47,21,8.65,4,17.37,8,26.22,11.72,5.17,2.15,10.37,4.46,15.64,6.12a102.64,102.64,0,0,1,24.47,11.82C379.4,305,389,312.14,395.56,322.57c.49.51.62,1.37,1.49,1.55.35-1.26-.46-2.07-1.09-3-.67-1.22-1.9-2.33-.87-3.93-2.57-12.13-9.5-21.58-18.38-29.81-.54-.51-1.24-.84-1.78-1.35a2,2,0,0,1-.51-2.71c.79-1.14,1.93-.44,2.63.13,3,2.51,6,5.13,8.93,7.74,1,.9,1.86,1.94,3.44,2,8.34.33,15.86,3.74,23.56,6.41,6.27,2.18,12.46,4.6,18.63,7.06,8,3.21,16,6.7,24,9.83,11,4.26,21.44,9.53,31.93,14.77,9.17,4.58,18.39,9.08,27.16,14.5,12.11,7.48,24.33,14.78,36,23a10.38,10.38,0,0,1,1.8,1.31c.51.55,1.73,1,.79,2.08-.67.76-1.3.09-2-.26-3.69-2-7.49-3.79-11.07-5.95-6.81-4.1-13.52-8.35-20.21-12.65-2-1.28-2.72-.68-3.58,1.25-3.6,8-7,16.15-12.24,23.27-3.58,4.84-6.72,10-10.91,14.4C490.69,392.27,489.16,391.44,490.36,388.45Z"/><path class="cls-9" d="M310.89,566.3c1,5.2,2,9.25,2.42,13.37,1.2,13,.66,26.05-.51,39.09-.87,9.73.21,19.51,1,30.17-6.81-9.23-14.39-16.75-20.37-25.64-3.82-5.68-7.24-11.56-10.6-17.5a17.89,17.89,0,0,1-2.48-11.09c.29-2.59,1.33-4.51,4.18-5.46,4.46-1.48,7.46-5.25,11.07-8C301,577.06,306.26,572.73,310.89,566.3Z"/><path class="cls-9" d="M86.11,999.63c9.55-2.28,19.49-2.89,28.34-8,9.87-5.74,19.71-11.39,27.89-19.52,2.91-2.9,4.41-6.49,5.75-10.2.75-2.08.09-3.38-2.33-3.53-5.68-.35-10.12-3.55-13.84-7.28-9.21-9.23-14-20.43-12.69-33.69.32-3.32,0-7.13,3.65-9.28-.9,7.31-1.1,14.53.66,21.82,1.89,7.86,5.16,14.66,11.46,20,3.48,2.93,7.51,3.81,11.73,3.94,9.46.28,19,.64,27.87-3.59,1.74-.83,2.42-.19,2.33,1.75a34.63,34.63,0,0,1-5.3,16.5c-7.24,12-18.86,18.48-31,24A97.35,97.35,0,0,1,98.22,1001,46.4,46.4,0,0,1,86.11,999.63Z"/><path class="cls-13" d="M265.87,978c11.36-1,22.73-2,34.09-3.19a43.71,43.71,0,0,0,7.83-1.85c7.78-2.31,15.81-4.39,22.82-8.44,7.83-4.53,16.49-9,17.1-20a6.46,6.46,0,0,1,.88-2c.8.24.94,1.19,1.65,1.53a29.45,29.45,0,0,0,20.83.73c2.37-.78,2.39.27,2.57,2,1.16,11-5.68,21.42-16.43,25.24-13.9,4.92-28.31,7-42.91,7.8a276.49,276.49,0,0,1-47.44-1.38A3.53,3.53,0,0,1,265.87,978Z"/><path class="cls-13" d="M350.24,944.06a1.43,1.43,0,0,1-1.65-1.53,5.83,5.83,0,0,1,5.37-2.85c13.06-.16,21.19-7.84,27.55-18,2.48-4,5.34-7.69,7.06-12.18,4.94-12.93,4.81-25.59-1.23-38.11s-15.06-21.7-27.89-26.82a27.79,27.79,0,0,0-10.35-1.9,5.47,5.47,0,0,1-5.55-3.56c1.15,1.43,2.69.95,4.15.83,19.36-1.63,33.82,6.86,43.36,22.94,11.19,18.84,11.84,38.68,1.15,58.12-7.91,14.37-20.23,22-37,21.92C353.65,942.87,351.31,941.31,350.24,944.06Z"/><path class="cls-4" d="M276.78,601.77c6.33,14.51,15.11,27.08,25.16,38.85a291.89,291.89,0,0,1,28.87,40c-4.81-2.24-7.36-6.06-10.75-8.87-13.32-11-27.42-21.21-39.14-34.11a68.5,68.5,0,0,1-8.9-12.83c-4.11-7.29-1.77-13.66,2.35-19.88C275.05,603.94,275.85,603,276.78,601.77Z"/><path class="cls-14" d="M384.32,847.1c8.67-.85,17.08,0,25.48.62,3.2.22,6.47,0,9.65,1,1.68.49,2.47,1.17,2.72,3,1.56,11.47,6.53,21.61,12.62,31.26,1.85,2.92,3.44,6,6.65,9.14a28.45,28.45,0,0,1-11.31-5.94,88.06,88.06,0,0,0-28-16c-1.52-.53-2.89-1.2-3.49-2.58C395.24,859.78,391,852.7,384.32,847.1Z"/><path class="cls-9" d="M464.07,653.07c-1-5.93-1.19-12.2-7.92-15.27-2.38-1.08-1.88-3.27-1.17-5.51,1.67-5.3,1.55-10.37-2.23-15-1.3-1.61-1.94-.57-2.93-.1,2.2-4,5.49-7.26,7.65-11.35,3.27-6.19,6.35-12.38,7.53-19.37a29,29,0,0,1,1.18-3.76,59.13,59.13,0,0,1,6.76,20.64,24.81,24.81,0,0,1-2.44,13.79c-.75,1.58-1.58,3.12-2.35,4.69a1.84,1.84,0,0,0,.17,2.1,1.3,1.3,0,0,0,2,.19c3.13-2.27,4.51.23,5.86,2.3,3.08,4.77,2,9.61-.6,14A45.28,45.28,0,0,1,464.07,653.07Z"/><path class="cls-8" d="M401.49,875.12a6.24,6.24,0,0,1,1.61.16,89.18,89.18,0,0,1,25.17,15.18c1.12,1,1.54,1.57.13,2.86-13.36,12.24-20.6,27.85-24.74,45.57a42,42,0,0,0-14.7-5.58C403.33,916,407,896.6,401.49,875.12Z"/><path class="cls-15" d="M500,896.87c.84-7,1.77-14.16,2.53-21.31.55-5.18,1.35-10.39,1.18-15.56s1.85-10.12.46-15.23a1.05,1.05,0,0,1,.42-.88,1,1,0,0,1,1.31.32,8.23,8.23,0,0,1,1.46,2.16c4.84,13.77,11.36,26.9,15.42,41,1,3.54.91,7.28,2.61,10.73,1.06,2.16.31,4.57-3.17,4-6.56-1-13.17-.72-19.77-.75C498.92,901.34,500.51,898.64,500,896.87Z"/><path class="cls-16" d="M422.58,907.64a8.72,8.72,0,0,1,1.69.59c7.24,4.38,14.86,8.15,21,14.25,3.34,3.34-.52,4.75-1.49,6.85s-2.53,2-4.54.75c-6.8-4.36-13-9.71-20.52-12.88-1.74-.73-1.91-1.74-1-3.19,1.07-1.68,2.12-3.38,3.21-5C421.3,908.37,421.51,907.51,422.58,907.64Z"/><path class="cls-16" d="M454.31,917a10.7,10.7,0,0,1-3.76,4.14c-1.27,1-2-.53-2.73-1.21-6.37-5.63-13.66-9.86-21-14.07-.91-.52-3.08-.54-1.89-2.31s2.42-5.36,5-4c8.41,4.51,16.63,9.45,23.5,16.24A11.11,11.11,0,0,1,454.31,917Z"/><path class="cls-16" d="M434.66,943.77c.07,3.89-3.13,5.8-6.86,4-5.87-2.81-10.95-6.86-16.36-10.38-2.37-1.54-2.51-5.6-.58-7.54.75-.75,1.34-.38,2,0,6.73,4,14.28,6.59,20.41,11.67C433.9,942.07,434.72,942.54,434.66,943.77Z"/><path class="cls-17" d="M128.64,930.89a2.59,2.59,0,0,1-.66-.25c-1.94-1.4-1.62-7.78.49-9,5.39-3.18,11.41-4.93,17.08-7.48a25.48,25.48,0,0,0,2.72-1.2c1.34-.8,2.81-1.91,3.64.25.63,1.66,2.35,3.79-.31,5.26-7.4,4.1-14.85,8.11-22.29,12.15A6.8,6.8,0,0,1,128.64,930.89Z"/><path class="cls-14" d="M134.41,943.5c8-3.33,15.23-7.86,22.72-11.92,3.29-1.79,2.89,2.38,4.46,3.5,1.35.95.94,1.91-.3,2.95-5.41,4.51-12,6.86-18,10.33C141.15,949.57,138.33,947.77,134.41,943.5Z"/><path class="cls-17" d="M156.64,926.61a1.62,1.62,0,0,1-.93,1.84c-6.9,3.66-13.23,8.34-20.86,10.69-3.15,1-3.87-.59-5-2.71-1.36-2.61.77-2.87,2.19-3.64,6.12-3.31,12.25-6.58,18.37-9.88C154.14,920.91,156.46,922.29,156.64,926.61Z"/><path class="cls-16" d="M439.28,935.61a3,3,0,0,1-4.48,2.49A215.46,215.46,0,0,0,414.07,927c-3.95-1.83,0-3.85.09-5.73s1.47-2.24,3.26-1.26A147.05,147.05,0,0,1,438,933.49C438.65,934,439.38,934.58,439.28,935.61Z"/><path class="cls-17" d="M150.68,905.62c.45,2-.54,2.85-2.7,3.7-6.48,2.56-12.87,5.39-19.14,8.43-2.71,1.31-2.94.37-2.9-1.94.07-3.4,1.1-5.76,4.74-7,5.4-1.86,10.5-4.54,16-6.26C150.76,901.25,150.73,901.16,150.68,905.62Z"/><path class="cls-9" d="M407.81,941.83c.07-1.41.09-2.66,2.3-1.27,6.28,4,12.25,8.46,18.86,12,2.73,1.44.59,3.52.1,5.21-.59,2-2,1.12-3.29.61-7.19-2.84-12.44-8.05-17.12-14A2.91,2.91,0,0,1,407.81,941.83Z"/><path class="cls-18" d="M470.05,401.08a9.1,9.1,0,0,0,1.61-4.76c0-4.08,3-7,4.83-10.3.47-.85,1.63-.63,2.39-.19a3.87,3.87,0,0,1,2.26,2.81c.13,1.26-1,1.12-1.78,1.42-3.29,1.23-3.76,4.36-4.56,7.18-.22.76.76.8,1.33,1-.75.79-1.6,1.43-.92,2.83a7.44,7.44,0,0,0,6.87,4.32c2.67.09,4.21-1.7,5-4.19.37-1.19.38-3.18,2.42-2.4,1.64.64,1.09,2.33.77,3.62-1.61,6.53-9.92,8.6-15.36,3.82-.92-.8-1.71-1.76-2.57-2.64S471.94,400.88,470.05,401.08Z"/><path class="cls-19" d="M436.1,893.83c1.53,1,3,2.07,4.66,2.95a80.66,80.66,0,0,1,18.55,13.69c.66.65,2.3,1.27.86,2.62-1.1,1-2.12,1.87-3.79.39-6.64-5.87-14.2-10.44-21.63-15.21-.86-.55-3-.47-2.21-2.3C433.08,894.7,434.69,894.39,436.1,893.83Z"/><path class="cls-17" d="M128.16,906.37c3.6-8,2.92-7.64,23.8-16.84-.25,2.3-.41,4.46-.75,6.59a2.52,2.52,0,0,1-2,2.32C142.1,900.28,135.46,903.34,128.16,906.37Z"/><path class="cls-9" d="M525.54,1044.6a4.06,4.06,0,0,0,3.79-1.71c1.34-1.55,3.18-2.71,3.76.75.13.78.28,1.45,1.21,1.6a1.7,1.7,0,0,0,2-1.24c.66-2,2.23-1.48,3.78-1.79,4.68-.94,9,.52,13.41,1.37a3.3,3.3,0,0,0,2.7-.73c4.76-3.17,8.14-2.39,11.37,2.52a8.11,8.11,0,0,1-4,.71c-9.31,0-18.62.12-27.92-.09A32.45,32.45,0,0,1,525.54,1044.6Z"/><path class="cls-20" d="M149,949.56c5.07-3,10-6,14.74-9.36,2.75-1.94,4.12,1.06,5.54,2.29,1.81,1.56-.84,2-1.55,2.85C162.58,951.16,155.77,950.29,149,949.56Z"/><path class="cls-9" d="M568.33,1045.35c1-2.54,2.47-3.36,5.5-3.57,4-.27,8.43-.1,12.15-2.46,1.82-1.15,4.11-.54,5.8-1.85,1.75,2.52-3.55,1.71-1.63,4.16C583.12,1044.32,575.79,1045.19,568.33,1045.35Z"/><path class="cls-9" d="M509,1041.63c1.9-2,.09-3.23-1.5-4.73,3.33-1.23,5.59,1.34,8,1.27,2.56-.06,2.93,1.27,3.75,2.81.56,1.08,0,1.9-.39,2.79A27.92,27.92,0,0,1,509,1041.63Z"/><path class="cls-9" d="M455.78,1016.11a13.63,13.63,0,0,1,8,2.21c2.08,1.2,3.57,3.19,6.47,3.38,2.52.18,2.53,2.81,2,5A96.07,96.07,0,0,1,455.78,1016.11Z"/><path class="cls-9" d="M490.33,1035.59c3-.94,6.3,0,9.17-2.06,1.28-.91,3.29-.08,4.38,1.2,1.36,1.6-.49,2-1.36,2.7-1.56,1.26.07,1.83.57,2.64C498.46,1039.66,494.53,1037.23,490.33,1035.59Z"/><path class="cls-9" d="M611.07,1032.56c.1-1.28-.38-2.9,1.78-3,.86,0,1.86,0,1.81-1.31,0-1-.79-1.48-1.72-1.64-1.23-.22-2.71-.19-1.89-2.18.68-1.66,2.5-2.4,3.59-1.76,2.06,1.2,4.72,1.18,6.31,3.21a2.73,2.73,0,0,1-2.34,1.53c-.85-.41-.82.09-.72.68A23.45,23.45,0,0,1,611.07,1032.56Z"/><path class="cls-2" d="M834.54,805.37V783.63a6.34,6.34,0,0,1,1.46,4.78C835.44,794.06,837.53,799.94,834.54,805.37Z"/><path class="cls-2" d="M273.63,47.27c4.57,5.09,11,7.9,15.75,12.73C283.14,57,277,53.86,273.63,47.27Z"/><path class="cls-2" d="M832.29,835.37a93.16,93.16,0,0,1,2.24-20.25C834.73,822,834.69,828.8,832.29,835.37Z"/><path class="cls-2" d="M830,746.14c-3.13-2.06-2.7-5.78-3.47-8.69A81.75,81.75,0,0,1,824,727.39c3,3.56,3.05,8.21,4.26,12.37C828.9,741.83,831.66,743.48,830,746.14Z"/><path class="cls-2" d="M826.29,863.11c1.34-6,1.46-12.38,4.49-18-.23,5.61-1.94,10.94-3.07,16.37A2.31,2.31,0,0,1,826.29,863.11Z"/><path class="cls-2" d="M301.38,65.26h1.11c1.67,0,3.14.77,3.16,2.42,0,2-1.87,2-3.32,2-4.06.07-8.13,0-12.2,0,3.58-1.59,7.53-.17,11.18-1.37.65-.21,1.67,1.05,2.14-.31.31-.92-.63-1.19-1.16-1.67A9.28,9.28,0,0,1,301.38,65.26Z"/><path class="cls-2" d="M260.14,33.76c4.28,4,8.84,7.7,12,12.75a3.24,3.24,0,0,1-2.48-1.38C266.38,41.42,262.39,38.31,260.14,33.76Z"/><path class="cls-9" d="M600.58,1037.77c1.88-2.67,4.93-4,7.19-6.31.85-.86,1.93,1.36,3.29,1.11A39.91,39.91,0,0,1,600.58,1037.77Z"/><path class="cls-9" d="M476.11,1028.83c2-.15,3.66-2.14,5.91-1.35-1,2.15,1,3.38,1.56,5.06C481,1031.5,478.35,1030.58,476.11,1028.83Z"/><path class="cls-2" d="M247.39,11.27c-1.5,1-.67,2.46-.75,3.74-3.3-.49-2.21-3.68-3.19-5.54-.45-.86,1.1-1.4,2.12-.88S246.85,10.33,247.39,11.27Z"/><path class="cls-2" d="M288.64,69.76c-.74.92-1.8.8-2.77.72-4.61-.39-9.15.62-13.73.76,1.36-1.63,3.23-1.5,5.08-1.49Z"/><path class="cls-2" d="M289.38,60c3.65,1.45,7.39,2.74,10.5,5.25C295.6,65.07,292.33,62.87,289.38,60Z"/><path class="cls-9" d="M440,1001.88c2.93.63,5.29,1.81,5.3,5.35C442.69,1006.28,441.34,1004.09,440,1001.88Z"/><path class="cls-15" d="M554.05,905.83a38.38,38.38,0,0,1,15.83,0Z"/><path class="cls-2" d="M260.14,72.75l-13.5,3A25.07,25.07,0,0,1,260.14,72.75Z"/><path class="cls-2" d="M248.14,17.27a12.82,12.82,0,0,1,5.24,7.49C250.77,22.87,249.43,20.09,248.14,17.27Z"/><path class="cls-2" d="M834.53,779.13c-1.62-4.17-.34-8.51-.74-12.75C835.42,770.55,834.13,774.89,834.53,779.13Z"/><path class="cls-2" d="M824,725.14c-2.11-1.49-2.12-3.76-2.25-6C822.73,721.07,825.35,722.37,824,725.14Z"/><path class="cls-2" d="M831.53,753.64c-1.95-1.64-1.41-3.9-1.49-6C832,749.28,832.63,751.24,831.53,753.64Z"/><path class="cls-9" d="M450.53,1011.62c3.65-1.67,3.74.28,3.06,3A8.9,8.9,0,0,1,450.53,1011.62Z"/><path class="cls-2" d="M239.15,77.26a11.47,11.47,0,0,1-6,1.49C234.64,76.2,237.12,77.63,239.15,77.26Z"/><path class="cls-15" d="M572.06,909.55c-2.76-.24-5.62.76-8.28-.66C566.53,909.2,569.4,908.07,572.06,909.55Z"/><path class="cls-2" d="M245.89,75.76c-1.23,2.32-3.43,1.23-5.25,1.48C242.05,75.53,244,75.74,245.89,75.76Z"/><path class="cls-2" d="M161.16,113.25a5.75,5.75,0,0,1-4.51,3A5.77,5.77,0,0,1,161.16,113.25Z"/><path class="cls-2" d="M257.14,29.26a5.79,5.79,0,0,1,3,4.5A5.75,5.75,0,0,1,257.14,29.26Z"/><path class="cls-9" d="M617.89,1028.12c-.86-.49-1.8-1-1.08-2.2a1.16,1.16,0,0,1,.87-.53c1.22.23.76,1.29.93,2Z"/><path class="cls-21" d="M395.12,323.2c-8.88-12.77-21.27-21.37-34.56-28.84-7.53-4.23-15.86-6.61-23.84-9.78-5.71-2.27-11.29-4.94-17-7.18-5.39-2.12-10.29-5.18-15.86-7-4.93-1.63-9.46-4.91-13.74-8-9.41-6.9-18.68-14-26.38-22.92-5.93-6.84-11.63-13.87-16.88-21.27l-4.76-6.66c.11-.82-.21-1.89,1-2.1.93-.16,1.17.71,1.6,1.3,6.85,9.45,15.52,17.12,24.27,24.68,7,6,14.09,11.95,21.42,17.56a126.6,126.6,0,0,0,16.73,10.33c12,6.51,25.23,10.23,37.7,15.69a62.21,62.21,0,0,1,11.63,6.51c6.52,4.73,13.39,9.05,19.19,14.69,5.32,5.18,11.52,9.41,16.37,15.1.79.93,1.61,2,3,2,.5,1.24,1,2.49,1.52,3.73C397.17,322.41,397.58,323.76,395.12,323.2Z"/><path class="cls-22" d="M490.36,388.45c-.57,2.49,1.27,3.07,3,3.76,2.6,1.48,4.88,1.83,6.18-1.64.33-.88.54-2.12,1.94-1.69a2.18,2.18,0,0,1,1.37,3,6.46,6.46,0,0,1-6,4.77A10.34,10.34,0,0,1,489,394c-.89-.77-1.51-2.07-3-1.72-.05-2.2.26-4.49-.23-6.59-.83-3.62,2.56-5.65,2.93-8.83.11-.95,2-.47,2.85.32,1.24,1.14,1.86,2.53.21,3.74C488.75,383.08,489.13,385.66,490.36,388.45Z"/><path class="cls-23" d="M257.27,423a4.4,4.4,0,0,1-3.73-2.76c-2.33-4.54-4.76-9.05-6.78-13.73-.85-2-1.8-3.41-3.86-4.07a9.64,9.64,0,0,1-2.33-1.18c-1.1-.72-2.07-1.7-1.39-3.1.78-1.63,2.17-1.32,3.52-.65,6.53,3.26,13.48,5.14,20.67,3.75,15.88-3.07,31.53-6.94,43.6-18.92l.26-.27c1.41-1.3,3.42-3,4.84-1.56s-.26,3.42-1.72,4.56a5.89,5.89,0,0,0-2.2,5.22q.08,6.75-.18,13.48c-.07,1.72-.27,3.68-2.09,4.55s-3.27-.64-4.62-1.67a48.92,48.92,0,0,1-7.48-7.33,2.85,2.85,0,0,0-3.83-.95,135.39,135.39,0,0,1-22.55,6.84c-1.67.36-2.41.87-2.85,2.69-.94,4-2.37,7.88-3.63,11.81A4.18,4.18,0,0,1,257.27,423Z"/><path d="M185,356.77a17.75,17.75,0,0,1,.93-6.26c.91-2.46,2.22-4.53,5.12-4.81s5.71.7,7.19,3.13c4.11,6.73,6,14,3.16,21.75-.91,2.52-2.15,5-5.25,5.17a7.59,7.59,0,0,1-7.7-4.22A32.37,32.37,0,0,1,185,356.77Z"/><path class="cls-24" d="M341.17,331.33v.37c-.07,5.81-1.59,8.53-5.15,9.21-4,.76-8.26-2-10.11-6.64-2-5-3.75-10.11-2.3-15.65.77-2.91,2.06-5.42,5.22-6.3s5.29.91,7.18,3C340.14,319.85,340.82,325.54,341.17,331.33Z"/><path class="cls-3" d="M401.13,335.18q0-5.28,0-10.54c1.28,3.2.74,6.53.69,9.82Z"/><path class="cls-3" d="M240.64,221.22a12.85,12.85,0,0,1,.24-2.5c.21-.74.43-1.84,1.54-1.65s1.21,1.06,1.17,2C241,217.61,242.13,221.18,240.64,221.22Z"/><path class="cls-25" d="M353,858.91c-1.86-2.2-5.49-3.7-3.2-6.3,1.84-2.1,3.93.95,5.62,2.11,13.25,9.07,18.2,22,16.53,37.54-1.32,12.23-7.08,22.76-13.94,32.72-2.18,3.16-5.28,5.28-8.58,7.09-1.67.91-3.42,1.38-4.3-1-.74-2-2.32-1.16-3.5-1.13-9.36.24-18.69.3-28-1.48-10.28-2-13.88-9.27-8.9-18.64.61-1.15.91-1.57-.3-2.63-5.73-5.06-6.38-9.4-2.74-16.17.53-1,1.49-1.68.21-3.18-4.51-5.27-3.63-11.55,2.26-15.67,9.72-6.81,20.68-10.31,32.43-11.49C342,860.17,347.25,859.54,353,858.91Z"/><path class="cls-26" d="M233.91,798.66c2.82-1,5.53-2.35,8.63-2.18,1.37.08,3-.05,3.2,1.79.13,1.54-1.34,1.93-2.56,2.26s-2.7.53-4,.94c-1,.31-2.52.27-2.66,1.63s1.12,1.87,2.08,2.4c6.74,3.71,14.07,5.79,21.56,7.21,23.65,4.48,47.21,3,70.72-1.3,7.09-1.29,13.3-5,20.07-7.11,1.28-.4,2.5-1.12,4.11-.88-1.78,3-5,4.2-7.25,6.42-11.67,6.5-24.6,7.78-37.52,8.93-17.82,1.58-35.63,1.92-53.23-2.18a88.76,88.76,0,0,1-18.44-6,20.49,20.49,0,0,1-3.54-2.07C231.25,805.63,230.92,802.5,233.91,798.66Z"/><path class="cls-27" d="M386.15,543.46c1.8,0,2.71.8,2.75,2.45a1.9,1.9,0,0,1-1.95,2.18,2.49,2.49,0,0,1-2.84-2.27C383.88,544.26,385.06,543.76,386.15,543.46Z"/><path class="cls-28" d="M387.18,559.25c1.94,0,2.79.77,2.81,2.46a2.13,2.13,0,0,1-2.23,2.4,2.2,2.2,0,0,1-2.57-2.09C385.05,560.48,385.74,559.39,387.18,559.25Z"/><path class="cls-9" d="M601.21,1033.35c-2-.08-4.36,0-4.71-2.4-.21-1.51,1.72-1.26,2.9-1.37,2.26-.2,4.14.79,4.48,2.87C604.1,1033.82,602.14,1033.08,601.21,1033.35Z"/><path class="cls-9" d="M488.86,1033a3.79,3.79,0,0,1-1.53-.44c-1-.78-3-1.06-2.46-2.68s2.14-.21,3.25-.12a6.31,6.31,0,0,1,1.4.49c1,.32,2.67-.15,2.44,1.46C491.77,1033,490,1032.34,488.86,1033Z"/><path class="cls-9" d="M579.13,1034.08c1.29,0,2.7-.15,2.63,1.72a1.88,1.88,0,0,1-2.15,2,2.83,2.83,0,0,1-2.59-2.65C576.8,1033.6,578.39,1034.32,579.13,1034.08Z"/><path class="cls-9" d="M570.65,1037c1.67-.86,2.91-1,3.94.29a1,1,0,0,1-.1.94C573,1039,571.94,1038.31,570.65,1037Z"/><path class="cls-3" d="M455,322.29c-1.71,9.15-3.09,18.31-7.37,26.86-2.18,4.34-3.5,9.16-5.69,13.61a26.38,26.38,0,0,1-2.64,4.35c-.63.82-.83,2.57-2.19,2.16s-1.64-2.13-1.45-3.49c.95-6.52-.66-12.94-1.85-19.13-1.14-6-2.13-12.2-4.79-17.84a68.49,68.49,0,0,1-2.18-6.63,50,50,0,0,0-6-12.63c-.43-.61-1-1.16-.51-2,.64-1,1.44-.6,2.3-.25q10.51,4.17,21.06,8.28c2.86,1.12,5.75,2.15,8.62,3.26C453.84,319.48,455.39,320.13,455,322.29Z"/><path class="cls-3" d="M395.12,323.2c1.51-.07,1.49-1.16,1.5-2.24.37.31.93.55,1.08,1,.47,1.22,1.13,3-.19,3.57S395.71,324.24,395.12,323.2Z"/><path class="cls-29" d="M257,417.63l-6-11.78c2.83,0,5.26,0,7.69,0,1.41,0,1.74.66,1.37,1.86C259.18,410.75,258.23,413.79,257,417.63Z"/><path class="cls-30" d="M303.49,391.34a33.32,33.32,0,0,1-.14,11.39c-2.38-2.66-4.4-4.91-6.51-7.28Z"/><path class="cls-5" d="M350.9,903.3c-3.51-3.25-7.76-3.09-11.76-3A89.57,89.57,0,0,0,314.4,904c-4.72,1.44-8.64.07-10-3.28s.69-8.64,4.5-10.53A63.57,63.57,0,0,1,332.3,884c4.21-.33,8.44-1,12.7-.24,1.57.27,3.74.49,4.05-1.55.34-2.25-1.77-2.67-3.58-2.83a78.66,78.66,0,0,0-29.94,3.45c-2.27.69-4.54,1.38-6.77,2.19a3.72,3.72,0,0,1-4.16-.74c-1.33-1.28-1.23-2.8-.67-4.5.89-2.7,2.9-4.2,5.17-5.63,9.91-6.25,20.95-8.52,32.38-9.56,4.72-.43,9.46-.77,14.15-1.46,2.82-.42,4.28.79,5.72,3,8.76,13.34,8.26,27.09,1.79,41-8.61,18.51-8.71,18.48-29,18.6A90.57,90.57,0,0,1,314,924c-3.51-.77-6.47-2.07-7-6.16-.45-3.58,1.53-6.71,5.52-8.34,9.16-3.75,18.82-4.72,28.6-4.77C344.42,904.69,347.61,904.78,350.9,903.3Z"/></svg>