<?xml version="1.0" standalone="no"?>
<!DOCTYPE svg PUBLIC "-//W3C//DTD SVG 20010904//EN"
 "http://www.w3.org/TR/2001/REC-SVG-20010904/DTD/svg10.dtd">
<svg version="1.0" xmlns="http://www.w3.org/2000/svg"
 width="1051.000000pt" height="1051.000000pt" viewBox="0 0 1051.000000 1051.000000"
 preserveAspectRatio="xMidYMid meet">
<metadata>
Created by potrace 1.14, written by Peter Selinger 2001-2017
</metadata>
<g transform="translate(0.000000,1051.000000) scale(0.100000,-0.100000)"
fill="#000000" stroke="none">
<path d="M3300 10490 c0 -71 173 -316 330 -468 94 -91 96 -92 108 -92 7 0 12
-4 12 -8 0 -5 16 -17 35 -28 43 -23 44 -30 3 -30 -18 -1 -55 -4 -83 -7 -27 -4
-77 -9 -110 -12 -33 -3 -73 -8 -90 -11 -16 -3 -39 -7 -50 -9 -11 -1 -40 -8
-65 -15 -25 -7 -54 -14 -64 -16 -11 -2 -56 -16 -100 -31 -45 -15 -83 -28 -86
-28 -3 -1 -18 -7 -35 -14 -16 -7 -34 -14 -40 -15 -5 -1 -19 -7 -30 -13 -11 -6
-24 -12 -30 -13 -5 -1 -31 -12 -57 -25 -25 -13 -49 -21 -52 -18 -3 4 -6 2 -6
-4 0 -6 -12 -16 -27 -22 -32 -12 -126 -65 -165 -92 -14 -10 -31 -19 -37 -19
-6 0 -11 -5 -11 -10 0 -6 -11 -15 -25 -20 -28 -11 -86 -49 -97 -65 -4 -5 -8
-6 -8 -2 0 5 -7 2 -15 -5 -26 -23 -39 -33 -78 -57 -21 -13 -43 -28 -50 -35 -6
-6 -37 -29 -67 -51 -30 -22 -62 -47 -71 -55 -8 -8 -33 -31 -55 -51 -53 -49
-101 -103 -149 -169 -48 -65 -105 -157 -105 -169 0 -5 -7 -14 -15 -21 -8 -7
-13 -16 -10 -20 3 -5 1 -11 -4 -15 -10 -6 -128 -246 -136 -275 0 -3 -11 -27
-24 -55 -12 -27 -24 -54 -25 -60 -2 -5 -8 -21 -13 -35 -28 -64 -55 -136 -58
-150 -2 -8 -15 -46 -28 -85 -22 -60 -77 -245 -92 -310 -3 -11 -18 -74 -35
-140 -16 -66 -32 -136 -35 -155 -3 -20 -7 -45 -9 -55 -3 -19 -13 -78 -21 -135
-7 -45 -17 -125 -20 -155 -10 -95 -23 -201 -30 -235 -3 -14 -9 -47 -15 -75
-15 -79 -17 -89 -40 -172 -31 -113 -68 -221 -92 -273 -26 -57 -40 -95 -36 -96
2 -1 -4 -10 -13 -20 -9 -11 -20 -30 -24 -44 -4 -14 -16 -37 -26 -52 -11 -14
-19 -29 -19 -32 0 -4 -37 -64 -83 -134 -108 -165 -103 -156 -81 -144 11 6 22
10 27 10 27 1 80 18 129 42 31 16 58 26 61 24 2 -3 10 2 17 11 7 8 19 15 26
15 8 0 14 4 14 8 0 5 16 14 35 22 19 8 35 17 35 21 0 4 8 10 18 13 9 3 29 16
44 28 15 13 41 34 59 48 29 22 84 71 158 139 267 244 285 261 289 257 6 -6 37
-121 47 -176 3 -14 7 -36 10 -50 4 -14 8 -38 11 -55 3 -16 9 -52 14 -80 13
-68 18 -102 25 -155 3 -25 8 -61 10 -80 3 -19 8 -60 10 -90 2 -30 7 -89 10
-130 8 -97 7 -272 -1 -380 -4 -47 -8 -97 -8 -112 0 -16 -3 -28 -6 -28 -3 0 -5
-15 -6 -33 -1 -41 -13 -121 -25 -172 -5 -22 -12 -51 -15 -65 -9 -48 -55 -211
-66 -238 -6 -15 -12 -29 -13 -32 -15 -51 -27 -86 -47 -140 -34 -87 -159 -382
-167 -395 -4 -5 -16 -32 -26 -60 -10 -27 -33 -84 -52 -125 -19 -41 -41 -89
-49 -107 -8 -17 -14 -36 -14 -42 0 -6 -4 -11 -8 -11 -5 0 -9 -6 -10 -12 0 -7
-21 -65 -45 -128 -25 -63 -48 -128 -51 -145 -3 -16 -10 -50 -16 -75 -28 -110
-41 -307 -30 -455 2 -28 30 -146 40 -170 50 -122 165 -313 204 -337 13 -8 32
21 20 31 -15 10 -42 76 -50 118 -1 6 -7 27 -12 45 -35 109 -34 317 2 446 17
63 94 228 113 243 7 6 10 15 7 20 -3 5 0 9 5 9 6 0 11 7 11 15 0 21 20 19 21
-2 2 -29 -3 -126 -7 -148 -3 -11 -7 -36 -9 -55 -3 -19 -7 -48 -9 -65 -22 -145
-23 -486 -3 -575 18 -80 86 -244 107 -260 10 -8 50 -77 50 -87 0 -5 -12 -16
-27 -25 -16 -9 -37 -24 -48 -32 -11 -9 -49 -38 -85 -63 -36 -26 -73 -56 -83
-67 -9 -10 -17 -16 -17 -13 0 4 -19 -15 -42 -41 -24 -26 -45 -49 -48 -52 -45
-43 -156 -204 -184 -265 -11 -22 -28 -60 -40 -85 -12 -25 -30 -72 -40 -105
-10 -33 -21 -67 -24 -75 -3 -8 -6 -22 -7 -30 -1 -8 -5 -29 -9 -46 -4 -17 -9
-58 -11 -92 -2 -34 -7 -66 -10 -72 -3 -5 -2 -10 3 -10 4 0 8 -15 7 -33 -6
-109 60 -268 150 -360 64 -66 188 -147 240 -157 3 0 22 -8 42 -17 113 -47 295
-67 458 -49 69 7 203 41 255 63 67 29 155 75 171 89 8 8 21 14 27 14 7 0 12 5
12 10 0 6 6 10 13 10 12 0 87 67 122 111 43 53 69 123 79 214 3 23 13 47 24
55 22 19 39 49 37 70 -1 18 28 40 58 44 12 2 33 8 47 14 32 13 149 50 174 54
19 3 20 0 30 -67 20 -136 64 -237 135 -317 64 -70 101 -94 188 -117 134 -36
259 -51 453 -52 91 0 151 3 305 16 35 3 108 13 148 21 49 10 81 15 100 15 9 0
17 4 17 10 0 5 8 9 18 9 28 0 116 45 156 80 57 51 79 102 82 195 2 74 4 81 31
102 32 26 51 28 123 11 56 -13 103 -52 190 -158 25 -30 65 -76 89 -102 44 -47
45 -50 47 -121 1 -39 4 -79 6 -87 6 -28 57 -124 80 -154 29 -37 126 -135 158
-161 35 -28 138 -95 146 -95 3 0 19 -9 35 -21 39 -27 192 -102 254 -124 28 -9
57 -20 65 -23 8 -3 19 -4 24 -3 4 1 13 -2 20 -7 6 -5 40 -15 76 -22 36 -6 74
-14 85 -16 125 -26 416 -25 610 2 50 7 136 33 153 47 6 5 12 7 12 4 0 -17 221
103 256 138 9 8 19 15 23 15 6 0 105 97 136 134 24 29 55 76 55 85 0 5 3 11 7
13 18 7 82 165 88 215 2 12 6 36 10 55 4 18 9 44 11 58 12 118 16 163 18 217
1 34 4 65 7 68 9 8 157 -163 231 -265 44 -62 93 -134 102 -151 26 -53 100
-169 107 -169 4 0 7 15 7 33 -1 17 2 42 5 53 11 42 20 99 19 124 -1 33 -11
175 -12 175 -1 0 -3 16 -5 36 -2 19 -5 40 -7 46 -2 6 1 12 7 13 7 2 66 -98 75
-128 2 -4 4 -11 6 -17 35 -100 83 -261 90 -305 3 -14 9 -38 14 -55 5 -16 12
-55 16 -85 3 -30 8 -66 10 -80 3 -21 13 -127 16 -177 1 -7 5 -13 10 -13 13 0
128 122 128 136 0 2 10 15 23 28 39 40 81 89 129 151 26 33 54 68 63 78 9 10
26 34 37 53 11 19 23 34 27 34 5 0 16 16 27 35 10 19 22 35 26 35 5 0 8 4 8
10 0 5 18 36 40 67 22 32 40 61 40 66 0 4 16 30 35 57 19 27 35 53 35 58 0 4
11 24 25 45 14 20 23 37 20 37 -3 0 6 17 20 37 14 21 25 43 25 50 0 7 5 13 10
13 6 0 10 9 10 19 0 11 3 21 8 23 9 4 56 100 54 111 -1 4 2 7 8 7 5 0 10 8 10
18 0 10 4 22 9 28 9 9 81 175 81 186 0 4 5 19 11 35 6 15 10 29 10 31 -1 1 6
16 15 33 8 17 13 33 10 37 -3 3 -2 10 3 16 8 10 39 105 46 145 2 9 4 18 6 21
1 3 3 10 4 15 1 6 5 17 8 25 6 15 28 120 33 155 1 11 3 20 4 20 2 0 8 34 15
80 3 22 7 56 10 75 2 19 7 53 9 75 3 22 9 63 13 90 8 58 8 332 0 390 -3 22 -8
65 -12 96 -3 31 -8 66 -10 78 -3 11 -7 31 -10 44 -3 12 -7 33 -10 47 -2 14
-14 59 -25 100 -11 41 -23 86 -26 100 -2 14 -11 41 -18 60 -8 19 -14 37 -14
40 -1 3 -3 13 -6 23 -3 9 -9 25 -12 35 -3 9 -5 18 -5 19 0 2 -7 19 -15 40 -15
36 -15 37 3 23 65 -51 203 -212 203 -239 0 -5 4 -11 9 -13 7 -2 71 -119 76
-138 5 -18 18 -40 24 -40 3 0 6 26 6 57 0 32 4 87 8 123 9 63 11 110 7 120 -1
3 -3 20 -5 39 -4 35 -9 73 -20 146 -13 85 -21 117 -46 195 -11 36 -22 72 -24
80 -2 8 -11 35 -20 60 -9 25 -26 70 -37 100 -37 101 -117 273 -130 278 -4 2
-8 12 -8 23 0 10 -4 19 -9 19 -5 0 -12 8 -16 19 -3 10 -26 45 -51 77 -64 82
-70 94 -42 88 62 -14 104 -19 223 -27 96 -7 283 46 272 77 -3 6 -10 10 -16 8
-6 -1 -11 1 -11 5 0 5 -19 9 -42 11 -23 1 -71 14 -106 29 -125 50 -371 201
-457 281 -8 6 -18 12 -23 12 -6 0 -12 4 -14 9 -1 4 -48 44 -103 88 -96 76
-147 127 -280 277 -33 38 -67 75 -75 84 -8 8 -36 42 -62 76 -26 34 -54 69 -62
79 -9 9 -16 19 -16 22 0 3 -19 32 -42 64 -24 33 -50 69 -58 81 -8 12 -27 40
-42 61 -16 21 -28 42 -28 46 0 3 -6 14 -14 22 -22 26 -146 260 -146 276 0 3
-16 40 -36 82 -19 43 -39 87 -44 98 -12 29 -53 120 -85 190 -15 33 -36 83 -46
110 -11 28 -24 59 -29 70 -5 11 -12 31 -14 45 -2 14 -11 42 -20 62 -9 21 -16
39 -15 40 1 4 -12 61 -18 78 -8 22 -16 48 -27 98 -4 16 -20 75 -51 190 -8 28
-22 76 -30 105 -7 28 -30 107 -49 175 -30 105 -74 297 -90 395 -3 16 -9 43
-15 60 -5 18 -24 79 -41 137 -17 58 -34 112 -37 120 -4 8 -7 17 -8 20 -3 12
-27 86 -32 100 -4 8 -7 17 -8 20 -1 3 -5 14 -10 25 -4 11 -16 40 -25 65 -35
91 -149 309 -224 430 -56 91 -95 144 -156 211 -19 22 -46 53 -60 70 -95 118
-257 279 -280 279 -6 0 -10 3 -10 8 0 4 -25 23 -55 42 -30 19 -55 38 -55 43 0
4 -6 7 -14 7 -8 0 -21 6 -28 13 -17 15 -51 34 -198 110 -63 32 -121 64 -127
69 -7 6 -13 8 -13 4 0 -4 -13 0 -30 9 -16 8 -33 15 -36 14 -4 0 -10 3 -13 9
-5 7 -205 90 -236 97 -5 1 -18 5 -27 9 -9 4 -22 9 -30 10 -19 4 -129 36 -158
46 -24 9 -63 16 -145 26 -22 3 -56 7 -75 10 -19 3 -46 8 -60 9 -23 4 -151 26
-225 40 -16 3 -64 13 -105 21 -41 9 -84 18 -95 20 -11 2 -31 6 -45 9 -14 4
-36 8 -50 11 -14 3 -33 7 -42 10 -19 6 -42 10 -93 18 -20 4 -41 8 -45 11 -3 2
-22 7 -41 10 -19 3 -82 17 -142 31 -59 14 -113 27 -120 28 -71 15 -211 57
-254 77 -24 10 -46 19 -50 19 -25 0 -324 165 -331 182 -2 5 -9 8 -15 8 -6 0
-20 9 -31 19 -12 10 -38 28 -58 39 -21 11 -63 42 -93 71 -61 56 -75 61 -75 31z"/>
</g>
</svg>
